<svg width="223" height="222" viewBox="0 0 223 222" fill="none" xmlns="http://www.w3.org/2000/svg">
<path d="M89.8591 122.016C88.3279 122.016 86.9656 121.768 85.7725 121.271C84.5859 120.767 83.6546 120.081 82.9784 119.212C82.3023 118.344 81.9642 117.36 81.9642 116.259C81.9642 115.411 82.1565 114.632 82.5409 113.923C82.932 113.207 83.4623 112.614 84.1318 112.143C84.8013 111.666 85.5504 111.361 86.379 111.228V111.089C85.2919 110.87 84.4102 110.343 83.7341 109.508C83.058 108.666 82.7199 107.688 82.7199 106.575C82.7199 105.521 83.0281 104.583 83.6446 103.761C84.2611 102.932 85.1063 102.283 86.1801 101.812C87.2606 101.335 88.487 101.096 89.8591 101.096C91.2313 101.096 92.4543 101.335 93.5281 101.812C94.6086 102.289 95.4571 102.942 96.0736 103.771C96.6901 104.593 97.0016 105.527 97.0083 106.575C97.0016 107.695 96.6569 108.673 95.9742 109.508C95.2914 110.343 94.4164 110.87 93.3492 111.089V111.228C94.1645 111.361 94.9036 111.666 95.5665 112.143C96.236 112.614 96.7663 113.207 97.1574 113.923C97.5551 114.632 97.7573 115.411 97.7639 116.259C97.7573 117.36 97.4159 118.344 96.7398 119.212C96.0637 120.081 95.129 120.767 93.9358 121.271C92.7493 121.768 91.3904 122.016 89.8591 122.016ZM89.8591 118.855C90.5419 118.855 91.1385 118.732 91.6489 118.487C92.1593 118.235 92.557 117.89 92.8421 117.453C93.1337 117.008 93.2796 116.498 93.2796 115.921C93.2796 115.331 93.1304 114.811 92.8321 114.36C92.5338 113.903 92.1295 113.545 91.6191 113.286C91.1086 113.021 90.522 112.889 89.8591 112.889C89.2029 112.889 88.6162 113.021 88.0992 113.286C87.5821 113.545 87.1745 113.903 86.8762 114.36C86.5845 114.811 86.4387 115.331 86.4387 115.921C86.4387 116.498 86.5812 117.008 86.8662 117.453C87.1513 117.89 87.5523 118.235 88.0693 118.487C88.5864 118.732 89.183 118.855 89.8591 118.855ZM89.8591 109.757C90.4292 109.757 90.9363 109.64 91.3804 109.408C91.8245 109.176 92.1726 108.855 92.4245 108.444C92.6763 108.033 92.8023 107.559 92.8023 107.022C92.8023 106.492 92.6763 106.028 92.4245 105.63C92.1726 105.226 91.8279 104.911 91.3904 104.685C90.9529 104.453 90.4424 104.337 89.8591 104.337C89.2824 104.337 88.772 104.453 88.3279 104.685C87.8837 104.911 87.5357 105.226 87.2838 105.63C87.0386 106.028 86.9159 106.492 86.9159 107.022C86.9159 107.559 87.0419 108.033 87.2938 108.444C87.5457 108.855 87.8937 109.176 88.3378 109.408C88.7819 109.64 89.289 109.757 89.8591 109.757ZM108.759 122.185C107.048 122.179 105.577 121.758 104.344 120.923C103.118 120.087 102.173 118.878 101.51 117.293C100.854 115.709 100.529 113.803 100.536 111.576C100.536 109.355 100.864 107.463 101.52 105.899C102.183 104.334 103.127 103.144 104.354 102.329C105.587 101.507 107.055 101.096 108.759 101.096C110.462 101.096 111.927 101.507 113.154 102.329C114.386 103.151 115.334 104.344 115.997 105.908C116.66 107.466 116.988 109.355 116.982 111.576C116.982 113.81 116.65 115.719 115.987 117.303C115.331 118.888 114.39 120.097 113.163 120.933C111.937 121.768 110.469 122.185 108.759 122.185ZM108.759 118.616C109.925 118.616 110.857 118.029 111.553 116.856C112.249 115.683 112.593 113.923 112.587 111.576C112.587 110.032 112.428 108.746 112.109 107.718C111.798 106.691 111.354 105.918 110.777 105.401C110.207 104.884 109.534 104.626 108.759 104.626C107.599 104.626 106.671 105.206 105.975 106.366C105.279 107.526 104.927 109.263 104.921 111.576C104.921 113.14 105.076 114.446 105.388 115.494C105.706 116.534 106.154 117.317 106.73 117.84C107.307 118.357 107.983 118.616 108.759 118.616ZM131.198 117.92V116.846C131.198 116.031 131.37 115.282 131.715 114.599C132.066 113.909 132.573 113.359 133.236 112.948C133.906 112.531 134.721 112.322 135.682 112.322C136.657 112.322 137.475 112.527 138.138 112.938C138.808 113.349 139.312 113.899 139.65 114.589C139.994 115.272 140.167 116.024 140.167 116.846V117.92C140.167 118.735 139.994 119.488 139.65 120.177C139.305 120.86 138.798 121.407 138.128 121.818C137.459 122.235 136.643 122.444 135.682 122.444C134.708 122.444 133.889 122.235 133.226 121.818C132.563 121.407 132.06 120.86 131.715 120.177C131.37 119.488 131.198 118.735 131.198 117.92ZM134.091 116.846V117.92C134.091 118.39 134.204 118.835 134.429 119.252C134.661 119.67 135.079 119.879 135.682 119.879C136.285 119.879 136.696 119.673 136.915 119.262C137.141 118.851 137.253 118.404 137.253 117.92V116.846C137.253 116.362 137.147 115.911 136.935 115.494C136.723 115.076 136.305 114.867 135.682 114.867C135.086 114.867 134.671 115.076 134.439 115.494C134.207 115.911 134.091 116.362 134.091 116.846ZM120.748 106.266V105.193C120.748 104.371 120.923 103.618 121.275 102.935C121.626 102.246 122.133 101.696 122.796 101.285C123.465 100.874 124.274 100.668 125.222 100.668C126.203 100.668 127.025 100.874 127.688 101.285C128.351 101.696 128.855 102.246 129.199 102.935C129.544 103.618 129.716 104.371 129.716 105.193V106.266C129.716 107.088 129.541 107.841 129.189 108.524C128.845 109.206 128.338 109.753 127.668 110.164C127.005 110.569 126.19 110.771 125.222 110.771C124.254 110.771 123.436 110.565 122.766 110.154C122.103 109.737 121.599 109.19 121.255 108.514C120.917 107.831 120.748 107.082 120.748 106.266ZM123.661 105.193V106.266C123.661 106.75 123.774 107.198 123.999 107.609C124.231 108.02 124.639 108.225 125.222 108.225C125.832 108.225 126.246 108.02 126.465 107.609C126.69 107.198 126.803 106.75 126.803 106.266V105.193C126.803 104.709 126.697 104.258 126.485 103.84C126.273 103.423 125.852 103.214 125.222 103.214C124.632 103.214 124.224 103.426 123.999 103.85C123.774 104.274 123.661 104.722 123.661 105.193ZM122.06 121.738L136.06 101.374H138.665L124.665 121.738H122.06Z" fill="white"/>
<path d="M185.045 111.001C185.045 151.362 152.161 184.129 111.536 184.129C70.9112 184.129 38.0273 151.362 38.0273 111.001C38.0273 70.6409 70.9112 37.8733 111.536 37.8733C152.161 37.8733 185.045 70.6409 185.045 111.001Z" stroke="#2E2E2E" stroke-width="12"/>
<path d="M78.5506 173.098C76.2452 177.438 70.8158 179.141 66.7508 176.383C60.0779 171.856 54.1224 166.334 49.1006 159.995C42.236 151.331 37.268 141.333 34.5158 130.645C31.7636 119.956 31.2879 108.813 33.1193 97.931C34.4566 89.9844 37.0026 82.3052 40.6548 75.153C42.8948 70.7664 48.4866 69.6439 52.6037 72.3445C56.7238 75.0472 57.7898 80.5537 55.6939 85.0142C53.3333 90.0383 51.6621 95.3705 50.737 100.868C49.317 109.305 49.6859 117.945 51.8198 126.232C53.9537 134.519 57.8055 142.27 63.1278 148.988C66.6064 153.379 70.6629 157.264 75.1776 160.546C79.1505 163.434 80.856 168.758 78.5506 173.098Z" fill="#16361B"/>
<path d="M166.302 152.632C170.952 156.167 171.883 162.851 167.738 166.974C155.666 178.98 139.952 186.872 122.874 189.321C105.786 191.771 88.4619 188.609 73.4689 180.471C68.3396 177.687 67.3484 171.022 70.8067 166.325C74.2648 161.628 80.8619 160.706 86.1204 163.24C96.5195 168.252 108.26 170.111 119.853 168.449C131.435 166.788 142.162 161.714 150.714 153.996C155.054 150.079 161.652 149.098 166.302 152.632Z" fill="#24692E"/>
<g filter="url(#filter0_d_2026_4955)">
<path d="M111.536 45.6722C111.536 38.0523 117.759 31.754 125.265 33.0636C136.882 35.0905 147.961 39.6753 157.661 46.5511C171.129 56.0971 181.271 69.5841 186.677 85.135C192.082 100.686 192.481 117.527 187.819 133.314C184.46 144.689 178.595 155.109 170.716 163.847C165.621 169.499 156.854 168.392 152.139 162.42C147.392 156.409 148.635 147.76 153.198 141.608C156.774 136.786 159.499 131.352 161.217 125.534C164.254 115.252 163.993 104.284 160.473 94.1559C156.953 84.0281 150.347 75.2443 141.576 69.0273C136.58 65.4856 131.021 62.8772 125.172 61.2882C117.819 59.2905 111.536 53.2921 111.536 45.6722Z" fill="#3AB54B"/>
</g>
<defs>
<filter id="filter0_d_2026_4955" x="108.336" y="32.8904" width="85.9088" height="141.054" filterUnits="userSpaceOnUse" color-interpolation-filters="sRGB">
<feFlood flood-opacity="0" result="BackgroundImageFix"/>
<feColorMatrix in="SourceAlpha" type="matrix" values="0 0 0 0 0 0 0 0 0 0 0 0 0 0 0 0 0 0 127 0" result="hardAlpha"/>
<feOffset dy="3.2"/>
<feGaussianBlur stdDeviation="1.6"/>
<feColorMatrix type="matrix" values="0 0 0 0 0.356863 0 0 0 0 0.576471 0 0 0 0 1 0 0 0 0.24 0"/>
<feBlend mode="normal" in2="BackgroundImageFix" result="effect1_dropShadow_2026_4955"/>
<feBlend mode="normal" in="SourceGraphic" in2="effect1_dropShadow_2026_4955" result="shape"/>
</filter>
</defs>
</svg>
