<svg width="358" height="207" viewBox="0 0 358 207" fill="none" xmlns="http://www.w3.org/2000/svg">
<line y1="40.7869" x2="358" y2="40.7869" stroke="#383838" stroke-dasharray="8 8"/>
<line y1="90.5015" x2="358" y2="90.5015" stroke="#383838" stroke-dasharray="8 8"/>
<line y1="140.216" x2="358" y2="140.216" stroke="#383838" stroke-dasharray="8 8"/>
<path d="M6.47559 48.6522C6.47559 48.6522 22.5555 85.2612 43.9407 92.3823C69.3485 100.843 82.7322 63.2436 108.695 69.8268C141.239 78.0785 120.897 137.062 154.023 142.557C203.977 150.843 179 69.8268 281.682 39.4458" stroke="#3AB54B" stroke-width="4"/>
<line x1="283.622" y1="41.2869" x2="283.622" y2="207.001" stroke="#AAABAD" stroke-width="1.10278"/>
<g filter="url(#filter0_b_2026_4954)">
<rect x="249.958" y="0.779297" width="69" height="29.0278" rx="14.5139" fill="white"/>
<rect x="250.234" y="1.05499" width="68.4486" height="28.4764" rx="14.2382" stroke="white" stroke-opacity="0.1" stroke-width="0.551389"/>
<path d="M269.514 17.8955V11.9978H270.852V17.8955H269.514ZM267.234 15.6157V14.2776H273.132V15.6157H267.234ZM278.1 19.4125C277.466 19.4125 276.903 19.306 276.412 19.0929C275.923 18.8799 275.54 18.5887 275.261 18.2193C274.986 17.8472 274.85 17.4253 274.852 16.9537C274.85 16.5872 274.929 16.2506 275.091 15.9438C275.253 15.637 275.472 15.3813 275.747 15.1767C276.026 14.9693 276.335 14.8372 276.676 14.7804V14.7208C276.227 14.6213 275.864 14.3926 275.585 14.0347C275.31 13.6739 275.173 13.2577 275.176 12.7861C275.173 12.3372 275.298 11.9367 275.551 11.5844C275.804 11.2321 276.151 10.9551 276.591 10.7534C277.031 10.5489 277.534 10.4466 278.1 10.4466C278.659 10.4466 279.158 10.5489 279.595 10.7534C280.036 10.9551 280.382 11.2321 280.635 11.5844C280.891 11.9367 281.019 12.3372 281.019 12.7861C281.019 13.2577 280.878 13.6739 280.597 14.0347C280.318 14.3926 279.959 14.6213 279.519 14.7208V14.7804C279.859 14.8372 280.166 14.9693 280.439 15.1767C280.715 15.3813 280.933 15.637 281.095 15.9438C281.26 16.2506 281.342 16.5872 281.342 16.9537C281.342 17.4253 281.203 17.8472 280.925 18.2193C280.646 18.5887 280.263 18.8799 279.774 19.0929C279.288 19.306 278.73 19.4125 278.1 19.4125ZM278.1 18.1938C278.426 18.1938 278.71 18.1384 278.952 18.0276C279.193 17.914 279.381 17.7549 279.514 17.5503C279.648 17.3458 279.716 17.11 279.719 16.8429C279.716 16.5645 279.644 16.3188 279.502 16.1057C279.362 15.8898 279.171 15.7208 278.926 15.5986C278.685 15.4765 278.409 15.4154 278.1 15.4154C277.787 15.4154 277.509 15.4765 277.264 15.5986C277.02 15.7208 276.827 15.8898 276.685 16.1057C276.546 16.3188 276.477 16.5645 276.48 16.8429C276.477 17.11 276.543 17.3458 276.676 17.5503C276.81 17.752 276.997 17.9097 277.239 18.0233C277.483 18.137 277.77 18.1938 278.1 18.1938ZM278.1 14.2179C278.367 14.2179 278.602 14.164 278.807 14.056C279.014 13.948 279.178 13.7975 279.297 13.6043C279.416 13.4111 279.477 13.1881 279.48 12.9353C279.477 12.6853 279.418 12.4665 279.301 12.279C279.185 12.0887 279.023 11.9424 278.815 11.8401C278.608 11.735 278.369 11.6824 278.1 11.6824C277.824 11.6824 277.581 11.735 277.371 11.8401C277.163 11.9424 277.002 12.0887 276.885 12.279C276.771 12.4665 276.716 12.6853 276.719 12.9353C276.716 13.1881 276.773 13.4111 276.889 13.6043C277.009 13.7946 277.172 13.9452 277.379 14.056C277.59 14.164 277.83 14.2179 278.1 14.2179ZM283.453 19.387C283.194 19.387 282.973 19.2961 282.788 19.1142C282.603 18.9324 282.513 18.7108 282.515 18.4495C282.513 18.1938 282.603 17.975 282.788 17.7932C282.973 17.6114 283.194 17.5205 283.453 17.5205C283.703 17.5205 283.92 17.6114 284.105 17.7932C284.292 17.975 284.388 18.1938 284.39 18.4495C284.388 18.6228 284.342 18.7804 284.254 18.9225C284.169 19.0645 284.055 19.1782 283.913 19.2634C283.774 19.3458 283.62 19.387 283.453 19.387ZM285.966 19.2932V18.1512L288.996 15.181C289.286 14.8884 289.527 14.6284 289.72 14.4012C289.913 14.1739 290.058 13.9537 290.155 13.7407C290.252 13.5276 290.3 13.3003 290.3 13.0588C290.3 12.7833 290.237 12.5475 290.112 12.3515C289.987 12.1526 289.815 11.9992 289.597 11.8912C289.378 11.7833 289.129 11.7293 288.851 11.7293C288.564 11.7293 288.313 11.789 288.097 11.9083C287.881 12.0247 287.713 12.1909 287.594 12.4068C287.477 12.6228 287.419 12.8799 287.419 13.1782H285.915C285.915 12.6242 286.041 12.1426 286.294 11.7336C286.547 11.3245 286.895 11.0077 287.338 10.7833C287.784 10.5588 288.296 10.4466 288.872 10.4466C289.457 10.4466 289.972 10.556 290.415 10.7747C290.858 10.9935 291.202 11.2932 291.446 11.6739C291.693 12.0546 291.817 12.4892 291.817 12.9779C291.817 13.3046 291.754 13.6256 291.629 13.9409C291.504 14.2563 291.284 14.6057 290.969 14.9892C290.656 15.3728 290.217 15.8372 289.652 16.3827L288.148 17.9125V17.9722H291.949V19.2932H285.966ZM298.085 17.6568V17.1966C298.085 16.8586 298.156 16.5475 298.298 16.2634C298.443 15.9793 298.653 15.7506 298.929 15.5773C299.205 15.404 299.538 15.3174 299.93 15.3174C300.334 15.3174 300.672 15.404 300.945 15.5773C301.217 15.7478 301.423 15.975 301.563 16.2591C301.705 16.5432 301.776 16.8557 301.776 17.1966V17.6568C301.776 17.9949 301.705 18.306 301.563 18.5901C301.421 18.8742 301.212 19.1029 300.936 19.2762C300.663 19.4495 300.328 19.5361 299.93 19.5361C299.533 19.5361 299.196 19.4495 298.921 19.2762C298.645 19.1029 298.436 18.8742 298.294 18.5901C298.155 18.306 298.085 17.9949 298.085 17.6568ZM299.198 17.1966V17.6568C299.198 17.8813 299.252 18.0872 299.359 18.2747C299.467 18.4622 299.658 18.556 299.93 18.556C300.206 18.556 300.395 18.4637 300.497 18.279C300.602 18.0915 300.655 17.8841 300.655 17.6568V17.1966C300.655 16.9693 300.605 16.762 300.506 16.5745C300.406 16.3841 300.215 16.289 299.93 16.289C299.663 16.289 299.475 16.3841 299.364 16.5745C299.253 16.762 299.198 16.9693 299.198 17.1966ZM293.649 12.6625V12.2023C293.649 11.8614 293.722 11.5489 293.867 11.2648C294.011 10.9807 294.222 10.7534 294.497 10.583C294.773 10.4097 295.107 10.323 295.499 10.323C295.899 10.323 296.236 10.4097 296.509 10.583C296.784 10.7534 296.992 10.9807 297.131 11.2648C297.27 11.5489 297.34 11.8614 297.34 12.2023V12.6625C297.34 13.0034 297.269 13.3159 297.127 13.6C296.987 13.8813 296.78 14.1071 296.504 14.2776C296.229 14.448 295.894 14.5333 295.499 14.5333C295.098 14.5333 294.76 14.448 294.484 14.2776C294.212 14.1071 294.004 13.8799 293.862 13.5958C293.72 13.3117 293.649 13.0006 293.649 12.6625ZM294.77 12.2023V12.6625C294.77 12.8898 294.823 13.0972 294.928 13.2847C295.036 13.4693 295.226 13.5617 295.499 13.5617C295.771 13.5617 295.959 13.4693 296.061 13.2847C296.166 13.0972 296.219 12.8898 296.219 12.6625V12.2023C296.219 11.975 296.169 11.7676 296.07 11.5801C295.97 11.3898 295.78 11.2946 295.499 11.2946C295.229 11.2946 295.04 11.3898 294.932 11.5801C294.824 11.7705 294.77 11.9779 294.77 12.2023ZM294.135 19.2932L300.135 10.5659H301.2L295.2 19.2932H294.135Z" fill="#181818"/>
</g>
<g filter="url(#filter1_d_2026_4954)">
<circle cx="3.30833" cy="3.30833" r="4.88712" transform="matrix(-1 0 0 1 287.765 39.7319)" fill="#3AB54B" stroke="white" stroke-width="3.15758"/>
</g>
<defs>
<filter id="filter0_b_2026_4954" x="227.902" y="-21.2763" width="113.111" height="73.1389" filterUnits="userSpaceOnUse" color-interpolation-filters="sRGB">
<feFlood flood-opacity="0" result="BackgroundImageFix"/>
<feGaussianBlur in="BackgroundImageFix" stdDeviation="11.0278"/>
<feComposite in2="SourceAlpha" operator="in" result="effect1_backgroundBlur_2026_4954"/>
<feBlend mode="normal" in="SourceGraphic" in2="effect1_backgroundBlur_2026_4954" result="shape"/>
</filter>
<filter id="filter1_d_2026_4954" x="275.736" y="36.4238" width="17.4435" height="17.4435" filterUnits="userSpaceOnUse" color-interpolation-filters="sRGB">
<feFlood flood-opacity="0" result="BackgroundImageFix"/>
<feColorMatrix in="SourceAlpha" type="matrix" values="0 0 0 0 0 0 0 0 0 0 0 0 0 0 0 0 0 0 127 0" result="hardAlpha"/>
<feOffset dy="2.10505"/>
<feGaussianBlur stdDeviation="1.05253"/>
<feComposite in2="hardAlpha" operator="out"/>
<feColorMatrix type="matrix" values="0 0 0 0 0 0 0 0 0 0 0 0 0 0 0 0 0 0 0.1 0"/>
<feBlend mode="normal" in2="BackgroundImageFix" result="effect1_dropShadow_2026_4954"/>
<feBlend mode="normal" in="SourceGraphic" in2="effect1_dropShadow_2026_4954" result="shape"/>
</filter>
</defs>
</svg>
