<svg width="358" height="136" viewBox="0 0 358 136" fill="none" xmlns="http://www.w3.org/2000/svg">
<g clip-path="url(#clip0_2613_37223)">
<path d="M358 51.4846C358 23.0544 334.626 0 305.802 0C288.417 0 273.015 8.38388 263.528 21.2798C254.042 8.38388 238.64 0 221.255 0C203.87 0 188.484 8.37868 178.997 21.2589C169.516 8.37868 154.12 0 136.745 0C119.37 0 103.953 8.38909 94.4716 21.285C84.9901 8.38909 69.5834 0 52.1981 0C23.3686 0 0 23.0544 0 51.4846C0 52.0311 0.0105525 52.5723 0.0263813 53.1135H0V136H19.9285V91.9573C28.8084 98.8528 40.0152 102.969 52.1981 102.969C69.5887 102.969 84.9901 94.5802 94.4716 81.6843C103.948 94.5802 119.354 102.969 136.745 102.969C148.944 102.969 160.172 98.8424 169.057 91.9157V102.969H188.985V53.1187C188.959 52.5775 188.943 52.0311 188.943 51.4846C188.943 33.8842 203.405 19.6144 221.255 19.6144C239.105 19.6144 253.567 33.8842 253.567 51.4846C253.567 52.0311 253.551 52.5775 253.525 53.1187V102.969H273.453V91.8896C282.349 98.832 293.582 102.969 305.802 102.969C318.022 102.969 329.192 98.8528 338.072 91.9573V102.969H358V53.1135H357.974C357.989 52.5723 358 52.0311 358 51.4846ZM52.1981 83.3548C34.9078 83.3548 20.7938 69.9698 19.9285 53.1239V53.1135C19.9021 52.5775 19.8862 52.0311 19.8862 51.4846C19.8862 33.8842 34.3485 19.6144 52.1981 19.6144C70.0477 19.6144 84.51 33.8842 84.51 51.4846C84.51 69.0851 70.0424 83.3548 52.1981 83.3548ZM136.745 83.3548C118.895 83.3548 104.433 69.0903 104.433 51.4846C104.433 33.879 118.895 19.6144 136.745 19.6144C154.595 19.6144 169.057 33.8842 169.057 51.4846C169.057 69.0851 154.589 83.3548 136.745 83.3548ZM338.072 53.1135V53.1239C337.206 69.9698 323.087 83.3548 305.802 83.3548C288.517 83.3548 273.49 69.0903 273.49 51.4846C273.49 33.879 287.952 19.6144 305.802 19.6144C323.651 19.6144 338.114 33.8842 338.114 51.4846C338.114 52.0311 338.098 52.5775 338.072 53.1135Z" fill="white" fill-opacity="0.15"/>
<path d="M310.896 63.7567C317.764 60.9508 321.025 53.1849 318.18 46.411C315.336 39.6371 307.462 36.4204 300.594 39.2262C293.727 42.0321 290.465 49.798 293.31 56.5719C296.155 63.3458 304.028 66.5625 310.896 63.7567Z" fill="#3AB54B"/>
</g>
<defs>
<clipPath id="clip0_2613_37223">
<rect width="358" height="136" fill="white"/>
</clipPath>
</defs>
</svg>
