<svg width="90" height="34" viewBox="0 0 90 34" fill="none" xmlns="http://www.w3.org/2000/svg">
<g clip-path="url(#clip0_2613_37377)">
<path d="M90 12.8712C90 5.76359 84.1239 0 76.8776 0C72.507 0 68.6351 2.09597 66.2502 5.31994C63.8652 2.09597 59.9934 0 55.6228 0C51.2522 0 47.3843 2.09467 44.9993 5.31474C42.6157 2.09467 38.7452 0 34.3772 0C30.0093 0 26.1334 2.09727 23.7498 5.32124C21.3662 2.09727 17.493 0 13.1224 0C5.87478 0 0 5.76359 0 12.8712C0 13.0078 0.00265287 13.1431 0.00663218 13.2784H0V34H5.00995V22.9893C7.24234 24.7132 10.0597 25.7423 13.1224 25.7423C17.4944 25.7423 21.3662 23.645 23.7498 20.4211C26.1321 23.645 30.0053 25.7423 34.3772 25.7423C37.444 25.7423 40.2666 24.7106 42.5003 22.9789V25.7423H47.5103V13.2797C47.5036 13.1444 47.4997 13.0078 47.4997 12.8712C47.4997 8.47105 51.1354 4.90361 55.6228 4.90361C60.1101 4.90361 63.7458 8.47105 63.7458 12.8712C63.7458 13.0078 63.7419 13.1444 63.7352 13.2797V25.7423H68.7452V22.9724C70.9816 24.708 73.8055 25.7423 76.8776 25.7423C79.9496 25.7423 82.7577 24.7132 84.99 22.9893V25.7423H90V13.2784H89.9934C89.9973 13.1431 90 13.0078 90 12.8712ZM13.1224 20.8387C8.7757 20.8387 5.22748 17.4924 5.00995 13.281V13.2784C5.00332 13.1444 4.99934 13.0078 4.99934 12.8712C4.99934 8.47105 8.6351 4.90361 13.1224 4.90361C17.6098 4.90361 21.2455 8.47105 21.2455 12.8712C21.2455 17.2713 17.6084 20.8387 13.1224 20.8387ZM34.3772 20.8387C29.8899 20.8387 26.2541 17.2726 26.2541 12.8712C26.2541 8.46975 29.8899 4.90361 34.3772 4.90361C38.8646 4.90361 42.5003 8.47105 42.5003 12.8712C42.5003 17.2713 38.8632 20.8387 34.3772 20.8387ZM84.99 13.2784V13.281C84.7725 17.4924 81.223 20.8387 76.8776 20.8387C72.5322 20.8387 68.7545 17.2726 68.7545 12.8712C68.7545 8.46975 72.3902 4.90361 76.8776 4.90361C81.3649 4.90361 85.0007 8.47105 85.0007 12.8712C85.0007 13.0078 84.9967 13.1444 84.99 13.2784Z" fill="white"/>
<path d="M78.1584 15.9392C79.8849 15.2377 80.7048 13.2962 79.9896 11.6028C79.2745 9.90928 77.2951 9.10509 75.5686 9.80655C73.842 10.508 73.0221 12.4495 73.7373 14.143C74.4524 15.8364 76.4318 16.6406 78.1584 15.9392Z" fill="#3AB54B"/>
</g>
<defs>
<clipPath id="clip0_2613_37377">
<rect width="90" height="34" fill="white"/>
</clipPath>
</defs>
</svg>
