<svg width="239" height="239" viewBox="0 0 239 239" fill="none" xmlns="http://www.w3.org/2000/svg">
<rect x="0.958984" y="0.959229" width="237.097" height="237.097" rx="16" fill="white"/>
<path d="M36.5918 212.141C36.5918 213.854 35.2032 215.243 33.4902 215.243C31.7773 215.243 30.3887 213.854 30.3887 212.141C30.3887 210.428 31.7773 209.04 33.4902 209.04C35.2032 209.04 36.5918 210.428 36.5918 212.141Z" fill="#3AB54B"/>
<path d="M48.2526 210.829C48.215 210.512 48.0625 210.265 47.7952 210.09C47.5279 209.914 47.1999 209.826 46.8115 209.826C46.5274 209.826 46.2789 209.872 46.0658 209.964C45.8549 210.056 45.6899 210.183 45.5708 210.343C45.4539 210.504 45.3954 210.687 45.3954 210.892C45.3954 211.063 45.4361 211.21 45.5176 211.333C45.6011 211.455 45.7076 211.556 45.8371 211.637C45.9666 211.717 46.1024 211.782 46.2444 211.835C46.3864 211.885 46.517 211.926 46.636 211.957L47.2877 212.132C47.4547 212.176 47.6406 212.237 47.8453 212.314C48.0521 212.391 48.2495 212.497 48.4374 212.63C48.6275 212.762 48.7841 212.931 48.9074 213.138C49.0306 213.345 49.0922 213.598 49.0922 213.899C49.0922 214.246 49.0014 214.559 48.8196 214.839C48.64 215.119 48.3769 215.341 48.0302 215.506C47.6855 215.671 47.2668 215.754 46.7739 215.754C46.3144 215.754 45.9165 215.68 45.5802 215.531C45.2461 215.383 44.9829 215.176 44.7907 214.911C44.6007 214.646 44.4931 214.338 44.4681 213.987H45.2701C45.291 214.229 45.3724 214.43 45.5144 214.588C45.6586 214.745 45.8403 214.862 46.0596 214.939C46.281 215.015 46.5191 215.052 46.7739 215.052C47.0704 215.052 47.3367 215.004 47.5728 214.908C47.8088 214.81 47.9957 214.674 48.1335 214.501C48.2714 214.325 48.3403 214.121 48.3403 213.887C48.3403 213.674 48.2808 213.5 48.1617 213.367C48.0427 213.233 47.886 213.124 47.6918 213.041C47.4976 212.957 47.2877 212.884 47.0621 212.822L46.2726 212.596C45.7713 212.452 45.3745 212.246 45.0821 211.979C44.7897 211.711 44.6435 211.362 44.6435 210.929C44.6435 210.57 44.7406 210.257 44.9349 209.989C45.1312 209.72 45.3944 209.511 45.7243 209.363C46.0564 209.212 46.4272 209.137 46.8365 209.137C47.2501 209.137 47.6177 209.211 47.9393 209.36C48.2609 209.506 48.5158 209.706 48.7037 209.961C48.8938 210.216 48.994 210.505 49.0045 210.829H48.2526ZM52.0865 215.741C51.6855 215.741 51.3314 215.64 51.0244 215.437C50.7174 215.233 50.4772 214.945 50.3039 214.573C50.1305 214.199 50.0438 213.757 50.0438 213.248C50.0438 212.742 50.1305 212.304 50.3039 211.932C50.4772 211.56 50.7184 211.273 51.0276 211.07C51.3367 210.868 51.6938 210.766 52.099 210.766C52.4123 210.766 52.6598 210.819 52.8415 210.923C53.0253 211.025 53.1652 211.142 53.2613 211.274C53.3595 211.403 53.4357 211.51 53.49 211.593H53.5527V210.829H54.292V215.641H53.5777V214.902H53.49C53.4357 214.989 53.3584 215.1 53.2582 215.234C53.1579 215.365 53.0148 215.483 52.829 215.588C52.6431 215.69 52.3956 215.741 52.0865 215.741ZM52.1867 215.077C52.4833 215.077 52.7339 215 52.9386 214.845C53.1433 214.689 53.2989 214.473 53.4054 214.197C53.5119 213.919 53.5652 213.598 53.5652 213.235C53.5652 212.876 53.513 212.561 53.4085 212.292C53.3041 212.021 53.1496 211.81 52.9449 211.659C52.7402 211.507 52.4875 211.431 52.1867 211.431C51.8734 211.431 51.6124 211.511 51.4035 211.672C51.1967 211.83 51.0411 212.047 50.9367 212.32C50.8344 212.592 50.7832 212.897 50.7832 213.235C50.7832 213.578 50.8354 213.889 50.9398 214.169C51.0463 214.446 51.203 214.668 51.4098 214.833C51.6186 214.996 51.8776 215.077 52.1867 215.077ZM56.4882 209.225V215.641H55.7488V209.225H56.4882ZM59.86 215.741C59.3963 215.741 58.9963 215.639 58.6601 215.434C58.3259 215.228 58.0679 214.939 57.8862 214.57C57.7066 214.198 57.6168 213.766 57.6168 213.273C57.6168 212.78 57.7066 212.345 57.8862 211.969C58.0679 211.591 58.3207 211.297 58.6444 211.086C58.9702 210.873 59.3503 210.766 59.7848 210.766C60.0354 210.766 60.2829 210.808 60.5273 210.892C60.7716 210.975 60.9941 211.111 61.1946 211.299C61.3951 211.485 61.5549 211.731 61.6739 212.038C61.793 212.345 61.8525 212.723 61.8525 213.172V213.486H58.1431V212.847H61.1006C61.1006 212.575 61.0463 212.333 60.9377 212.12C60.8312 211.907 60.6787 211.739 60.4803 211.615C60.2839 211.492 60.0521 211.431 59.7848 211.431C59.4903 211.431 59.2355 211.504 59.0203 211.65C58.8073 211.794 58.6434 211.982 58.5285 212.214C58.4136 212.446 58.3562 212.694 58.3562 212.959V213.385C58.3562 213.749 58.4188 214.057 58.5441 214.31C58.6715 214.56 58.848 214.751 59.0736 214.883C59.2992 215.012 59.5613 215.077 59.86 215.077C60.0542 215.077 60.2296 215.05 60.3863 214.996C60.545 214.939 60.6818 214.856 60.7967 214.745C60.9116 214.632 61.0003 214.492 61.063 214.325L61.7773 214.526C61.7021 214.768 61.5757 214.981 61.3982 215.165C61.2207 215.347 61.0014 215.489 60.7403 215.591C60.4792 215.691 60.1858 215.741 59.86 215.741Z" fill="#7F7F7F"/>
<path d="M95.5918 212.141C95.5918 213.854 94.2032 215.243 92.4902 215.243C90.7773 215.243 89.3887 213.854 89.3887 212.141C89.3887 210.428 90.7773 209.04 92.4902 209.04C94.2032 209.04 95.5918 210.428 95.5918 212.141Z" fill="#3AB54B" fill-opacity="0.4"/>
<path d="M105.724 215.641H103.744V209.225H105.811C106.434 209.225 106.966 209.353 107.409 209.61C107.852 209.865 108.191 210.232 108.427 210.71C108.663 211.186 108.781 211.756 108.781 212.421C108.781 213.089 108.662 213.664 108.424 214.147C108.186 214.627 107.839 214.997 107.384 215.256C106.929 215.513 106.375 215.641 105.724 215.641ZM104.521 214.952H105.674C106.204 214.952 106.644 214.85 106.993 214.645C107.341 214.44 107.601 214.149 107.773 213.771C107.944 213.393 108.03 212.943 108.03 212.421C108.03 211.903 107.945 211.457 107.776 211.083C107.607 210.707 107.354 210.419 107.018 210.218C106.681 210.015 106.263 209.914 105.761 209.914H104.521V214.952ZM109.984 215.641V210.829H110.724V215.641H109.984ZM110.36 210.027C110.216 210.027 110.092 209.978 109.988 209.88C109.885 209.782 109.834 209.664 109.834 209.526C109.834 209.388 109.885 209.27 109.988 209.172C110.092 209.074 110.216 209.024 110.36 209.024C110.505 209.024 110.628 209.074 110.73 209.172C110.835 209.27 110.887 209.388 110.887 209.526C110.887 209.664 110.835 209.782 110.73 209.88C110.628 209.978 110.505 210.027 110.36 210.027ZM115.487 211.907L114.822 212.095C114.781 211.984 114.719 211.876 114.638 211.772C114.558 211.665 114.45 211.578 114.312 211.509C114.174 211.44 113.997 211.405 113.782 211.405C113.488 211.405 113.242 211.473 113.046 211.609C112.852 211.743 112.755 211.913 112.755 212.12C112.755 212.304 112.822 212.449 112.955 212.555C113.089 212.662 113.298 212.75 113.582 212.822L114.296 212.997C114.726 213.101 115.047 213.261 115.258 213.476C115.469 213.689 115.574 213.964 115.574 214.3C115.574 214.576 115.495 214.822 115.336 215.04C115.18 215.257 114.96 215.428 114.678 215.553C114.396 215.679 114.068 215.741 113.695 215.741C113.204 215.741 112.798 215.635 112.476 215.422C112.154 215.209 111.951 214.898 111.865 214.488L112.567 214.313C112.634 214.572 112.76 214.766 112.946 214.895C113.134 215.025 113.379 215.09 113.682 215.09C114.027 215.09 114.3 215.017 114.503 214.87C114.708 214.722 114.81 214.545 114.81 214.338C114.81 214.171 114.751 214.031 114.634 213.918C114.518 213.803 114.338 213.718 114.096 213.661L113.294 213.473C112.853 213.369 112.529 213.207 112.322 212.988C112.118 212.766 112.015 212.489 112.015 212.157C112.015 211.886 112.092 211.646 112.244 211.437C112.399 211.228 112.609 211.064 112.874 210.945C113.141 210.826 113.444 210.766 113.782 210.766C114.259 210.766 114.632 210.871 114.904 211.08C115.178 211.288 115.372 211.564 115.487 211.907ZM118.78 210.829V211.456H116.286V210.829H118.78ZM117.013 209.676H117.752V214.263C117.752 214.472 117.783 214.628 117.843 214.733C117.906 214.835 117.985 214.904 118.081 214.939C118.18 214.973 118.283 214.989 118.392 214.989C118.473 214.989 118.54 214.985 118.592 214.977C118.644 214.966 118.686 214.958 118.717 214.952L118.868 215.616C118.818 215.635 118.748 215.654 118.658 215.672C118.568 215.693 118.454 215.704 118.316 215.704C118.108 215.704 117.903 215.659 117.702 215.569C117.504 215.479 117.339 215.342 117.207 215.159C117.078 214.975 117.013 214.743 117.013 214.463V209.676ZM119.892 215.641V210.829H120.607V211.556H120.657C120.744 211.318 120.903 211.125 121.133 210.976C121.363 210.828 121.622 210.754 121.91 210.754C121.964 210.754 122.032 210.755 122.113 210.757C122.195 210.759 122.257 210.762 122.298 210.766V211.518C122.273 211.512 122.216 211.503 122.126 211.49C122.038 211.475 121.945 211.468 121.847 211.468C121.613 211.468 121.404 211.517 121.221 211.615C121.039 211.711 120.895 211.845 120.788 212.016C120.684 212.186 120.632 212.379 120.632 212.596V215.641H119.892ZM123.175 215.641V210.829H123.914V215.641H123.175ZM123.551 210.027C123.407 210.027 123.282 209.978 123.178 209.88C123.076 209.782 123.024 209.664 123.024 209.526C123.024 209.388 123.076 209.27 123.178 209.172C123.282 209.074 123.407 209.024 123.551 209.024C123.695 209.024 123.818 209.074 123.92 209.172C124.025 209.27 124.077 209.388 124.077 209.526C124.077 209.664 124.025 209.782 123.92 209.88C123.818 209.978 123.695 210.027 123.551 210.027ZM125.369 215.641V209.225H126.108V211.593H126.171C126.225 211.51 126.3 211.403 126.396 211.274C126.494 211.142 126.634 211.025 126.816 210.923C127 210.819 127.248 210.766 127.562 210.766C127.967 210.766 128.324 210.868 128.633 211.07C128.942 211.273 129.183 211.56 129.357 211.932C129.53 212.304 129.617 212.742 129.617 213.248C129.617 213.757 129.53 214.199 129.357 214.573C129.183 214.945 128.943 215.233 128.636 215.437C128.329 215.64 127.975 215.741 127.574 215.741C127.265 215.741 127.017 215.69 126.832 215.588C126.646 215.483 126.503 215.365 126.402 215.234C126.302 215.1 126.225 214.989 126.171 214.902H126.083V215.641H125.369ZM126.095 213.235C126.095 213.598 126.149 213.919 126.255 214.197C126.362 214.473 126.517 214.689 126.722 214.845C126.927 215 127.177 215.077 127.474 215.077C127.783 215.077 128.041 214.996 128.248 214.833C128.457 214.668 128.613 214.446 128.718 214.169C128.824 213.889 128.877 213.578 128.877 213.235C128.877 212.897 128.825 212.592 128.721 212.32C128.618 212.047 128.463 211.83 128.254 211.672C128.047 211.511 127.787 211.431 127.474 211.431C127.173 211.431 126.92 211.507 126.716 211.659C126.511 211.81 126.356 212.021 126.252 212.292C126.148 212.561 126.095 212.876 126.095 213.235ZM133.78 213.674V210.829H134.52V215.641H133.78V214.827H133.73C133.617 215.071 133.442 215.279 133.204 215.45C132.966 215.619 132.665 215.704 132.302 215.704C132.001 215.704 131.734 215.638 131.5 215.506C131.266 215.373 131.082 215.172 130.948 214.905C130.815 214.635 130.748 214.296 130.748 213.887V210.829H131.487V213.837C131.487 214.187 131.585 214.467 131.782 214.676C131.98 214.885 132.233 214.989 132.54 214.989C132.724 214.989 132.91 214.942 133.101 214.848C133.293 214.755 133.453 214.61 133.583 214.416C133.715 214.222 133.78 213.974 133.78 213.674ZM137.967 210.829V211.456H135.473V210.829H137.967ZM136.2 209.676H136.939V214.263C136.939 214.472 136.969 214.628 137.03 214.733C137.093 214.835 137.172 214.904 137.268 214.939C137.366 214.973 137.47 214.989 137.578 214.989C137.66 214.989 137.726 214.985 137.779 214.977C137.831 214.966 137.873 214.958 137.904 214.952L138.054 215.616C138.004 215.635 137.934 215.654 137.844 215.672C137.755 215.693 137.641 215.704 137.503 215.704C137.294 215.704 137.089 215.659 136.889 215.569C136.691 215.479 136.526 215.342 136.394 215.159C136.264 214.975 136.2 214.743 136.2 214.463V209.676ZM141.045 215.741C140.581 215.741 140.181 215.639 139.845 215.434C139.511 215.228 139.253 214.939 139.071 214.57C138.891 214.198 138.802 213.766 138.802 213.273C138.802 212.78 138.891 212.345 139.071 211.969C139.253 211.591 139.505 211.297 139.829 211.086C140.155 210.873 140.535 210.766 140.97 210.766C141.22 210.766 141.468 210.808 141.712 210.892C141.956 210.975 142.179 211.111 142.379 211.299C142.58 211.485 142.74 211.731 142.859 212.038C142.978 212.345 143.037 212.723 143.037 213.172V213.486H139.328V212.847H142.285C142.285 212.575 142.231 212.333 142.122 212.12C142.016 211.907 141.863 211.739 141.665 211.615C141.469 211.492 141.237 211.431 140.97 211.431C140.675 211.431 140.42 211.504 140.205 211.65C139.992 211.794 139.828 211.982 139.713 212.214C139.598 212.446 139.541 212.694 139.541 212.959V213.385C139.541 213.749 139.604 214.057 139.729 214.31C139.856 214.56 140.033 214.751 140.258 214.883C140.484 215.012 140.746 215.077 141.045 215.077C141.239 215.077 141.414 215.05 141.571 214.996C141.73 214.939 141.867 214.856 141.981 214.745C142.096 214.632 142.185 214.492 142.248 214.325L142.962 214.526C142.887 214.768 142.761 214.981 142.583 215.165C142.405 215.347 142.186 215.489 141.925 215.591C141.664 215.691 141.371 215.741 141.045 215.741Z" fill="#7F7F7F"/>
<path d="M176.645 212.141C176.645 213.854 175.256 215.243 173.543 215.243C171.83 215.243 170.441 213.854 170.441 212.141C170.441 210.428 171.83 209.04 173.543 209.04C175.256 209.04 176.645 210.428 176.645 212.141Z" fill="#3AB54B" fill-opacity="0.2"/>
<path d="M184.796 215.641V209.225H186.964C187.466 209.225 187.877 209.311 188.199 209.482C188.52 209.651 188.759 209.884 188.913 210.18C189.068 210.477 189.145 210.814 189.145 211.192C189.145 211.57 189.068 211.906 188.913 212.198C188.759 212.49 188.521 212.72 188.202 212.887C187.882 213.052 187.474 213.135 186.977 213.135H185.223V212.433H186.952C187.294 212.433 187.57 212.383 187.779 212.283C187.99 212.182 188.142 212.04 188.236 211.857C188.332 211.671 188.381 211.449 188.381 211.192C188.381 210.936 188.332 210.711 188.236 210.519C188.14 210.327 187.987 210.178 187.776 210.074C187.565 209.967 187.286 209.914 186.939 209.914H185.573V215.641H184.796ZM187.817 212.759L189.396 215.641H188.493L186.939 212.759H187.817ZM192.305 215.741C191.842 215.741 191.442 215.639 191.105 215.434C190.771 215.228 190.513 214.939 190.332 214.57C190.152 214.198 190.062 213.766 190.062 213.273C190.062 212.78 190.152 212.345 190.332 211.969C190.513 211.591 190.766 211.297 191.09 211.086C191.416 210.873 191.796 210.766 192.23 210.766C192.481 210.766 192.728 210.808 192.973 210.892C193.217 210.975 193.439 211.111 193.64 211.299C193.84 211.485 194 211.731 194.119 212.038C194.238 212.345 194.298 212.723 194.298 213.172V213.486H190.588V212.847H193.546C193.546 212.575 193.492 212.333 193.383 212.12C193.276 211.907 193.124 211.739 192.926 211.615C192.729 211.492 192.497 211.431 192.23 211.431C191.936 211.431 191.681 211.504 191.466 211.65C191.253 211.794 191.089 211.982 190.974 212.214C190.859 212.446 190.801 212.694 190.801 212.959V213.385C190.801 213.749 190.864 214.057 190.989 214.31C191.117 214.56 191.293 214.751 191.519 214.883C191.744 215.012 192.007 215.077 192.305 215.077C192.499 215.077 192.675 215.05 192.832 214.996C192.99 214.939 193.127 214.856 193.242 214.745C193.357 214.632 193.446 214.492 193.508 214.325L194.223 214.526C194.147 214.768 194.021 214.981 193.843 215.165C193.666 215.347 193.447 215.489 193.186 215.591C192.925 215.691 192.631 215.741 192.305 215.741ZM197.515 210.829V211.456H195.021V210.829H197.515ZM195.748 209.676H196.488V214.263C196.488 214.472 196.518 214.628 196.579 214.733C196.641 214.835 196.721 214.904 196.817 214.939C196.915 214.973 197.018 214.989 197.127 214.989C197.208 214.989 197.275 214.985 197.327 214.977C197.379 214.966 197.421 214.958 197.453 214.952L197.603 215.616C197.553 215.635 197.483 215.654 197.393 215.672C197.303 215.693 197.189 215.704 197.052 215.704C196.843 215.704 196.638 215.659 196.438 215.569C196.239 215.479 196.074 215.342 195.943 215.159C195.813 214.975 195.748 214.743 195.748 214.463V209.676ZM201.66 213.674V210.829H202.399V215.641H201.66V214.827H201.61C201.497 215.071 201.322 215.279 201.084 215.45C200.846 215.619 200.545 215.704 200.181 215.704C199.881 215.704 199.613 215.638 199.379 215.506C199.145 215.373 198.962 215.172 198.828 214.905C198.694 214.635 198.627 214.296 198.627 213.887V210.829H199.367V213.837C199.367 214.187 199.465 214.467 199.661 214.676C199.86 214.885 200.112 214.989 200.419 214.989C200.603 214.989 200.79 214.942 200.98 214.848C201.172 214.755 201.333 214.61 201.463 214.416C201.594 214.222 201.66 213.974 201.66 213.674ZM203.754 215.641V210.829H204.468V211.556H204.518C204.606 211.318 204.764 211.125 204.994 210.976C205.224 210.828 205.483 210.754 205.771 210.754C205.826 210.754 205.893 210.755 205.975 210.757C206.056 210.759 206.118 210.762 206.16 210.766V211.518C206.135 211.512 206.077 211.503 205.987 211.49C205.9 211.475 205.807 211.468 205.709 211.468C205.475 211.468 205.266 211.517 205.082 211.615C204.9 211.711 204.756 211.845 204.65 212.016C204.545 212.186 204.493 212.379 204.493 212.596V215.641H203.754ZM207.775 212.746V215.641H207.036V210.829H207.75V211.581H207.813C207.926 211.337 208.097 211.14 208.327 210.992C208.557 210.842 208.853 210.766 209.217 210.766C209.542 210.766 209.828 210.833 210.072 210.967C210.316 211.098 210.506 211.299 210.642 211.568C210.778 211.836 210.846 212.174 210.846 212.583V215.641H210.106V212.634C210.106 212.256 210.008 211.961 209.812 211.75C209.616 211.537 209.346 211.431 209.004 211.431C208.768 211.431 208.557 211.482 208.371 211.584C208.187 211.686 208.042 211.836 207.935 212.032C207.829 212.228 207.775 212.466 207.775 212.746Z" fill="#7F7F7F"/>
<path d="M107.554 118.017C106.709 118.017 105.958 117.88 105.3 117.606C104.646 117.328 104.132 116.95 103.76 116.471C103.387 115.992 103.2 115.449 103.2 114.842C103.2 114.375 103.306 113.945 103.518 113.554C103.734 113.159 104.026 112.832 104.396 112.573C104.765 112.309 105.178 112.141 105.635 112.068V111.991C105.035 111.871 104.549 111.58 104.176 111.12C103.804 110.656 103.617 110.116 103.617 109.502C103.617 108.921 103.787 108.404 104.127 107.951C104.467 107.494 104.933 107.136 105.525 106.876C106.121 106.613 106.797 106.481 107.554 106.481C108.31 106.481 108.985 106.613 109.577 106.876C110.172 107.139 110.64 107.499 110.98 107.956C111.32 108.41 111.492 108.925 111.496 109.502C111.492 110.12 111.302 110.659 110.925 111.12C110.549 111.58 110.066 111.871 109.478 111.991V112.068C109.928 112.141 110.335 112.309 110.701 112.573C111.07 112.832 111.362 113.159 111.578 113.554C111.797 113.945 111.909 114.375 111.912 114.842C111.909 115.449 111.72 115.992 111.348 116.471C110.975 116.95 110.459 117.328 109.801 117.606C109.147 117.88 108.398 118.017 107.554 118.017ZM107.554 116.273C107.93 116.273 108.259 116.206 108.54 116.07C108.822 115.932 109.041 115.742 109.198 115.5C109.359 115.255 109.44 114.974 109.44 114.656C109.44 114.331 109.357 114.044 109.193 113.795C109.028 113.543 108.805 113.346 108.524 113.203C108.243 113.057 107.919 112.984 107.554 112.984C107.192 112.984 106.868 113.057 106.583 113.203C106.298 113.346 106.073 113.543 105.909 113.795C105.748 114.044 105.668 114.331 105.668 114.656C105.668 114.974 105.746 115.255 105.903 115.5C106.061 115.742 106.282 115.932 106.567 116.07C106.852 116.206 107.181 116.273 107.554 116.273ZM107.554 111.257C107.868 111.257 108.148 111.193 108.392 111.065C108.637 110.937 108.829 110.76 108.968 110.533C109.107 110.306 109.176 110.045 109.176 109.749C109.176 109.457 109.107 109.201 108.968 108.982C108.829 108.759 108.639 108.585 108.398 108.461C108.157 108.333 107.875 108.269 107.554 108.269C107.236 108.269 106.954 108.333 106.709 108.461C106.464 108.585 106.273 108.759 106.134 108.982C105.998 109.201 105.931 109.457 105.931 109.749C105.931 110.045 106 110.306 106.139 110.533C106.278 110.76 106.47 110.937 106.715 111.065C106.96 111.193 107.239 111.257 107.554 111.257ZM117.975 118.11C117.032 118.106 116.22 117.874 115.54 117.414C114.864 116.953 114.343 116.286 113.978 115.413C113.616 114.539 113.437 113.488 113.44 112.26C113.44 111.036 113.621 109.992 113.983 109.13C114.349 108.267 114.87 107.611 115.546 107.161C116.226 106.708 117.035 106.481 117.975 106.481C118.914 106.481 119.722 106.708 120.398 107.161C121.078 107.615 121.6 108.272 121.966 109.135C122.331 109.994 122.512 111.036 122.509 112.26C122.509 113.492 122.326 114.545 121.96 115.418C121.599 116.292 121.08 116.959 120.403 117.419C119.727 117.88 118.918 118.11 117.975 118.11ZM117.975 116.142C118.618 116.142 119.131 115.818 119.515 115.171C119.899 114.524 120.089 113.554 120.085 112.26C120.085 111.408 119.998 110.699 119.822 110.133C119.65 109.566 119.406 109.141 119.088 108.855C118.773 108.57 118.402 108.428 117.975 108.428C117.335 108.428 116.823 108.748 116.439 109.387C116.056 110.027 115.862 110.984 115.858 112.26C115.858 113.123 115.944 113.843 116.116 114.42C116.291 114.994 116.538 115.425 116.856 115.714C117.174 115.999 117.547 116.142 117.975 116.142ZM130.347 115.758V115.166C130.347 114.716 130.442 114.303 130.632 113.927C130.826 113.547 131.106 113.243 131.471 113.017C131.84 112.786 132.29 112.671 132.82 112.671C133.357 112.671 133.809 112.785 134.174 113.011C134.543 113.238 134.821 113.541 135.008 113.921C135.198 114.298 135.293 114.713 135.293 115.166V115.758C135.293 116.208 135.198 116.622 135.008 117.003C134.817 117.379 134.538 117.681 134.169 117.907C133.8 118.137 133.35 118.253 132.82 118.253C132.283 118.253 131.831 118.137 131.466 117.907C131.1 117.681 130.822 117.379 130.632 117.003C130.442 116.622 130.347 116.208 130.347 115.758ZM131.943 115.166V115.758C131.943 116.017 132.005 116.262 132.129 116.493C132.257 116.723 132.487 116.838 132.82 116.838C133.153 116.838 133.379 116.725 133.5 116.498C133.624 116.272 133.686 116.025 133.686 115.758V115.166C133.686 114.899 133.628 114.651 133.511 114.42C133.394 114.19 133.164 114.075 132.82 114.075C132.491 114.075 132.263 114.19 132.135 114.42C132.007 114.651 131.943 114.899 131.943 115.166ZM124.585 109.332V108.74C124.585 108.287 124.682 107.872 124.876 107.496C125.069 107.116 125.349 106.812 125.715 106.586C126.084 106.359 126.53 106.246 127.052 106.246C127.593 106.246 128.046 106.359 128.412 106.586C128.777 106.812 129.055 107.116 129.245 107.496C129.435 107.872 129.53 108.287 129.53 108.74V109.332C129.53 109.786 129.434 110.2 129.24 110.577C129.05 110.953 128.77 111.255 128.401 111.482C128.036 111.705 127.586 111.816 127.052 111.816C126.519 111.816 126.067 111.703 125.698 111.476C125.333 111.246 125.055 110.944 124.865 110.571C124.678 110.195 124.585 109.782 124.585 109.332ZM126.192 108.74V109.332C126.192 109.599 126.254 109.846 126.378 110.073C126.506 110.299 126.731 110.412 127.052 110.412C127.389 110.412 127.617 110.299 127.738 110.073C127.862 109.846 127.924 109.599 127.924 109.332V108.74C127.924 108.473 127.866 108.225 127.749 107.995C127.632 107.764 127.4 107.649 127.052 107.649C126.727 107.649 126.502 107.766 126.378 108C126.254 108.234 126.192 108.481 126.192 108.74ZM125.309 117.863L133.028 106.635H134.465L126.745 117.863H125.309Z" fill="#232323"/>
<path d="M92.79 125.034V124.344H97.6022V125.034H95.5846V130.76H94.8076V125.034H92.79ZM98.2013 130.76V125.948H98.9156V126.675H98.9657C99.0535 126.437 99.2122 126.244 99.4419 126.096C99.6717 125.947 99.9307 125.873 100.219 125.873C100.273 125.873 100.341 125.874 100.423 125.876C100.504 125.878 100.566 125.882 100.607 125.886V126.638C100.582 126.631 100.525 126.622 100.435 126.609C100.347 126.595 100.254 126.587 100.156 126.587C99.9223 126.587 99.7135 126.637 99.5297 126.735C99.348 126.831 99.2038 126.964 99.0973 127.136C98.9929 127.305 98.9407 127.498 98.9407 127.715V130.76H98.2013ZM103.154 130.861C102.753 130.861 102.399 130.759 102.092 130.557C101.785 130.352 101.545 130.064 101.372 129.692C101.198 129.318 101.112 128.877 101.112 128.367C101.112 127.862 101.198 127.423 101.372 127.051C101.545 126.679 101.786 126.392 102.096 126.19C102.405 125.987 102.762 125.886 103.167 125.886C103.48 125.886 103.728 125.938 103.909 126.042C104.093 126.145 104.233 126.262 104.329 126.393C104.427 126.523 104.504 126.629 104.558 126.713H104.621V125.948H105.36V130.76H104.646V130.021H104.558C104.504 130.109 104.426 130.22 104.326 130.353C104.226 130.485 104.083 130.603 103.897 130.707C103.711 130.81 103.464 130.861 103.154 130.861ZM103.255 130.197C103.551 130.197 103.802 130.119 104.007 129.965C104.211 129.808 104.367 129.592 104.473 129.316C104.58 129.038 104.633 128.718 104.633 128.354C104.633 127.995 104.581 127.681 104.477 127.411C104.372 127.14 104.218 126.929 104.013 126.779C103.808 126.626 103.555 126.55 103.255 126.55C102.941 126.55 102.68 126.63 102.471 126.791C102.265 126.95 102.109 127.166 102.005 127.44C101.902 127.711 101.851 128.016 101.851 128.354C101.851 128.697 101.903 129.008 102.008 129.288C102.114 129.566 102.271 129.787 102.478 129.952C102.687 130.115 102.946 130.197 103.255 130.197ZM107.556 127.866V130.76H106.817V125.948H107.531V126.7H107.594C107.707 126.456 107.878 126.26 108.108 126.111C108.337 125.961 108.634 125.886 108.997 125.886C109.323 125.886 109.608 125.953 109.853 126.086C110.097 126.218 110.287 126.418 110.423 126.688C110.558 126.955 110.626 127.293 110.626 127.703V130.76H109.887V127.753C109.887 127.375 109.789 127.08 109.593 126.869C109.396 126.656 109.127 126.55 108.784 126.55C108.548 126.55 108.337 126.601 108.151 126.703C107.968 126.806 107.822 126.955 107.716 127.151C107.609 127.348 107.556 127.586 107.556 127.866ZM115.386 127.026L114.722 127.214C114.68 127.103 114.618 126.996 114.537 126.891C114.458 126.785 114.349 126.697 114.211 126.628C114.073 126.559 113.897 126.525 113.682 126.525C113.387 126.525 113.142 126.593 112.945 126.728C112.751 126.862 112.654 127.032 112.654 127.239C112.654 127.423 112.721 127.568 112.855 127.675C112.988 127.781 113.197 127.87 113.481 127.941L114.196 128.116C114.626 128.221 114.946 128.381 115.157 128.596C115.368 128.809 115.474 129.083 115.474 129.42C115.474 129.695 115.394 129.942 115.236 130.159C115.079 130.376 114.86 130.547 114.578 130.673C114.296 130.798 113.968 130.861 113.594 130.861C113.103 130.861 112.697 130.754 112.375 130.541C112.054 130.328 111.85 130.017 111.764 129.608L112.466 129.432C112.533 129.691 112.659 129.885 112.845 130.015C113.033 130.144 113.279 130.209 113.581 130.209C113.926 130.209 114.2 130.136 114.402 129.99C114.607 129.842 114.709 129.664 114.709 129.457C114.709 129.29 114.651 129.15 114.534 129.037C114.417 128.923 114.237 128.837 113.995 128.781L113.193 128.593C112.752 128.488 112.429 128.326 112.222 128.107C112.017 127.886 111.915 127.609 111.915 127.277C111.915 127.005 111.991 126.765 112.143 126.556C112.298 126.347 112.508 126.183 112.773 126.064C113.041 125.945 113.343 125.886 113.682 125.886C114.158 125.886 114.532 125.99 114.803 126.199C115.077 126.408 115.271 126.684 115.386 127.026ZM118.404 130.861C118.003 130.861 117.649 130.759 117.342 130.557C117.035 130.352 116.795 130.064 116.621 129.692C116.448 129.318 116.361 128.877 116.361 128.367C116.361 127.862 116.448 127.423 116.621 127.051C116.795 126.679 117.036 126.392 117.345 126.19C117.654 125.987 118.011 125.886 118.416 125.886C118.73 125.886 118.977 125.938 119.159 126.042C119.343 126.145 119.483 126.262 119.579 126.393C119.677 126.523 119.753 126.629 119.807 126.713H119.87V125.948H120.609V130.76H119.895V130.021H119.807C119.753 130.109 119.676 130.22 119.575 130.353C119.475 130.485 119.332 130.603 119.146 130.707C118.96 130.81 118.713 130.861 118.404 130.861ZM118.504 130.197C118.801 130.197 119.051 130.119 119.256 129.965C119.461 129.808 119.616 129.592 119.723 129.316C119.829 129.038 119.882 128.718 119.882 128.354C119.882 127.995 119.83 127.681 119.726 127.411C119.621 127.14 119.467 126.929 119.262 126.779C119.058 126.626 118.805 126.55 118.504 126.55C118.191 126.55 117.93 126.63 117.721 126.791C117.514 126.95 117.358 127.166 117.254 127.44C117.152 127.711 117.1 128.016 117.1 128.354C117.1 128.697 117.153 129.008 117.257 129.288C117.364 129.566 117.52 129.787 117.727 129.952C117.936 130.115 118.195 130.197 118.504 130.197ZM124.021 130.861C123.57 130.861 123.181 130.754 122.856 130.541C122.53 130.328 122.279 130.035 122.104 129.661C121.928 129.287 121.841 128.86 121.841 128.38C121.841 127.891 121.93 127.459 122.11 127.086C122.292 126.71 122.544 126.416 122.868 126.205C123.194 125.992 123.574 125.886 124.009 125.886C124.347 125.886 124.652 125.948 124.923 126.074C125.195 126.199 125.417 126.374 125.591 126.6C125.764 126.826 125.872 127.089 125.913 127.39H125.174C125.118 127.17 124.992 126.976 124.798 126.807C124.606 126.636 124.347 126.55 124.021 126.55C123.733 126.55 123.48 126.625 123.263 126.775C123.048 126.924 122.88 127.134 122.758 127.405C122.639 127.675 122.58 127.991 122.58 128.354C122.58 128.726 122.638 129.05 122.755 129.326C122.874 129.601 123.041 129.815 123.257 129.968C123.474 130.12 123.729 130.197 124.021 130.197C124.213 130.197 124.388 130.163 124.544 130.096C124.701 130.029 124.834 129.933 124.942 129.808C125.051 129.683 125.128 129.532 125.174 129.357H125.913C125.872 129.641 125.768 129.897 125.603 130.125C125.44 130.35 125.224 130.53 124.955 130.663C124.687 130.795 124.376 130.861 124.021 130.861ZM129.087 125.948V126.575H126.593V125.948H129.087ZM127.32 124.795H128.059V129.382C128.059 129.591 128.09 129.748 128.15 129.852C128.213 129.954 128.292 130.023 128.388 130.059C128.486 130.092 128.59 130.109 128.698 130.109C128.78 130.109 128.847 130.105 128.899 130.096C128.951 130.086 128.993 130.078 129.024 130.071L129.175 130.735C129.125 130.754 129.055 130.773 128.965 130.792C128.875 130.813 128.761 130.823 128.623 130.823C128.414 130.823 128.21 130.778 128.009 130.688C127.811 130.599 127.646 130.462 127.514 130.278C127.385 130.094 127.32 129.862 127.32 129.583V124.795ZM130.199 130.76V125.948H130.938V130.76H130.199ZM130.575 125.146C130.431 125.146 130.307 125.097 130.202 124.999C130.1 124.901 130.049 124.783 130.049 124.645C130.049 124.507 130.1 124.389 130.202 124.291C130.307 124.193 130.431 124.144 130.575 124.144C130.719 124.144 130.842 124.193 130.945 124.291C131.049 124.389 131.101 124.507 131.101 124.645C131.101 124.783 131.049 124.901 130.945 124.999C130.842 125.097 130.719 125.146 130.575 125.146ZM134.248 130.861C133.813 130.861 133.432 130.757 133.104 130.551C132.778 130.344 132.523 130.055 132.34 129.683C132.158 129.311 132.067 128.877 132.067 128.38C132.067 127.878 132.158 127.441 132.34 127.067C132.523 126.693 132.778 126.403 133.104 126.196C133.432 125.989 133.813 125.886 134.248 125.886C134.682 125.886 135.062 125.989 135.388 126.196C135.716 126.403 135.971 126.693 136.152 127.067C136.336 127.441 136.428 127.878 136.428 128.38C136.428 128.877 136.336 129.311 136.152 129.683C135.971 130.055 135.716 130.344 135.388 130.551C135.062 130.757 134.682 130.861 134.248 130.861ZM134.248 130.197C134.578 130.197 134.849 130.112 135.062 129.943C135.275 129.774 135.433 129.551 135.535 129.276C135.638 129 135.689 128.701 135.689 128.38C135.689 128.058 135.638 127.758 135.535 127.48C135.433 127.203 135.275 126.978 135.062 126.807C134.849 126.636 134.578 126.55 134.248 126.55C133.918 126.55 133.646 126.636 133.433 126.807C133.22 126.978 133.062 127.203 132.96 127.48C132.858 127.758 132.806 128.058 132.806 128.38C132.806 128.701 132.858 129 132.96 129.276C133.062 129.551 133.22 129.774 133.433 129.943C133.646 130.112 133.918 130.197 134.248 130.197ZM138.296 127.866V130.76H137.557V125.948H138.271V126.7H138.334C138.446 126.456 138.618 126.26 138.847 126.111C139.077 125.961 139.374 125.886 139.737 125.886C140.063 125.886 140.348 125.953 140.592 126.086C140.837 126.218 141.027 126.418 141.163 126.688C141.298 126.955 141.366 127.293 141.366 127.703V130.76H140.627V127.753C140.627 127.375 140.529 127.08 140.332 126.869C140.136 126.656 139.867 126.55 139.524 126.55C139.288 126.55 139.077 126.601 138.891 126.703C138.708 126.806 138.562 126.955 138.456 127.151C138.349 127.348 138.296 127.586 138.296 127.866ZM146.126 127.026L145.462 127.214C145.42 127.103 145.358 126.996 145.277 126.891C145.198 126.785 145.089 126.697 144.951 126.628C144.813 126.559 144.637 126.525 144.422 126.525C144.127 126.525 143.882 126.593 143.685 126.728C143.491 126.862 143.394 127.032 143.394 127.239C143.394 127.423 143.461 127.568 143.595 127.675C143.728 127.781 143.937 127.87 144.221 127.941L144.935 128.116C145.366 128.221 145.686 128.381 145.897 128.596C146.108 128.809 146.214 129.083 146.214 129.42C146.214 129.695 146.134 129.942 145.976 130.159C145.819 130.376 145.6 130.547 145.318 130.673C145.036 130.798 144.708 130.861 144.334 130.861C143.843 130.861 143.437 130.754 143.115 130.541C142.794 130.328 142.59 130.017 142.504 129.608L143.206 129.432C143.273 129.691 143.399 129.885 143.585 130.015C143.773 130.144 144.019 130.209 144.321 130.209C144.666 130.209 144.94 130.136 145.142 129.99C145.347 129.842 145.449 129.664 145.449 129.457C145.449 129.29 145.391 129.15 145.274 129.037C145.157 128.923 144.977 128.837 144.735 128.781L143.933 128.593C143.492 128.488 143.168 128.326 142.962 128.107C142.757 127.886 142.655 127.609 142.655 127.277C142.655 127.005 142.731 126.765 142.883 126.556C143.038 126.347 143.248 126.183 143.513 126.064C143.78 125.945 144.083 125.886 144.422 125.886C144.898 125.886 145.272 125.99 145.543 126.199C145.817 126.408 146.011 126.684 146.126 127.026Z" fill="#7F7F7F"/>
<path d="M174.611 117.854C174.611 148.287 149.94 172.958 119.507 172.958C89.074 172.958 64.403 148.287 64.403 117.854C64.403 87.4206 89.074 62.7497 119.507 62.7497C149.94 62.7497 174.611 87.4206 174.611 117.854Z" stroke="#E9E9E9" stroke-width="8.27083"/>
<path d="M94.9301 164.342C93.2124 167.592 89.1597 168.863 86.1236 166.792C81.1578 163.404 76.7256 159.273 72.9878 154.533C67.8732 148.046 64.1717 140.562 62.1211 132.56C60.0705 124.558 59.7161 116.215 61.0806 108.068C62.0778 102.114 63.977 96.3609 66.7017 91.0028C68.3675 87.7267 72.5321 86.8923 75.6007 88.9149C78.6694 90.9375 79.4677 95.0503 77.9093 98.3788C76.1457 102.146 74.8975 106.144 74.207 110.267C73.1491 116.584 73.4239 123.052 75.0138 129.256C76.6037 135.46 79.4735 141.263 83.439 146.292C86.0271 149.575 89.0445 152.48 92.4025 154.935C95.3696 157.103 96.6477 161.093 94.9301 164.342Z" fill="#16361B"/>
<path d="M160.312 149.021C163.776 151.667 164.473 156.667 161.39 159.749C152.394 168.742 140.683 174.654 127.955 176.488C115.227 178.322 102.323 175.956 91.1548 169.868C87.327 167.781 86.5842 162.789 89.1609 159.272C91.7375 155.755 96.6572 155.069 100.582 156.968C108.327 160.716 117.07 162.106 125.704 160.862C134.337 159.618 142.333 155.816 148.705 150.035C151.934 147.105 156.847 146.375 160.312 149.021Z" fill="#24692E"/>
<g filter="url(#filter0_d_2855_44334)">
<path d="M119.507 68.9439C119.507 63.2393 124.166 58.5232 129.784 59.5129C138.422 61.0346 146.659 64.4638 153.873 69.6019C163.908 76.7485 171.464 86.8456 175.492 98.4879C179.519 110.13 179.817 122.738 176.343 134.558C173.846 143.055 169.489 150.841 163.637 157.375C159.831 161.624 153.254 160.795 149.729 156.31C146.204 151.825 147.129 145.387 150.522 140.801C153.199 137.183 155.239 133.102 156.523 128.733C158.785 121.035 158.591 112.824 155.968 105.241C153.346 97.6591 148.424 91.0832 141.889 86.4288C138.179 83.7867 134.054 81.8384 129.714 80.6476C124.212 79.1385 119.507 74.6486 119.507 68.9439Z" fill="#3AB54B"/>
</g>
<defs>
<filter id="filter0_d_2855_44334" x="117.302" y="59.3809" width="63.6494" height="105.187" filterUnits="userSpaceOnUse" color-interpolation-filters="sRGB">
<feFlood flood-opacity="0" result="BackgroundImageFix"/>
<feColorMatrix in="SourceAlpha" type="matrix" values="0 0 0 0 0 0 0 0 0 0 0 0 0 0 0 0 0 0 127 0" result="hardAlpha"/>
<feOffset dy="2.20556"/>
<feGaussianBlur stdDeviation="1.10278"/>
<feColorMatrix type="matrix" values="0 0 0 0 0.356863 0 0 0 0 0.576471 0 0 0 0 1 0 0 0 0.24 0"/>
<feBlend mode="normal" in2="BackgroundImageFix" result="effect1_dropShadow_2855_44334"/>
<feBlend mode="normal" in="SourceGraphic" in2="effect1_dropShadow_2855_44334" result="shape"/>
</filter>
</defs>
</svg>
