<svg width="238" height="238" viewBox="0 0 238 238" fill="none" xmlns="http://www.w3.org/2000/svg">
<g filter="url(#filter0_d_2499_7575)">
<path d="M106.595 117.058C105.75 117.058 104.999 116.921 104.341 116.646C103.687 116.369 103.173 115.99 102.801 115.511C102.428 115.033 102.241 114.49 102.241 113.883C102.241 113.415 102.347 112.986 102.559 112.595C102.775 112.2 103.067 111.873 103.437 111.613C103.806 111.35 104.219 111.182 104.676 111.109V111.032C104.076 110.912 103.59 110.621 103.217 110.161C102.845 109.696 102.658 109.157 102.658 108.543C102.658 107.962 102.828 107.445 103.168 106.992C103.508 106.535 103.974 106.177 104.566 105.917C105.162 105.654 105.838 105.522 106.595 105.522C107.351 105.522 108.026 105.654 108.618 105.917C109.213 106.18 109.681 106.54 110.021 106.997C110.361 107.45 110.533 107.966 110.537 108.543C110.533 109.161 110.343 109.7 109.966 110.161C109.59 110.621 109.107 110.912 108.519 111.032V111.109C108.969 111.182 109.376 111.35 109.742 111.613C110.111 111.873 110.403 112.2 110.619 112.595C110.838 112.986 110.95 113.415 110.953 113.883C110.95 114.49 110.761 115.033 110.389 115.511C110.016 115.99 109.5 116.369 108.842 116.646C108.188 116.921 107.439 117.058 106.595 117.058ZM106.595 115.314C106.971 115.314 107.3 115.246 107.581 115.111C107.863 114.972 108.082 114.782 108.239 114.541C108.4 114.296 108.481 114.015 108.481 113.697C108.481 113.371 108.398 113.085 108.234 112.836C108.069 112.584 107.846 112.386 107.565 112.244C107.284 112.098 106.96 112.025 106.595 112.025C106.233 112.025 105.909 112.098 105.624 112.244C105.339 112.386 105.114 112.584 104.95 112.836C104.789 113.085 104.709 113.371 104.709 113.697C104.709 114.015 104.787 114.296 104.944 114.541C105.102 114.782 105.323 114.972 105.608 115.111C105.893 115.246 106.222 115.314 106.595 115.314ZM106.595 110.298C106.909 110.298 107.189 110.234 107.433 110.106C107.678 109.978 107.87 109.8 108.009 109.574C108.148 109.347 108.217 109.086 108.217 108.79C108.217 108.497 108.148 108.242 108.009 108.022C107.87 107.799 107.68 107.626 107.439 107.501C107.198 107.374 106.916 107.31 106.595 107.31C106.277 107.31 105.995 107.374 105.75 107.501C105.505 107.626 105.314 107.799 105.175 108.022C105.039 108.242 104.972 108.497 104.972 108.79C104.972 109.086 105.041 109.347 105.18 109.574C105.319 109.8 105.511 109.978 105.756 110.106C106.001 110.234 106.28 110.298 106.595 110.298ZM117.016 117.151C116.073 117.147 115.261 116.915 114.581 116.454C113.905 115.994 113.384 115.327 113.019 114.453C112.657 113.58 112.478 112.529 112.482 111.301C112.482 110.076 112.662 109.033 113.024 108.17C113.39 107.308 113.911 106.652 114.587 106.202C115.267 105.749 116.076 105.522 117.016 105.522C117.955 105.522 118.763 105.749 119.439 106.202C120.119 106.655 120.641 107.313 121.007 108.176C121.372 109.035 121.553 110.076 121.55 111.301C121.55 112.533 121.367 113.585 121.001 114.459C120.64 115.332 120.121 115.999 119.444 116.46C118.768 116.921 117.959 117.151 117.016 117.151ZM117.016 115.183C117.659 115.183 118.172 114.859 118.556 114.212C118.94 113.565 119.13 112.595 119.126 111.301C119.126 110.449 119.039 109.74 118.863 109.174C118.691 108.607 118.447 108.181 118.129 107.896C117.814 107.611 117.443 107.469 117.016 107.469C116.376 107.469 115.864 107.788 115.48 108.428C115.097 109.068 114.903 110.025 114.899 111.301C114.899 112.163 114.985 112.884 115.157 113.461C115.332 114.035 115.579 114.466 115.897 114.755C116.215 115.04 116.588 115.183 117.016 115.183ZM129.388 114.799V114.207C129.388 113.757 129.483 113.344 129.673 112.968C129.867 112.587 130.147 112.284 130.512 112.057C130.881 111.827 131.331 111.712 131.861 111.712C132.398 111.712 132.85 111.825 133.215 112.052C133.584 112.279 133.862 112.582 134.049 112.962C134.239 113.339 134.334 113.753 134.334 114.207V114.799C134.334 115.248 134.239 115.663 134.049 116.043C133.858 116.42 133.579 116.721 133.21 116.948C132.841 117.178 132.391 117.293 131.861 117.293C131.324 117.293 130.872 117.178 130.507 116.948C130.141 116.721 129.864 116.42 129.673 116.043C129.483 115.663 129.388 115.248 129.388 114.799ZM130.984 114.207V114.799C130.984 115.058 131.046 115.303 131.17 115.533C131.298 115.764 131.528 115.879 131.861 115.879C132.194 115.879 132.42 115.766 132.541 115.539C132.665 115.312 132.727 115.066 132.727 114.799V114.207C132.727 113.94 132.669 113.691 132.552 113.461C132.435 113.231 132.205 113.116 131.861 113.116C131.532 113.116 131.304 113.231 131.176 113.461C131.048 113.691 130.984 113.94 130.984 114.207ZM123.626 108.373V107.781C123.626 107.328 123.723 106.913 123.917 106.537C124.11 106.156 124.39 105.853 124.756 105.626C125.125 105.4 125.571 105.287 126.093 105.287C126.634 105.287 127.088 105.4 127.453 105.626C127.819 105.853 128.096 106.156 128.286 106.537C128.476 106.913 128.571 107.328 128.571 107.781V108.373C128.571 108.826 128.475 109.241 128.281 109.618C128.091 109.994 127.811 110.296 127.442 110.522C127.077 110.745 126.627 110.857 126.093 110.857C125.56 110.857 125.108 110.743 124.739 110.517C124.374 110.287 124.096 109.985 123.906 109.612C123.719 109.236 123.626 108.823 123.626 108.373ZM125.233 107.781V108.373C125.233 108.64 125.295 108.887 125.419 109.113C125.547 109.34 125.772 109.453 126.093 109.453C126.43 109.453 126.658 109.34 126.779 109.113C126.903 108.887 126.965 108.64 126.965 108.373V107.781C126.965 107.514 126.907 107.266 126.79 107.035C126.673 106.805 126.441 106.69 126.093 106.69C125.768 106.69 125.543 106.807 125.419 107.041C125.295 107.275 125.233 107.522 125.233 107.781ZM124.35 116.904L132.069 105.676H133.506L125.786 116.904H124.35Z" fill="white"/>
<path d="M91.8311 124.074V123.385H96.6432V124.074H94.6256V129.801H93.8486V124.074H91.8311ZM97.2423 129.801V124.989H97.9566V125.716H98.0068C98.0945 125.478 98.2532 125.285 98.483 125.136C98.7127 124.988 98.9717 124.914 99.2599 124.914C99.3142 124.914 99.3821 124.915 99.4636 124.917C99.545 124.919 99.6066 124.922 99.6484 124.926V125.678C99.6233 125.672 99.5659 125.663 99.4761 125.65C99.3884 125.636 99.2954 125.628 99.1973 125.628C98.9633 125.628 98.7545 125.677 98.5707 125.776C98.389 125.872 98.2449 126.005 98.1383 126.177C98.0339 126.346 97.9817 126.539 97.9817 126.756V129.801H97.2423ZM102.195 129.902C101.794 129.902 101.44 129.8 101.133 129.598C100.826 129.393 100.586 129.105 100.413 128.733C100.239 128.359 100.153 127.917 100.153 127.408C100.153 126.902 100.239 126.464 100.413 126.092C100.586 125.72 100.827 125.433 101.137 125.23C101.446 125.028 101.803 124.926 102.208 124.926C102.521 124.926 102.769 124.979 102.95 125.083C103.134 125.185 103.274 125.302 103.37 125.434C103.468 125.564 103.545 125.67 103.599 125.754H103.662V124.989H104.401V129.801H103.687V129.062H103.599C103.545 129.15 103.467 129.26 103.367 129.394C103.267 129.526 103.124 129.644 102.938 129.748C102.752 129.85 102.505 129.902 102.195 129.902ZM102.296 129.237C102.592 129.237 102.843 129.16 103.048 129.006C103.252 128.849 103.408 128.633 103.514 128.357C103.621 128.079 103.674 127.759 103.674 127.395C103.674 127.036 103.622 126.722 103.518 126.452C103.413 126.181 103.259 125.97 103.054 125.819C102.849 125.667 102.596 125.591 102.296 125.591C101.982 125.591 101.721 125.671 101.512 125.832C101.306 125.991 101.15 126.207 101.046 126.48C100.943 126.752 100.892 127.057 100.892 127.395C100.892 127.738 100.944 128.049 101.049 128.329C101.155 128.607 101.312 128.828 101.519 128.993C101.728 129.156 101.987 129.237 102.296 129.237ZM106.597 126.906V129.801H105.858V124.989H106.572V125.741H106.635C106.748 125.497 106.919 125.3 107.149 125.152C107.378 125.002 107.675 124.926 108.038 124.926C108.364 124.926 108.649 124.993 108.894 125.127C109.138 125.259 109.328 125.459 109.464 125.729C109.6 125.996 109.667 126.334 109.667 126.744V129.801H108.928V126.794C108.928 126.416 108.83 126.121 108.634 125.91C108.437 125.697 108.168 125.591 107.825 125.591C107.589 125.591 107.378 125.642 107.192 125.744C107.009 125.847 106.863 125.996 106.757 126.192C106.65 126.389 106.597 126.627 106.597 126.906ZM114.427 126.067L113.763 126.255C113.721 126.144 113.659 126.037 113.578 125.932C113.499 125.826 113.39 125.738 113.252 125.669C113.114 125.6 112.938 125.566 112.723 125.566C112.428 125.566 112.183 125.633 111.987 125.769C111.792 125.903 111.695 126.073 111.695 126.28C111.695 126.464 111.762 126.609 111.896 126.715C112.029 126.822 112.238 126.911 112.522 126.982L113.237 127.157C113.667 127.262 113.987 127.421 114.198 127.636C114.409 127.849 114.515 128.124 114.515 128.46C114.515 128.736 114.435 128.983 114.277 129.2C114.12 129.417 113.901 129.588 113.619 129.714C113.337 129.839 113.009 129.902 112.635 129.902C112.144 129.902 111.738 129.795 111.416 129.582C111.095 129.369 110.891 129.058 110.805 128.648L111.507 128.473C111.574 128.732 111.7 128.926 111.886 129.056C112.074 129.185 112.32 129.25 112.622 129.25C112.967 129.25 113.241 129.177 113.443 129.031C113.648 128.882 113.75 128.705 113.75 128.498C113.75 128.331 113.692 128.191 113.575 128.078C113.458 127.963 113.278 127.878 113.036 127.821L112.234 127.633C111.793 127.529 111.47 127.367 111.263 127.148C111.058 126.926 110.956 126.65 110.956 126.317C110.956 126.046 111.032 125.806 111.184 125.597C111.339 125.388 111.549 125.224 111.814 125.105C112.082 124.986 112.384 124.926 112.723 124.926C113.199 124.926 113.573 125.031 113.844 125.24C114.118 125.449 114.312 125.724 114.427 126.067ZM117.445 129.902C117.044 129.902 116.69 129.8 116.383 129.598C116.076 129.393 115.836 129.105 115.662 128.733C115.489 128.359 115.402 127.917 115.402 127.408C115.402 126.902 115.489 126.464 115.662 126.092C115.836 125.72 116.077 125.433 116.386 125.23C116.695 125.028 117.052 124.926 117.457 124.926C117.771 124.926 118.018 124.979 118.2 125.083C118.384 125.185 118.524 125.302 118.62 125.434C118.718 125.564 118.794 125.67 118.848 125.754H118.911V124.989H119.65V129.801H118.936V129.062H118.848C118.794 129.15 118.717 129.26 118.616 129.394C118.516 129.526 118.373 129.644 118.187 129.748C118.001 129.85 117.754 129.902 117.445 129.902ZM117.545 129.237C117.842 129.237 118.092 129.16 118.297 129.006C118.502 128.849 118.657 128.633 118.764 128.357C118.87 128.079 118.924 127.759 118.924 127.395C118.924 127.036 118.871 126.722 118.767 126.452C118.662 126.181 118.508 125.97 118.303 125.819C118.099 125.667 117.846 125.591 117.545 125.591C117.232 125.591 116.971 125.671 116.762 125.832C116.555 125.991 116.399 126.207 116.295 126.48C116.193 126.752 116.142 127.057 116.142 127.395C116.142 127.738 116.194 128.049 116.298 128.329C116.405 128.607 116.561 128.828 116.768 128.993C116.977 129.156 117.236 129.237 117.545 129.237ZM123.062 129.902C122.611 129.902 122.222 129.795 121.897 129.582C121.571 129.369 121.32 129.075 121.145 128.702C120.969 128.328 120.882 127.901 120.882 127.42C120.882 126.932 120.971 126.5 121.151 126.126C121.333 125.75 121.585 125.457 121.909 125.246C122.235 125.033 122.615 124.926 123.05 124.926C123.388 124.926 123.693 124.989 123.964 125.114C124.236 125.24 124.458 125.415 124.632 125.641C124.805 125.866 124.913 126.13 124.954 126.43H124.215C124.159 126.211 124.033 126.017 123.839 125.848C123.647 125.676 123.388 125.591 123.062 125.591C122.774 125.591 122.521 125.666 122.304 125.816C122.089 125.965 121.921 126.174 121.8 126.446C121.68 126.715 121.621 127.032 121.621 127.395C121.621 127.767 121.679 128.091 121.796 128.366C121.915 128.642 122.083 128.856 122.298 129.009C122.515 129.161 122.77 129.237 123.062 129.237C123.254 129.237 123.429 129.204 123.585 129.137C123.742 129.07 123.875 128.974 123.983 128.849C124.092 128.724 124.169 128.573 124.215 128.398H124.954C124.913 128.682 124.809 128.938 124.644 129.165C124.481 129.391 124.265 129.57 123.996 129.704C123.728 129.836 123.417 129.902 123.062 129.902ZM128.128 124.989V125.616H125.634V124.989H128.128ZM126.361 123.836H127.1V128.423C127.1 128.632 127.131 128.788 127.191 128.893C127.254 128.995 127.333 129.064 127.429 129.1C127.527 129.133 127.631 129.15 127.739 129.15C127.821 129.15 127.888 129.145 127.94 129.137C127.992 129.127 128.034 129.118 128.065 129.112L128.216 129.776C128.166 129.795 128.096 129.814 128.006 129.833C127.916 129.853 127.802 129.864 127.664 129.864C127.455 129.864 127.251 129.819 127.05 129.729C126.852 129.639 126.687 129.503 126.555 129.319C126.426 129.135 126.361 128.903 126.361 128.623V123.836ZM129.24 129.801V124.989H129.979V129.801H129.24ZM129.616 124.187C129.472 124.187 129.348 124.138 129.243 124.04C129.141 123.942 129.09 123.824 129.09 123.686C129.09 123.548 129.141 123.43 129.243 123.332C129.348 123.234 129.472 123.185 129.616 123.185C129.76 123.185 129.883 123.234 129.986 123.332C130.09 123.43 130.142 123.548 130.142 123.686C130.142 123.824 130.09 123.942 129.986 124.04C129.883 124.138 129.76 124.187 129.616 124.187ZM133.289 129.902C132.854 129.902 132.473 129.798 132.145 129.591C131.819 129.385 131.564 129.095 131.381 128.724C131.199 128.352 131.108 127.917 131.108 127.42C131.108 126.919 131.199 126.481 131.381 126.108C131.564 125.734 131.819 125.443 132.145 125.237C132.473 125.03 132.854 124.926 133.289 124.926C133.723 124.926 134.103 125.03 134.429 125.237C134.757 125.443 135.012 125.734 135.193 126.108C135.377 126.481 135.469 126.919 135.469 127.42C135.469 127.917 135.377 128.352 135.193 128.724C135.012 129.095 134.757 129.385 134.429 129.591C134.103 129.798 133.723 129.902 133.289 129.902ZM133.289 129.237C133.619 129.237 133.89 129.153 134.103 128.984C134.316 128.814 134.474 128.592 134.576 128.316C134.679 128.041 134.73 127.742 134.73 127.42C134.73 127.099 134.679 126.799 134.576 126.521C134.474 126.243 134.316 126.019 134.103 125.848C133.89 125.676 133.619 125.591 133.289 125.591C132.959 125.591 132.687 125.676 132.474 125.848C132.261 126.019 132.103 126.243 132.001 126.521C131.899 126.799 131.847 127.099 131.847 127.42C131.847 127.742 131.899 128.041 132.001 128.316C132.103 128.592 132.261 128.814 132.474 128.984C132.687 129.153 132.959 129.237 133.289 129.237ZM137.337 126.906V129.801H136.598V124.989H137.312V125.741H137.375C137.487 125.497 137.659 125.3 137.888 125.152C138.118 125.002 138.415 124.926 138.778 124.926C139.104 124.926 139.389 124.993 139.633 125.127C139.878 125.259 140.068 125.459 140.204 125.729C140.339 125.996 140.407 126.334 140.407 126.744V129.801H139.668V126.794C139.668 126.416 139.57 126.121 139.373 125.91C139.177 125.697 138.908 125.591 138.565 125.591C138.329 125.591 138.118 125.642 137.932 125.744C137.749 125.847 137.603 125.996 137.497 126.192C137.39 126.389 137.337 126.627 137.337 126.906ZM145.167 126.067L144.503 126.255C144.461 126.144 144.399 126.037 144.318 125.932C144.239 125.826 144.13 125.738 143.992 125.669C143.854 125.6 143.678 125.566 143.463 125.566C143.168 125.566 142.923 125.633 142.726 125.769C142.532 125.903 142.435 126.073 142.435 126.28C142.435 126.464 142.502 126.609 142.636 126.715C142.769 126.822 142.978 126.911 143.262 126.982L143.976 127.157C144.407 127.262 144.727 127.421 144.938 127.636C145.149 127.849 145.255 128.124 145.255 128.46C145.255 128.736 145.175 128.983 145.017 129.2C144.86 129.417 144.641 129.588 144.359 129.714C144.077 129.839 143.749 129.902 143.375 129.902C142.884 129.902 142.478 129.795 142.156 129.582C141.835 129.369 141.631 129.058 141.545 128.648L142.247 128.473C142.314 128.732 142.44 128.926 142.626 129.056C142.814 129.185 143.06 129.25 143.362 129.25C143.707 129.25 143.981 129.177 144.183 129.031C144.388 128.882 144.49 128.705 144.49 128.498C144.49 128.331 144.432 128.191 144.315 128.078C144.198 127.963 144.018 127.878 143.776 127.821L142.974 127.633C142.533 127.529 142.21 127.367 142.003 127.148C141.798 126.926 141.696 126.65 141.696 126.317C141.696 126.046 141.772 125.806 141.924 125.597C142.079 125.388 142.289 125.224 142.554 125.105C142.821 124.986 143.124 124.926 143.463 124.926C143.939 124.926 144.313 125.031 144.584 125.24C144.858 125.449 145.052 125.724 145.167 126.067Z" fill="#AAABAD"/>
<path d="M173.652 116.895C173.652 147.328 148.981 171.999 118.548 171.999C88.115 171.999 63.444 147.328 63.444 116.895C63.444 86.4616 88.115 61.7907 118.548 61.7907C148.981 61.7907 173.652 86.4616 173.652 116.895Z" stroke="#2E2E2E" stroke-width="8.27083"/>
<path d="M93.9711 163.383C92.2534 166.632 88.2008 167.904 85.1646 165.833C80.1989 162.445 75.7666 158.314 72.0288 153.574C66.9142 147.087 63.2127 139.602 61.1621 131.6C59.1115 123.598 58.7571 115.256 60.1216 107.109C61.1189 101.155 63.0181 95.4017 65.7427 90.0435C67.4085 86.7675 71.5731 85.933 74.6418 87.9556C77.7104 89.9782 78.5087 94.0911 76.9504 97.4196C75.1867 101.187 73.9385 105.185 73.2481 109.308C72.1901 115.624 72.4649 122.092 74.0548 128.297C75.6447 134.501 78.5145 140.304 82.4801 145.333C85.0681 148.615 88.0856 151.521 91.4435 153.975C94.4106 156.144 95.6888 160.134 93.9711 163.383Z" fill="#16361B"/>
<path d="M159.353 148.062C162.817 150.708 163.514 155.707 160.431 158.79C151.435 167.783 139.724 173.695 126.996 175.529C114.268 177.362 101.364 174.997 90.1958 168.909C86.368 166.822 85.6253 161.829 88.2019 158.313C90.7785 154.796 95.6982 154.11 99.6225 156.009C107.368 159.756 116.111 161.147 124.745 159.903C133.378 158.659 141.374 154.857 147.746 149.075C150.975 146.146 155.888 145.416 159.353 148.062Z" fill="#24692E"/>
<g filter="url(#filter1_d_2499_7575)">
<path d="M118.548 67.9847C118.548 62.28 123.207 57.564 128.825 58.5537C137.463 60.0754 145.7 63.5046 152.914 68.6427C162.949 75.7893 170.506 85.8864 174.533 97.5286C178.56 109.171 178.858 121.779 175.384 133.598C172.887 142.096 168.53 149.882 162.678 156.416C158.872 160.665 152.295 159.836 148.77 155.351C145.245 150.865 146.17 144.428 149.563 139.842C152.24 136.223 154.28 132.143 155.564 127.773C157.826 120.076 157.632 111.864 155.009 104.282C152.387 96.6999 147.465 90.124 140.93 85.4696C137.22 82.8275 133.095 80.8792 128.755 79.6884C123.253 78.1792 118.548 73.6894 118.548 67.9847Z" fill="#3AB54B"/>
</g>
</g>
<defs>
<filter id="filter0_d_2499_7575" x="-38" y="-36" width="317.098" height="317.097" filterUnits="userSpaceOnUse" color-interpolation-filters="sRGB">
<feFlood flood-opacity="0" result="BackgroundImageFix"/>
<feColorMatrix in="SourceAlpha" type="matrix" values="0 0 0 0 0 0 0 0 0 0 0 0 0 0 0 0 0 0 127 0" result="hardAlpha"/>
<feOffset dx="2" dy="4"/>
<feGaussianBlur stdDeviation="20"/>
<feComposite in2="hardAlpha" operator="out"/>
<feColorMatrix type="matrix" values="0 0 0 0 0 0 0 0 0 0 0 0 0 0 0 0 0 0 0.5 0"/>
<feBlend mode="normal" in2="BackgroundImageFix" result="effect1_dropShadow_2499_7575"/>
<feBlend mode="normal" in="SourceGraphic" in2="effect1_dropShadow_2499_7575" result="shape"/>
</filter>
<filter id="filter1_d_2499_7575" x="116.343" y="58.4216" width="63.6494" height="105.187" filterUnits="userSpaceOnUse" color-interpolation-filters="sRGB">
<feFlood flood-opacity="0" result="BackgroundImageFix"/>
<feColorMatrix in="SourceAlpha" type="matrix" values="0 0 0 0 0 0 0 0 0 0 0 0 0 0 0 0 0 0 127 0" result="hardAlpha"/>
<feOffset dy="2.20556"/>
<feGaussianBlur stdDeviation="1.10278"/>
<feColorMatrix type="matrix" values="0 0 0 0 0.356863 0 0 0 0 0.576471 0 0 0 0 1 0 0 0 0.24 0"/>
<feBlend mode="normal" in2="BackgroundImageFix" result="effect1_dropShadow_2499_7575"/>
<feBlend mode="normal" in="SourceGraphic" in2="effect1_dropShadow_2499_7575" result="shape"/>
</filter>
</defs>
</svg>
