<?xml version="1.0" encoding="utf-8"?>
<!-- Generator: Adobe Illustrator 28.2.0, SVG Export Plug-In . SVG Version: 6.00 Build 0)  -->
<svg version="1.1" id="Слой_1" xmlns="http://www.w3.org/2000/svg" xmlns:xlink="http://www.w3.org/1999/xlink" x="0px" y="0px"
	 viewBox="0 0 804 603" style="enable-background:new 0 0 804 603;" xml:space="preserve">
<style type="text/css">
	.st0{fill:none;stroke:#717171;}
	.st1{fill:#202020;}
	.st2{fill:#FFFFFF;}
	.st3{fill-rule:evenodd;clip-rule:evenodd;fill:#FFFFFF;fill-opacity:0.4;}
	.st4{fill:none;stroke:#FFFFFF;stroke-width:1.1028;stroke-opacity:0.2;}
	.st5{fill:#FFFFFF;fill-opacity:0.2;}
	.st6{fill:#FFFFFF;fill-opacity:0.1;}
	.st7{fill-rule:evenodd;clip-rule:evenodd;fill:#FFFFFF;}
	.st8{fill-rule:evenodd;clip-rule:evenodd;fill:#FFFFFF;fill-opacity:0.1;}
	.st9{fill:none;stroke:#FFFFFF;stroke-width:1.3412;stroke-linecap:round;}
</style>
<path class="st0" d="M20,0.5h764c10.8,0,19.5,8.7,19.5,19.5v563c0,10.8-8.7,19.5-19.5,19.5H20c-10.8,0-19.5-8.7-19.5-19.5V20
	C0.5,9.2,9.2,0.5,20,0.5z"/>
<path class="st1" d="M222,17h549c8.8,0,16,7.2,16,16v22c0,8.8-7.2,16-16,16H222c-8.8,0-16-7.2-16-16V33C206,24.2,213.2,17,222,17z"
	/>
<path class="st2" d="M231.1,42.1c0-0.3-0.2-0.6-0.5-0.8c-0.3-0.2-0.6-0.3-1.1-0.3c-0.3,0-0.6,0-0.8,0.1c-0.2,0.1-0.4,0.2-0.5,0.4
	c-0.1,0.2-0.2,0.3-0.2,0.5c0,0.2,0,0.3,0.1,0.4c0.1,0.1,0.2,0.2,0.3,0.3c0.1,0.1,0.3,0.2,0.4,0.2c0.2,0.1,0.3,0.1,0.5,0.1l0.8,0.2
	c0.3,0.1,0.6,0.2,0.9,0.3c0.3,0.1,0.5,0.3,0.8,0.5c0.2,0.2,0.4,0.4,0.5,0.7c0.1,0.3,0.2,0.6,0.2,0.9c0,0.5-0.1,0.9-0.4,1.2
	c-0.2,0.4-0.6,0.6-1,0.8c-0.5,0.2-1,0.3-1.6,0.3c-0.6,0-1.2-0.1-1.6-0.3c-0.5-0.2-0.8-0.5-1.1-0.8c-0.3-0.4-0.4-0.8-0.4-1.4h1.4
	c0,0.3,0.1,0.5,0.3,0.7c0.2,0.2,0.3,0.3,0.6,0.4c0.2,0.1,0.5,0.1,0.8,0.1c0.3,0,0.6,0,0.8-0.1c0.2-0.1,0.4-0.2,0.6-0.4
	c0.1-0.2,0.2-0.4,0.2-0.6c0-0.2-0.1-0.4-0.2-0.5c-0.1-0.1-0.3-0.3-0.5-0.3c-0.2-0.1-0.5-0.2-0.8-0.3l-0.9-0.2
	c-0.7-0.2-1.2-0.4-1.6-0.8c-0.4-0.3-0.6-0.8-0.6-1.4c0-0.5,0.1-0.9,0.4-1.2c0.3-0.4,0.6-0.6,1.1-0.8c0.4-0.2,0.9-0.3,1.5-0.3
	c0.6,0,1.1,0.1,1.5,0.3c0.4,0.2,0.8,0.5,1,0.8c0.2,0.3,0.4,0.7,0.4,1.2H231.1z M236.9,41.9V43h-3.5v-1.1H236.9z M234.3,40.4h1.4v5.6
	c0,0.2,0,0.3,0.1,0.4c0.1,0.1,0.1,0.2,0.2,0.2c0.1,0,0.2,0.1,0.3,0.1c0.1,0,0.2,0,0.2,0c0.1,0,0.1,0,0.2,0l0.2,1.1
	c-0.1,0-0.2,0.1-0.3,0.1c-0.1,0-0.3,0-0.5,0.1c-0.4,0-0.7,0-1-0.2c-0.3-0.1-0.5-0.3-0.7-0.6c-0.2-0.3-0.2-0.6-0.2-0.9V40.4z
	 M240.6,48c-0.6,0-1.1-0.1-1.5-0.4c-0.4-0.3-0.8-0.6-1-1.1c-0.2-0.5-0.4-1-0.4-1.6c0-0.6,0.1-1.2,0.4-1.6c0.2-0.5,0.6-0.8,1-1.1
	c0.4-0.3,0.9-0.4,1.5-0.4c0.6,0,1.1,0.1,1.5,0.4c0.4,0.3,0.8,0.6,1,1.1c0.2,0.5,0.4,1,0.4,1.6c0,0.6-0.1,1.2-0.4,1.6
	c-0.2,0.5-0.6,0.8-1,1.1C241.7,47.9,241.2,48,240.6,48z M240.6,46.9c0.3,0,0.6-0.1,0.8-0.3c0.2-0.2,0.4-0.4,0.5-0.7
	c0.1-0.3,0.2-0.6,0.2-1c0-0.4-0.1-0.7-0.2-1c-0.1-0.3-0.3-0.5-0.5-0.7c-0.2-0.2-0.5-0.3-0.8-0.3c-0.3,0-0.6,0.1-0.8,0.3
	c-0.2,0.2-0.4,0.4-0.5,0.7c-0.1,0.3-0.2,0.6-0.2,1c0,0.4,0.1,0.7,0.2,1c0.1,0.3,0.3,0.5,0.5,0.7C240,46.8,240.3,46.9,240.6,46.9z
	 M244.7,47.9v-6h1.4v1h0.1c0.1-0.3,0.3-0.6,0.6-0.8c0.3-0.2,0.6-0.3,0.9-0.3c0.1,0,0.2,0,0.3,0c0.1,0,0.2,0,0.2,0v1.3
	c-0.1,0-0.2,0-0.3-0.1c-0.1,0-0.3,0-0.4,0c-0.3,0-0.5,0.1-0.7,0.2c-0.2,0.1-0.4,0.3-0.5,0.5c-0.1,0.2-0.2,0.4-0.2,0.7v3.5H244.7z
	 M251.5,48c-0.6,0-1.1-0.1-1.6-0.4c-0.4-0.3-0.8-0.6-1-1.1c-0.2-0.5-0.4-1-0.4-1.6c0-0.6,0.1-1.2,0.4-1.6c0.2-0.5,0.6-0.8,1-1.1
	c0.4-0.3,0.9-0.4,1.5-0.4c0.4,0,0.7,0.1,1.1,0.2c0.3,0.1,0.6,0.3,0.9,0.5c0.3,0.2,0.5,0.6,0.6,0.9c0.1,0.4,0.2,0.8,0.2,1.4v0.4h-4.9
	v-1h3.6c0-0.3-0.1-0.5-0.2-0.7c-0.1-0.2-0.3-0.4-0.5-0.5c-0.2-0.1-0.4-0.2-0.7-0.2c-0.3,0-0.5,0.1-0.8,0.2c-0.2,0.1-0.4,0.3-0.5,0.5
	c-0.1,0.2-0.2,0.5-0.2,0.7v0.8c0,0.3,0.1,0.7,0.2,0.9c0.1,0.2,0.3,0.4,0.5,0.6c0.2,0.1,0.5,0.2,0.8,0.2c0.2,0,0.4,0,0.6-0.1
	c0.2-0.1,0.3-0.1,0.4-0.3c0.1-0.1,0.2-0.3,0.3-0.4l1.3,0.1c-0.1,0.3-0.2,0.7-0.5,0.9c-0.2,0.3-0.5,0.5-0.9,0.6
	C252.4,47.9,252,48,251.5,48z M261.2,39.9v8h-1.5v-6.2h-0.1c-0.1,0.1-0.2,0.2-0.3,0.3c-0.1,0.1-0.3,0.2-0.6,0.2
	c-0.2,0.1-0.5,0.1-0.8,0.1v-1.2c0.3,0,0.5,0,0.7-0.1c0.2-0.1,0.4-0.2,0.6-0.4c0.2-0.1,0.3-0.3,0.4-0.4c0.1-0.1,0.1-0.3,0.1-0.3
	H261.2z M263.2,47.9v-1l2.8-2.7c0.3-0.3,0.5-0.5,0.7-0.7c0.2-0.2,0.3-0.4,0.4-0.6c0.1-0.2,0.1-0.4,0.1-0.6c0-0.3-0.1-0.5-0.2-0.7
	c-0.1-0.2-0.3-0.3-0.5-0.4c-0.2-0.1-0.4-0.1-0.7-0.1c-0.3,0-0.5,0.1-0.7,0.2c-0.2,0.1-0.4,0.3-0.5,0.5c-0.1,0.2-0.2,0.4-0.2,0.7
	h-1.4c0-0.5,0.1-1,0.3-1.3c0.2-0.4,0.6-0.7,1-0.9c0.4-0.2,0.9-0.3,1.4-0.3c0.5,0,1,0.1,1.4,0.3c0.4,0.2,0.7,0.5,0.9,0.8
	c0.2,0.3,0.3,0.7,0.3,1.2c0,0.3-0.1,0.6-0.2,0.9c-0.1,0.3-0.3,0.6-0.6,1c-0.3,0.4-0.7,0.8-1.2,1.3l-1.4,1.4v0.1h3.5v1.2H263.2z"/>
<path class="st3" d="M280.9,41.4c0.2-0.2,0.5-0.2,0.7,0l3.5,3.8c0.2,0.2,0.5,0.2,0.7,0l3.5-3.8c0.2-0.2,0.5-0.2,0.7,0
	c0.2,0.2,0.2,0.6,0,0.8l-3.5,3.8c-0.6,0.7-1.6,0.7-2.2,0l-3.5-3.8C280.7,42,280.7,41.6,280.9,41.4z"/>
<path class="st4" d="M339.8,30.1h285.1c4.6,0,8.3,3.7,8.3,8.3v11c0,4.6-3.7,8.3-8.3,8.3H339.8c-4.6,0-8.3-3.7-8.3-8.3v-11
	C331.6,33.8,335.3,30.1,339.8,30.1z"/>
<path class="st5" d="M353.1,50.6c-0.1,0.1-0.2,0.2-0.4,0.2c-0.1,0-0.3-0.1-0.4-0.2l-2.8-2.8c-1.2,1-2.7,1.5-4.3,1.4
	c-1.6-0.1-3-0.8-4.1-2c-1.1-1.2-1.6-2.7-1.6-4.2c0-1.6,0.7-3.1,1.8-4.2c1.1-1.1,2.6-1.7,4.2-1.8c1.6,0,3.1,0.5,4.2,1.6
	c1.2,1.1,1.9,2.5,2,4.1c0.1,1.6-0.4,3.1-1.4,4.3l2.8,2.8c0,0,0.1,0.1,0.1,0.2c0,0.1,0,0.1,0,0.2c0,0.1,0,0.1,0,0.2
	C353.2,50.5,353.2,50.5,353.1,50.6z M345.7,48.1c1,0,2-0.3,2.8-0.8c0.8-0.5,1.5-1.3,1.8-2.2c0.4-0.9,0.5-1.9,0.3-2.9
	c-0.2-1-0.7-1.9-1.4-2.6s-1.6-1.2-2.6-1.4c-1-0.2-2-0.1-2.9,0.3c-0.9,0.4-1.7,1-2.2,1.8c-0.5,0.8-0.8,1.8-0.8,2.8
	c0,1.3,0.5,2.6,1.5,3.5C343.1,47.6,344.3,48.1,345.7,48.1z"/>
<path class="st5" d="M365,42.4c0-0.4-0.2-0.7-0.6-0.9c-0.3-0.2-0.7-0.3-1.2-0.3c-0.4,0-0.7,0.1-0.9,0.2c-0.3,0.1-0.5,0.3-0.6,0.5
	c-0.1,0.2-0.2,0.4-0.2,0.7c0,0.2,0.1,0.4,0.2,0.6c0.1,0.2,0.2,0.3,0.4,0.4c0.2,0.1,0.3,0.2,0.5,0.2c0.2,0.1,0.3,0.1,0.5,0.2l0.8,0.2
	c0.2,0.1,0.4,0.1,0.7,0.2c0.3,0.1,0.5,0.2,0.7,0.4c0.2,0.2,0.4,0.4,0.6,0.6c0.2,0.3,0.2,0.6,0.2,1c0,0.4-0.1,0.8-0.3,1.2
	c-0.2,0.3-0.6,0.6-1,0.8c-0.4,0.2-1,0.3-1.6,0.3c-0.6,0-1.1-0.1-1.5-0.3c-0.4-0.2-0.7-0.4-1-0.8c-0.2-0.3-0.4-0.7-0.4-1.2h1
	c0,0.3,0.1,0.6,0.3,0.8c0.2,0.2,0.4,0.3,0.7,0.4c0.3,0.1,0.6,0.1,0.9,0.1c0.4,0,0.7-0.1,1-0.2c0.3-0.1,0.5-0.3,0.7-0.5
	c0.2-0.2,0.3-0.5,0.3-0.8c0-0.3-0.1-0.5-0.2-0.7c-0.1-0.2-0.3-0.3-0.6-0.4s-0.5-0.2-0.8-0.3l-1-0.3c-0.6-0.2-1.1-0.4-1.5-0.8
	c-0.4-0.3-0.5-0.8-0.5-1.3c0-0.4,0.1-0.8,0.4-1.2c0.2-0.3,0.6-0.6,1-0.8c0.4-0.2,0.9-0.3,1.4-0.3c0.5,0,1,0.1,1.4,0.3
	c0.4,0.2,0.7,0.4,1,0.8c0.2,0.3,0.4,0.7,0.4,1.1H365z M370.1,48.5c-0.6,0-1.1-0.1-1.5-0.4c-0.4-0.3-0.7-0.6-1-1.1
	c-0.2-0.5-0.3-1-0.3-1.6s0.1-1.2,0.3-1.6c0.2-0.5,0.5-0.8,0.9-1.1c0.4-0.3,0.9-0.4,1.4-0.4c0.3,0,0.6,0.1,0.9,0.2
	c0.3,0.1,0.6,0.3,0.8,0.5c0.3,0.2,0.5,0.5,0.6,0.9c0.1,0.4,0.2,0.9,0.2,1.4v0.4h-4.6v-0.8h3.7c0-0.3-0.1-0.6-0.2-0.9
	c-0.1-0.3-0.3-0.5-0.6-0.6c-0.2-0.2-0.5-0.2-0.9-0.2c-0.4,0-0.7,0.1-1,0.3c-0.3,0.2-0.5,0.4-0.6,0.7c-0.1,0.3-0.2,0.6-0.2,0.9v0.5
	c0,0.5,0.1,0.8,0.2,1.2c0.2,0.3,0.4,0.6,0.7,0.7c0.3,0.2,0.6,0.2,1,0.2c0.2,0,0.5,0,0.7-0.1c0.2-0.1,0.4-0.2,0.5-0.3
	c0.1-0.1,0.3-0.3,0.3-0.5l0.9,0.3c-0.1,0.3-0.3,0.6-0.5,0.8c-0.2,0.2-0.5,0.4-0.8,0.5C370.8,48.4,370.5,48.5,370.1,48.5z
	 M376.2,48.5c-0.5,0-0.9-0.1-1.3-0.4c-0.4-0.3-0.7-0.6-0.9-1.1c-0.2-0.5-0.3-1-0.3-1.7c0-0.6,0.1-1.2,0.3-1.6
	c0.2-0.5,0.5-0.8,0.9-1.1c0.4-0.3,0.8-0.4,1.3-0.4c0.4,0,0.7,0.1,0.9,0.2c0.2,0.1,0.4,0.3,0.5,0.4c0.1,0.2,0.2,0.3,0.3,0.4h0.1v-1
	h0.9v6h-0.9v-0.9H378c-0.1,0.1-0.2,0.2-0.3,0.4c-0.1,0.2-0.3,0.3-0.5,0.4C376.9,48.4,376.6,48.5,376.2,48.5z M376.4,47.7
	c0.4,0,0.7-0.1,0.9-0.3c0.3-0.2,0.5-0.5,0.6-0.8c0.1-0.3,0.2-0.7,0.2-1.2c0-0.4-0.1-0.8-0.2-1.2c-0.1-0.3-0.3-0.6-0.6-0.8
	c-0.3-0.2-0.6-0.3-0.9-0.3c-0.4,0-0.7,0.1-1,0.3c-0.3,0.2-0.5,0.5-0.6,0.8c-0.1,0.3-0.2,0.7-0.2,1.1c0,0.4,0.1,0.8,0.2,1.2
	c0.1,0.3,0.3,0.6,0.6,0.8C375.7,47.6,376,47.7,376.4,47.7z M380.8,48.4v-6h0.9v0.9h0.1c0.1-0.3,0.3-0.5,0.6-0.7
	c0.3-0.2,0.6-0.3,1-0.3c0.1,0,0.2,0,0.3,0c0.1,0,0.2,0,0.2,0v0.9c0,0-0.1,0-0.2,0c-0.1,0-0.2,0-0.3,0c-0.3,0-0.6,0.1-0.8,0.2
	c-0.2,0.1-0.4,0.3-0.5,0.5c-0.1,0.2-0.2,0.5-0.2,0.7v3.8H380.8z M387.2,48.5c-0.6,0-1.1-0.1-1.5-0.4c-0.4-0.3-0.7-0.6-0.9-1.1
	c-0.2-0.5-0.3-1-0.3-1.6c0-0.6,0.1-1.2,0.3-1.6c0.2-0.5,0.5-0.8,0.9-1.1c0.4-0.3,0.9-0.4,1.4-0.4c0.4,0,0.8,0.1,1.1,0.2
	c0.3,0.2,0.6,0.4,0.8,0.7c0.2,0.3,0.4,0.6,0.4,1h-0.9c-0.1-0.3-0.2-0.5-0.5-0.7c-0.2-0.2-0.6-0.3-1-0.3c-0.4,0-0.7,0.1-0.9,0.3
	c-0.3,0.2-0.5,0.4-0.6,0.8c-0.1,0.3-0.2,0.7-0.2,1.2c0,0.5,0.1,0.9,0.2,1.2c0.1,0.3,0.4,0.6,0.6,0.8c0.3,0.2,0.6,0.3,1,0.3
	c0.2,0,0.5,0,0.7-0.1c0.2-0.1,0.4-0.2,0.5-0.4c0.1-0.2,0.2-0.3,0.3-0.6h0.9c-0.1,0.4-0.2,0.7-0.4,1c-0.2,0.3-0.5,0.5-0.8,0.7
	C388,48.4,387.6,48.5,387.2,48.5z M391.8,44.8v3.6h-0.9v-8h0.9v2.9h0.1c0.1-0.3,0.4-0.6,0.6-0.7c0.3-0.2,0.7-0.3,1.1-0.3
	c0.4,0,0.8,0.1,1.1,0.2c0.3,0.2,0.5,0.4,0.7,0.7c0.2,0.3,0.3,0.8,0.3,1.3v3.8h-0.9v-3.8c0-0.5-0.1-0.8-0.4-1.1
	c-0.2-0.3-0.6-0.4-1-0.4c-0.3,0-0.6,0.1-0.8,0.2c-0.2,0.1-0.4,0.3-0.6,0.6C391.9,44.1,391.8,44.4,391.8,44.8z"/>
<path class="st5" d="M608,49.1c-0.4,0-0.8-0.1-1.1-0.3c-0.3-0.2-0.6-0.5-0.8-0.8c-0.2-0.3-0.3-0.7-0.3-1.1c0-0.4,0.1-0.8,0.3-1.1
	c0.2-0.3,0.5-0.6,0.8-0.8c0.3-0.2,0.7-0.3,1.1-0.3h1.2v-2.1H608c-0.4,0-0.8-0.1-1.1-0.3c-0.3-0.2-0.6-0.5-0.8-0.8
	c-0.2-0.3-0.3-0.7-0.3-1.1c0-0.4,0.1-0.8,0.3-1.1c0.2-0.3,0.5-0.6,0.8-0.8c0.3-0.2,0.7-0.3,1.1-0.3c0.4,0,0.8,0.1,1.1,0.3
	c0.3,0.2,0.6,0.5,0.8,0.8c0.2,0.3,0.3,0.7,0.3,1.1v1.2h2.1v-1.2c0-0.4,0.1-0.8,0.3-1.1c0.2-0.3,0.5-0.6,0.8-0.8
	c0.3-0.2,0.7-0.3,1.1-0.3c0.4,0,0.8,0.1,1.1,0.3c0.3,0.2,0.6,0.5,0.8,0.8c0.2,0.3,0.3,0.7,0.3,1.1c0,0.4-0.1,0.8-0.3,1.1
	c-0.2,0.3-0.5,0.6-0.8,0.8c-0.3,0.2-0.7,0.3-1.1,0.3h-1.2v2.1h1.2c0.4,0,0.8,0.1,1.1,0.3c0.3,0.2,0.6,0.5,0.8,0.8
	c0.2,0.3,0.3,0.7,0.3,1.1c0,0.4-0.1,0.8-0.3,1.1c-0.2,0.3-0.5,0.6-0.8,0.8c-0.3,0.2-0.7,0.3-1.1,0.3c-0.4,0-0.8-0.1-1.1-0.3
	c-0.3-0.2-0.6-0.5-0.8-0.8c-0.2-0.3-0.3-0.7-0.3-1.1v-1.2h-2.1v1.2c0,0.4-0.1,0.8-0.3,1.1c-0.2,0.3-0.5,0.6-0.8,0.8
	C608.8,49,608.4,49.1,608,49.1z M608,48.1c0.2,0,0.4-0.1,0.6-0.2c0.2-0.1,0.3-0.3,0.4-0.4c0.1-0.2,0.2-0.4,0.2-0.6v-1.2H608
	c-0.2,0-0.4,0.1-0.6,0.2c-0.2,0.1-0.3,0.3-0.4,0.4c-0.1,0.2-0.2,0.4-0.2,0.6c0,0.2,0.1,0.4,0.2,0.6c0.1,0.2,0.3,0.3,0.4,0.4
	C607.6,48,607.8,48.1,608,48.1z M608,41.4h1.2v-1.2c0-0.2-0.1-0.4-0.2-0.6c-0.1-0.2-0.3-0.3-0.4-0.4c-0.2-0.1-0.4-0.2-0.6-0.2
	c-0.2,0-0.4,0.1-0.6,0.2c-0.2,0.1-0.3,0.3-0.4,0.4c-0.1,0.2-0.2,0.4-0.2,0.6c0,0.2,0.1,0.4,0.2,0.6c0.1,0.2,0.3,0.3,0.4,0.4
	C607.6,41.3,607.8,41.4,608,41.4z M613.4,41.4h1.2c0.2,0,0.4-0.1,0.6-0.2c0.2-0.1,0.3-0.3,0.4-0.4c0.1-0.2,0.2-0.4,0.2-0.6
	c0-0.2-0.1-0.4-0.2-0.6c-0.1-0.2-0.3-0.3-0.4-0.4c-0.2-0.1-0.4-0.2-0.6-0.2c-0.2,0-0.4,0.1-0.6,0.2c-0.2,0.1-0.3,0.3-0.4,0.4
	c-0.1,0.2-0.2,0.4-0.2,0.6V41.4z M614.6,48.1c0.2,0,0.4-0.1,0.6-0.2c0.2-0.1,0.3-0.3,0.4-0.4c0.1-0.2,0.2-0.4,0.2-0.6
	c0-0.2-0.1-0.4-0.2-0.6c-0.1-0.2-0.3-0.3-0.4-0.4c-0.2-0.1-0.4-0.2-0.6-0.2h-1.2v1.2c0,0.2,0.1,0.4,0.2,0.6c0.1,0.2,0.3,0.3,0.4,0.4
	C614.2,48,614.4,48.1,614.6,48.1z M610.3,44.6h2.1v-2.1h-2.1V44.6z M623.6,37.7l-3.5,12.8H619l3.5-12.8H623.6z"/>
<path class="st6" d="M680.2,38.4v11h-3.3c-0.1,0-0.3-0.1-0.4-0.2c-0.1-0.1-0.2-0.2-0.2-0.4v-9.9c0-0.1,0.1-0.3,0.2-0.4
	c0.1-0.1,0.2-0.2,0.4-0.2H680.2z"/>
<path class="st2" d="M689,37.8h-12.1c-0.3,0-0.6,0.1-0.8,0.3c-0.2,0.2-0.3,0.5-0.3,0.8v9.9c0,0.3,0.1,0.6,0.3,0.8
	c0.2,0.2,0.5,0.3,0.8,0.3H689c0.3,0,0.6-0.1,0.8-0.3c0.2-0.2,0.3-0.5,0.3-0.8v-9.9c0-0.3-0.1-0.6-0.3-0.8
	C689.6,37.9,689.3,37.8,689,37.8z M676.9,45.5h1.1c0.1,0,0.3-0.1,0.4-0.2c0.1-0.1,0.2-0.2,0.2-0.4c0-0.1-0.1-0.3-0.2-0.4
	c-0.1-0.1-0.2-0.2-0.4-0.2h-1.1v-1.1h1.1c0.1,0,0.3-0.1,0.4-0.2c0.1-0.1,0.2-0.2,0.2-0.4c0-0.1-0.1-0.3-0.2-0.4
	c-0.1-0.1-0.2-0.2-0.4-0.2h-1.1v-1.1h1.1c0.1,0,0.3-0.1,0.4-0.2c0.1-0.1,0.2-0.2,0.2-0.4c0-0.1-0.1-0.3-0.2-0.4
	c-0.1-0.1-0.2-0.2-0.4-0.2h-1.1v-1.1h2.8v9.9h-2.8V45.5z M689,48.8h-8.3v-9.9h8.3V48.8z"/>
<path class="st7" d="M705.8,37.8h2.7c1,0,2,0,3,0.1c0.7,0.1,1.4,0.4,1.9,0.9c0.5,0.5,0.8,1.2,0.8,2c0.1,1,0.1,2,0.1,3.1v0.1
	c0,1,0,2-0.1,3.1c0,0.7-0.3,1.4-0.8,2c-0.5,0.5-1.2,0.8-1.9,0.9c-1,0.1-2,0.1-3,0.1h-2.7c-1,0-2,0-3-0.1c-0.7-0.1-1.4-0.4-1.9-0.9
	c-0.5-0.5-0.8-1.2-0.8-2c-0.1-1-0.1-2-0.1-3.1v-0.1c0-1,0-2,0.1-3.1c0-0.7,0.3-1.4,0.8-2c0.5-0.5,1.2-0.8,1.9-0.9
	C703.8,37.8,704.8,37.8,705.8,37.8z M703,39c-0.5,0-1,0.2-1.3,0.6c-0.3,0.4-0.5,0.9-0.5,1.4c-0.1,1-0.1,2-0.1,3c0,1,0,2,0.1,3
	c0,0.5,0.2,1,0.5,1.4c0.4,0.3,0.8,0.5,1.3,0.6c0.9,0.1,1.9,0.1,2.9,0.1h2.7c1,0,1.9,0,2.9-0.1c0.5,0,1-0.2,1.3-0.6
	c0.3-0.4,0.5-0.9,0.5-1.4c0.1-1,0.1-2,0.1-3c0-1,0-2-0.1-3c0-0.5-0.2-1-0.5-1.4c-0.4-0.3-0.8-0.5-1.3-0.6c-0.9-0.1-1.9-0.1-2.9-0.1
	h-2.7C704.9,38.8,703.9,38.9,703,39z M702.8,40.8c0.1-0.1,0.2-0.2,0.3-0.2c0.1,0,0.3,0,0.4,0.1l1.4,1.2c0.5,0.4,0.9,0.8,1.4,1.2
	c0.2,0.2,0.5,0.3,0.8,0.3c0.3,0,0.6-0.1,0.8-0.3c0.5-0.4,1-0.7,1.4-1.2l1.4-1.2c0.1-0.1,0.2-0.1,0.4-0.1c0.1,0,0.3,0.1,0.3,0.2
	c0,0.1,0.1,0.1,0.1,0.2c0,0.1,0,0.1,0,0.2c0,0.1,0,0.1-0.1,0.2c0,0.1-0.1,0.1-0.1,0.2l-1.5,1.3c-0.5,0.4-1,0.8-1.5,1.2
	c-0.4,0.3-0.9,0.5-1.4,0.5c-0.5,0-1-0.2-1.4-0.5c-0.5-0.4-1-0.8-1.5-1.2l-1.5-1.3c0,0-0.1-0.1-0.1-0.2c0-0.1,0-0.1-0.1-0.2
	c0-0.1,0-0.1,0-0.2C702.7,40.9,702.8,40.8,702.8,40.8z"/>
<path class="st8" d="M703,39c-0.5,0-1,0.2-1.3,0.6c-0.3,0.4-0.5,0.9-0.5,1.4c-0.1,1-0.1,2-0.1,3c0,1,0,2,0.1,3c0,0.5,0.2,1,0.5,1.4
	c0.4,0.3,0.8,0.5,1.3,0.6c0.9,0.1,1.9,0.1,2.9,0.1h2.7c1,0,1.9,0,2.9-0.1c0.5,0,1-0.2,1.3-0.6c0.3-0.4,0.5-0.9,0.5-1.4
	c0.1-1,0.1-2,0.1-3c0-1,0-2-0.1-3c0-0.5-0.2-1-0.5-1.4c-0.4-0.3-0.8-0.5-1.3-0.6c-0.9-0.1-1.9-0.1-2.9-0.1h-2.7
	C704.9,38.8,703.9,38.9,703,39z M703.1,40.6c-0.1,0-0.3,0.1-0.3,0.2c0,0.1-0.1,0.1-0.1,0.2c0,0.1,0,0.1,0,0.2c0,0.1,0,0.1,0.1,0.2
	c0,0.1,0.1,0.1,0.1,0.2l1.5,1.3c0.5,0.4,1,0.8,1.5,1.2c0.4,0.3,0.9,0.5,1.4,0.5c0.5,0,1-0.2,1.4-0.5c0.5-0.4,1-0.8,1.5-1.2l1.5-1.3
	c0,0,0.1-0.1,0.1-0.2c0-0.1,0-0.1,0.1-0.2c0-0.1,0-0.1,0-0.2c0-0.1-0.1-0.1-0.1-0.2c-0.1-0.1-0.2-0.2-0.3-0.2c-0.1,0-0.3,0-0.4,0.1
	l-1.4,1.2c-0.5,0.4-0.9,0.8-1.4,1.2c-0.2,0.2-0.5,0.3-0.8,0.3c-0.3,0-0.6-0.1-0.8-0.3c-0.5-0.4-1-0.7-1.4-1.2l-1.4-1.2
	C703.4,40.6,703.3,40.6,703.1,40.6z"/>
<path class="st6" d="M737,47.7h-11c-0.1,0-0.2,0-0.3-0.1c-0.1,0-0.2-0.1-0.2-0.2c0-0.1-0.1-0.2-0.1-0.3c0-0.1,0-0.2,0.1-0.3
	c0.5-0.7,1-2.6,1-5c0-1.3,0.5-2.4,1.5-3.3c0.9-0.9,2.2-1.4,3.5-1.4c1.3,0,2.6,0.5,3.5,1.4c0.9,0.9,1.5,2.1,1.5,3.3
	c0,2.3,0.6,4.2,1,5c0,0.1,0.1,0.2,0.1,0.3c0,0.1,0,0.2-0.1,0.3c0,0.1-0.1,0.1-0.2,0.2C737.2,47.7,737.1,47.7,737,47.7z"/>
<path class="st2" d="M737.4,46.9c-0.4-0.6-0.9-2.3-0.9-4.6c0-1.4-0.5-2.6-1.5-3.6s-2.2-1.5-3.6-1.5c-1.3,0-2.6,0.5-3.6,1.5
	s-1.5,2.2-1.5,3.6c0,2.2-0.5,4-0.9,4.6c-0.1,0.2-0.1,0.3-0.1,0.5c0,0.2,0,0.4,0.1,0.5c0.1,0.2,0.2,0.3,0.4,0.4
	c0.2,0.1,0.3,0.1,0.5,0.1h2.6c0.1,0.6,0.4,1.1,0.9,1.5c0.5,0.4,1,0.6,1.6,0.6c0.6,0,1.1-0.2,1.6-0.6c0.5-0.4,0.8-0.9,0.9-1.5h2.6
	c0.2,0,0.4,0,0.5-0.1c0.2-0.1,0.3-0.2,0.4-0.4c0.1-0.2,0.1-0.3,0.1-0.5C737.5,47.3,737.5,47.1,737.4,46.9z M731.4,49.5
	c-0.3,0-0.6-0.1-0.9-0.3c-0.3-0.2-0.4-0.4-0.6-0.7h2.9c-0.1,0.3-0.3,0.6-0.6,0.7C732.1,49.4,731.8,49.5,731.4,49.5z M726.4,47.4
	c0.5-0.8,1-2.8,1-5.1c0-1.1,0.4-2.1,1.2-2.9c0.8-0.8,1.8-1.2,2.9-1.2c1.1,0,2.1,0.4,2.9,1.2c0.8,0.8,1.2,1.8,1.2,2.9
	c0,2.3,0.5,4.2,1,5.1H726.4z"/>
<path class="st7" d="M755.5,39.9L755.5,39.9c1,0,1.9,0,2.6,0.1c0.7,0.1,1.3,0.2,1.8,0.6c0.5,0.3,0.7,0.8,0.9,1.4
	c0.2,0.5,0.3,1.2,0.5,2.1l0,0l0,0c0.2,1.2,0.4,2.2,0.5,2.9c0,0.8-0.1,1.5-0.6,2c-0.5,0.6-1.3,0.8-2.2,0.9c-0.9,0.1-2.1,0.1-3.4,0.1
	h-0.1c-1.3,0-2.4,0-3.2-0.1c-0.8-0.1-1.5-0.3-2-0.9c-0.5-0.6-0.6-1.2-0.6-2c0-0.8,0.2-1.7,0.5-2.9l0-0.1c0.2-0.8,0.3-1.5,0.5-2.1
	c0.2-0.6,0.5-1,0.9-1.4l0,0c0.4-0.3,1-0.5,1.6-0.6C753.7,39.9,754.5,39.9,755.5,39.9z M752.2,41.3L752.2,41.3
	c-0.2,0.2-0.4,0.4-0.6,0.9c-0.2,0.5-0.3,1.1-0.5,2c-0.3,1.3-0.4,2.1-0.5,2.8c0,0.6,0.1,1,0.3,1.3c0.3,0.3,0.6,0.5,1.4,0.6
	c0.7,0.1,1.7,0.1,3.1,0.1c1.4,0,2.5,0,3.4-0.1c0.9-0.1,1.4-0.3,1.6-0.6c0.2-0.3,0.3-0.6,0.3-1.3c0-0.7-0.2-1.5-0.5-2.8
	c-0.2-0.9-0.3-1.5-0.5-2c-0.2-0.4-0.3-0.7-0.6-0.9c-0.2-0.2-0.6-0.3-1.3-0.4c-0.7-0.1-1.5-0.1-2.5-0.1c-1,0-1.7,0-2.2,0.1
	C752.7,41,752.4,41.2,752.2,41.3z"/>
<path class="st6" d="M752.2,41.3L752.2,41.3c0.2-0.2,0.6-0.3,1.1-0.4c0.5-0.1,1.2-0.1,2.2-0.1c1,0,1.8,0,2.5,0.1
	c0.7,0.1,1.1,0.2,1.3,0.4c0.2,0.2,0.4,0.4,0.6,0.9c0.2,0.5,0.3,1.1,0.5,2c0.3,1.3,0.4,2.1,0.5,2.8c0,0.6-0.1,1-0.3,1.3
	c-0.2,0.3-0.7,0.5-1.6,0.6c-0.9,0.1-2,0.1-3.4,0.1c-1.4,0-2.4,0-3.1-0.1c-0.7-0.1-1.1-0.3-1.4-0.6c-0.2-0.3-0.3-0.6-0.3-1.3
	c0-0.7,0.2-1.5,0.5-2.8c0.2-0.9,0.3-1.5,0.5-2C751.8,41.8,751.9,41.5,752.2,41.3z"/>
<path class="st9" d="M753.5,40v-0.6c0-0.4,0.2-0.9,0.6-1.2c0.4-0.3,1-0.5,1.6-0.5c0.6,0,1.1,0.2,1.6,0.5c0.4,0.3,0.6,0.7,0.6,1.2V40
	"/>
</svg>
