<svg width="375" height="282" viewBox="0 0 375 282" fill="none" xmlns="http://www.w3.org/2000/svg">
<g filter="url(#filter0_d_2855_44333)">
<line x1="44.0547" y1="53.4846" x2="330.226" y2="53.4845" stroke="black" stroke-opacity="0.06" stroke-width="0.551389"/>
<line x1="44.0547" y1="83.2595" x2="330.226" y2="83.2594" stroke="black" stroke-opacity="0.06" stroke-width="0.551389"/>
<line x1="44.0547" y1="113.035" x2="330.226" y2="113.035" stroke="black" stroke-opacity="0.06" stroke-width="0.551389"/>
<line x1="44.0547" y1="142.81" x2="330.226" y2="142.81" stroke="black" stroke-opacity="0.06" stroke-width="0.551389"/>
<line x1="44.0547" y1="172.585" x2="330.226" y2="172.585" stroke="black" stroke-opacity="0.06" stroke-width="0.551389"/>
<line x1="44.0547" y1="202.36" x2="330.226" y2="202.36" stroke="black" stroke-opacity="0.06" stroke-width="0.551389"/>
<path d="M51.2227 136.193C51.2227 134.975 52.2101 133.987 53.4282 133.987H60.0449C61.263 133.987 62.2504 134.975 62.2504 136.193V201.257H51.2227V136.193Z" fill="#3AB54B"/>
<path d="M92.0254 136.744C92.0254 135.526 93.0129 134.539 94.2309 134.539H100.848C102.066 134.539 103.053 135.526 103.053 136.744V201.257H92.0254V136.744Z" fill="#3AB54B"/>
<path d="M256.338 136.744C256.338 135.526 257.325 134.539 258.543 134.539H265.16C266.378 134.539 267.366 135.526 267.366 136.744V201.257H256.338V136.744Z" fill="#3AB54B"/>
<path d="M296.59 104.764C296.59 103.546 297.577 102.558 298.795 102.558H305.412C306.63 102.558 307.618 103.546 307.618 104.764V201.257H296.59V104.764Z" fill="#3AB54B"/>
<path d="M133.379 159.351C133.379 158.133 134.366 157.146 135.584 157.146H142.201C143.419 157.146 144.407 158.133 144.407 159.351V201.257H133.379V159.351Z" fill="#3AB54B"/>
<path d="M174.184 152.183C174.184 150.965 175.171 149.978 176.389 149.978H183.006C184.224 149.978 185.211 150.965 185.211 152.183V201.257H174.184V152.183Z" fill="#3AB54B"/>
<path d="M214.984 159.351C214.984 158.133 215.972 157.146 217.19 157.146H223.807C225.025 157.146 226.012 158.133 226.012 159.351V201.257H214.984V159.351Z" fill="#3AB54B"/>
<path d="M66.6602 109.726C66.6602 108.508 67.6476 107.521 68.8657 107.521H75.4824C76.7005 107.521 77.6879 108.508 77.6879 109.726V201.257H66.6602V109.726Z" fill="#AAABAD"/>
<path d="M107.463 94.8389C107.463 93.6208 108.45 92.6333 109.668 92.6333H116.285C117.503 92.6333 118.491 93.6208 118.491 94.8389V201.257H107.463V94.8389Z" fill="#AAABAD"/>
<path d="M271.777 100.904C271.777 99.6857 272.765 98.6982 273.983 98.6982H280.6C281.818 98.6982 282.805 99.6857 282.805 100.904V201.257H271.777V100.904Z" fill="#AAABAD"/>
<path d="M312.029 70.5776C312.029 69.3595 313.017 68.3721 314.235 68.3721H320.852C322.07 68.3721 323.057 69.3595 323.057 70.5776V201.257H312.029V70.5776Z" fill="#AAABAD"/>
<path d="M148.818 164.865C148.818 163.647 149.806 162.66 151.024 162.66H157.641C158.859 162.66 159.846 163.647 159.846 164.865V201.257H148.818V164.865Z" fill="#AAABAD"/>
<path d="M189.621 158.249C189.621 157.03 190.609 156.043 191.827 156.043H198.443C199.661 156.043 200.649 157.03 200.649 158.249V201.257H189.621V158.249Z" fill="#AAABAD"/>
<path d="M230.424 152.183C230.424 150.965 231.411 149.978 232.629 149.978H239.246C240.464 149.978 241.452 150.965 241.452 152.183V201.257H230.424V152.183Z" fill="#AAABAD"/>
<path d="M55.545 212.009H56.4723L58.6528 217.335H58.728L60.9085 212.009H61.8358V218.425H61.109V213.55H61.0464L59.0413 218.425H58.3395L56.3345 213.55H56.2718V218.425H55.545V212.009ZM65.2484 218.525C64.8139 218.525 64.4328 218.422 64.1048 218.215C63.779 218.008 63.5242 217.719 63.3404 217.347C63.1587 216.975 63.0679 216.541 63.0679 216.044C63.0679 215.543 63.1587 215.105 63.3404 214.731C63.5242 214.357 63.779 214.067 64.1048 213.86C64.4328 213.653 64.8139 213.55 65.2484 213.55C65.6828 213.55 66.0629 213.653 66.3887 213.86C66.7166 214.067 66.9714 214.357 67.1531 214.731C67.3369 215.105 67.4288 215.543 67.4288 216.044C67.4288 216.541 67.3369 216.975 67.1531 217.347C66.9714 217.719 66.7166 218.008 66.3887 218.215C66.0629 218.422 65.6828 218.525 65.2484 218.525ZM65.2484 217.861C65.5783 217.861 65.8499 217.776 66.0629 217.607C66.2759 217.438 66.4336 217.216 66.536 216.94C66.6383 216.664 66.6895 216.365 66.6895 216.044C66.6895 215.722 66.6383 215.422 66.536 215.145C66.4336 214.867 66.2759 214.642 66.0629 214.471C65.8499 214.3 65.5783 214.214 65.2484 214.214C64.9184 214.214 64.6468 214.3 64.4338 214.471C64.2208 214.642 64.0631 214.867 63.9607 215.145C63.8584 215.422 63.8072 215.722 63.8072 216.044C63.8072 216.365 63.8584 216.664 63.9607 216.94C64.0631 217.216 64.2208 217.438 64.4338 217.607C64.6468 217.776 64.9184 217.861 65.2484 217.861ZM69.2968 215.53V218.425H68.5575V213.613H69.2718V214.365H69.3344C69.4472 214.12 69.6185 213.924 69.8482 213.776C70.078 213.625 70.3745 213.55 70.738 213.55C71.0638 213.55 71.3489 213.617 71.5932 213.751C71.8376 213.882 72.0277 214.083 72.1634 214.352C72.2992 214.619 72.3671 214.958 72.3671 215.367V218.425H71.6277V215.417C71.6277 215.039 71.5295 214.745 71.3332 214.534C71.1369 214.321 70.8675 214.214 70.5249 214.214C70.2889 214.214 70.078 214.265 69.8921 214.368C69.7083 214.47 69.5631 214.619 69.4566 214.816C69.3501 215.012 69.2968 215.25 69.2968 215.53Z" fill="#7F7F7F"/>
<path d="M97.5002 212.698V212.009H102.312V212.698H100.295V218.425H99.5178V212.698H97.5002ZM105.789 216.457V213.613H106.528V218.425H105.789V217.61H105.739C105.626 217.855 105.451 218.062 105.213 218.234C104.975 218.403 104.674 218.487 104.31 218.487C104.01 218.487 103.742 218.422 103.508 218.29C103.274 218.156 103.091 217.956 102.957 217.689C102.823 217.419 102.756 217.08 102.756 216.67V213.613H103.496V216.62C103.496 216.971 103.594 217.251 103.79 217.46C103.989 217.669 104.241 217.773 104.548 217.773C104.732 217.773 104.919 217.726 105.109 217.632C105.301 217.538 105.462 217.394 105.592 217.2C105.723 217.006 105.789 216.758 105.789 216.457ZM109.9 218.525C109.437 218.525 109.037 218.423 108.7 218.218C108.366 218.011 108.108 217.723 107.927 217.353C107.747 216.982 107.657 216.549 107.657 216.056C107.657 215.563 107.747 215.129 107.927 214.753C108.108 214.375 108.361 214.081 108.685 213.87C109.01 213.657 109.391 213.55 109.825 213.55C110.076 213.55 110.323 213.592 110.568 213.675C110.812 213.759 111.034 213.895 111.235 214.083C111.435 214.269 111.595 214.515 111.714 214.822C111.833 215.129 111.893 215.507 111.893 215.956V216.269H108.183V215.63H111.141C111.141 215.359 111.087 215.116 110.978 214.903C110.871 214.69 110.719 214.522 110.521 214.399C110.324 214.276 110.092 214.214 109.825 214.214C109.531 214.214 109.276 214.287 109.061 214.434C108.848 214.578 108.684 214.766 108.569 214.997C108.454 215.229 108.396 215.478 108.396 215.743V216.169C108.396 216.533 108.459 216.841 108.584 217.093C108.712 217.344 108.888 217.535 109.114 217.667C109.339 217.796 109.602 217.861 109.9 217.861C110.094 217.861 110.27 217.834 110.427 217.779C110.585 217.723 110.722 217.639 110.837 217.529C110.952 217.416 111.041 217.276 111.103 217.109L111.818 217.309C111.742 217.552 111.616 217.765 111.438 217.949C111.261 218.13 111.042 218.272 110.781 218.375C110.52 218.475 110.226 218.525 109.9 218.525Z" fill="#7F7F7F"/>
<path d="M138.182 218.425L136.428 212.009H137.217L138.558 217.234H138.621L139.987 212.009H140.864L142.23 217.234H142.293L143.634 212.009H144.423L142.669 218.425H141.867L140.451 213.312H140.4L138.984 218.425H138.182ZM146.86 218.525C146.397 218.525 145.997 218.423 145.661 218.218C145.326 218.011 145.068 217.723 144.887 217.353C144.707 216.982 144.617 216.549 144.617 216.056C144.617 215.563 144.707 215.129 144.887 214.753C145.068 214.375 145.321 214.081 145.645 213.87C145.971 213.657 146.351 213.55 146.785 213.55C147.036 213.55 147.283 213.592 147.528 213.675C147.772 213.759 147.995 213.895 148.195 214.083C148.396 214.269 148.555 214.515 148.674 214.822C148.793 215.129 148.853 215.507 148.853 215.956V216.269H145.144V215.63H148.101C148.101 215.359 148.047 215.116 147.938 214.903C147.832 214.69 147.679 214.522 147.481 214.399C147.284 214.276 147.053 214.214 146.785 214.214C146.491 214.214 146.236 214.287 146.021 214.434C145.808 214.578 145.644 214.766 145.529 214.997C145.414 215.229 145.357 215.478 145.357 215.743V216.169C145.357 216.533 145.419 216.841 145.545 217.093C145.672 217.344 145.849 217.535 146.074 217.667C146.3 217.796 146.562 217.861 146.86 217.861C147.055 217.861 147.23 217.834 147.387 217.779C147.546 217.723 147.682 217.639 147.797 217.529C147.912 217.416 148.001 217.276 148.064 217.109L148.778 217.309C148.703 217.552 148.576 217.765 148.399 217.949C148.221 218.13 148.002 218.272 147.741 218.375C147.48 218.475 147.186 218.525 146.86 218.525ZM151.795 218.525C151.394 218.525 151.04 218.424 150.733 218.221C150.426 218.016 150.186 217.728 150.012 217.356C149.839 216.983 149.752 216.541 149.752 216.031C149.752 215.526 149.839 215.087 150.012 214.715C150.186 214.344 150.427 214.057 150.736 213.854C151.045 213.651 151.402 213.55 151.807 213.55C152.121 213.55 152.368 213.602 152.55 213.707C152.734 213.809 152.874 213.926 152.97 214.058C153.068 214.187 153.144 214.294 153.198 214.377H153.261V212.009H154V218.425H153.286V217.685H153.198C153.144 217.773 153.067 217.884 152.966 218.018C152.866 218.149 152.723 218.267 152.537 218.372C152.351 218.474 152.104 218.525 151.795 218.525ZM151.895 217.861C152.192 217.861 152.442 217.784 152.647 217.629C152.852 217.472 153.007 217.256 153.114 216.981C153.22 216.703 153.274 216.382 153.274 216.019C153.274 215.66 153.221 215.345 153.117 215.076C153.012 214.804 152.858 214.593 152.653 214.443C152.449 214.29 152.196 214.214 151.895 214.214C151.582 214.214 151.321 214.295 151.112 214.455C150.905 214.614 150.749 214.83 150.645 215.104C150.543 215.375 150.491 215.68 150.491 216.019C150.491 216.361 150.544 216.672 150.648 216.952C150.755 217.23 150.911 217.452 151.118 217.617C151.327 217.779 151.586 217.861 151.895 217.861Z" fill="#7F7F7F"/>
<path d="M178.74 212.698V212.009H183.552V212.698H181.534V218.425H180.757V212.698H178.74ZM185.39 215.53V218.425H184.651V212.009H185.39V214.365H185.453C185.565 214.116 185.735 213.919 185.96 213.772C186.188 213.624 186.491 213.55 186.869 213.55C187.197 213.55 187.484 213.616 187.73 213.747C187.977 213.877 188.168 214.076 188.303 214.346C188.441 214.613 188.51 214.954 188.51 215.367V218.425H187.771V215.417C187.771 215.035 187.672 214.739 187.473 214.531C187.277 214.32 187.004 214.214 186.656 214.214C186.413 214.214 186.196 214.265 186.004 214.368C185.814 214.47 185.664 214.619 185.553 214.816C185.444 215.012 185.39 215.25 185.39 215.53ZM192.896 216.457V213.613H193.635V218.425H192.896V217.61H192.845C192.733 217.855 192.557 218.062 192.319 218.234C192.081 218.403 191.78 218.487 191.417 218.487C191.116 218.487 190.849 218.422 190.615 218.29C190.381 218.156 190.197 217.956 190.063 217.689C189.93 217.419 189.863 217.08 189.863 216.67V213.613H190.602V216.62C190.602 216.971 190.7 217.251 190.897 217.46C191.095 217.669 191.348 217.773 191.655 217.773C191.839 217.773 192.026 217.726 192.216 217.632C192.408 217.538 192.569 217.394 192.698 217.2C192.83 217.006 192.896 216.758 192.896 216.457Z" fill="#232323"/>
<path d="M222.642 218.425V212.009H226.489V212.698H223.418V214.866H226.2V215.555H223.418V218.425H222.642ZM227.667 218.425V213.613H228.382V214.34H228.432C228.52 214.101 228.678 213.908 228.908 213.76C229.138 213.612 229.397 213.537 229.685 213.537C229.739 213.537 229.807 213.539 229.889 213.541C229.97 213.543 230.032 213.546 230.074 213.55V214.302C230.048 214.296 229.991 214.286 229.901 214.274C229.813 214.259 229.721 214.252 229.622 214.252C229.388 214.252 229.18 214.301 228.996 214.399C228.814 214.495 228.67 214.629 228.563 214.8C228.459 214.969 228.407 215.162 228.407 215.38V218.425H227.667ZM230.95 218.425V213.613H231.689V218.425H230.95ZM231.326 212.811C231.182 212.811 231.057 212.762 230.953 212.663C230.851 212.565 230.8 212.447 230.8 212.309C230.8 212.172 230.851 212.054 230.953 211.955C231.057 211.857 231.182 211.808 231.326 211.808C231.47 211.808 231.593 211.857 231.696 211.955C231.8 212.054 231.852 212.172 231.852 212.309C231.852 212.447 231.8 212.565 231.696 212.663C231.593 212.762 231.47 212.811 231.326 212.811Z" fill="#7F7F7F"/>
<path d="M265.049 213.613C265.011 213.295 264.859 213.049 264.592 212.873C264.324 212.698 263.996 212.61 263.608 212.61C263.324 212.61 263.075 212.656 262.862 212.748C262.651 212.84 262.486 212.966 262.367 213.127C262.25 213.288 262.192 213.471 262.192 213.675C262.192 213.847 262.233 213.994 262.314 214.117C262.398 214.238 262.504 214.34 262.634 214.421C262.763 214.5 262.899 214.566 263.041 214.618C263.183 214.668 263.313 214.709 263.432 214.741L264.084 214.916C264.251 214.96 264.437 215.02 264.642 215.098C264.849 215.175 265.046 215.28 265.234 215.414C265.424 215.546 265.581 215.715 265.704 215.922C265.827 216.128 265.889 216.382 265.889 216.683C265.889 217.03 265.798 217.343 265.616 217.623C265.437 217.903 265.173 218.125 264.827 218.29C264.482 218.455 264.063 218.538 263.57 218.538C263.111 218.538 262.713 218.463 262.377 218.315C262.043 218.167 261.779 217.96 261.587 217.695C261.397 217.43 261.29 217.122 261.265 216.771H262.067C262.087 217.013 262.169 217.213 262.311 217.372C262.455 217.529 262.637 217.646 262.856 217.723C263.077 217.798 263.316 217.836 263.57 217.836C263.867 217.836 264.133 217.788 264.369 217.692C264.605 217.594 264.792 217.458 264.93 217.284C265.068 217.109 265.137 216.904 265.137 216.67C265.137 216.457 265.077 216.284 264.958 216.15C264.839 216.017 264.683 215.908 264.488 215.825C264.294 215.741 264.084 215.668 263.859 215.605L263.069 215.38C262.568 215.236 262.171 215.03 261.879 214.762C261.586 214.495 261.44 214.145 261.44 213.713C261.44 213.354 261.537 213.04 261.731 212.773C261.928 212.504 262.191 212.295 262.521 212.146C262.853 211.996 263.224 211.921 263.633 211.921C264.047 211.921 264.414 211.995 264.736 212.143C265.057 212.29 265.312 212.49 265.5 212.745C265.69 213 265.791 213.289 265.801 213.613H265.049ZM268.883 218.525C268.482 218.525 268.128 218.424 267.821 218.221C267.514 218.016 267.274 217.728 267.1 217.356C266.927 216.983 266.84 216.541 266.84 216.031C266.84 215.526 266.927 215.087 267.1 214.715C267.274 214.344 267.515 214.057 267.824 213.854C268.133 213.651 268.49 213.55 268.895 213.55C269.209 213.55 269.456 213.602 269.638 213.707C269.822 213.809 269.962 213.926 270.058 214.058C270.156 214.187 270.232 214.294 270.286 214.377H270.349V213.613H271.088V218.425H270.374V217.685H270.286C270.232 217.773 270.155 217.884 270.055 218.018C269.954 218.149 269.811 218.267 269.625 218.372C269.44 218.474 269.192 218.525 268.883 218.525ZM268.983 217.861C269.28 217.861 269.53 217.784 269.735 217.629C269.94 217.472 270.095 217.256 270.202 216.981C270.308 216.703 270.362 216.382 270.362 216.019C270.362 215.66 270.309 215.345 270.205 215.076C270.101 214.804 269.946 214.593 269.741 214.443C269.537 214.29 269.284 214.214 268.983 214.214C268.67 214.214 268.409 214.295 268.2 214.455C267.993 214.614 267.838 214.83 267.733 215.104C267.631 215.375 267.58 215.68 267.58 216.019C267.58 216.361 267.632 216.672 267.736 216.952C267.843 217.23 267.999 217.452 268.206 217.617C268.415 217.779 268.674 217.861 268.983 217.861ZM274.638 213.613V214.239H272.144V213.613H274.638ZM272.871 212.46H273.61V217.046C273.61 217.255 273.641 217.412 273.701 217.516C273.764 217.619 273.843 217.688 273.939 217.723C274.038 217.756 274.141 217.773 274.25 217.773C274.331 217.773 274.398 217.769 274.45 217.761C274.502 217.75 274.544 217.742 274.575 217.736L274.726 218.4C274.676 218.419 274.606 218.437 274.516 218.456C274.426 218.477 274.312 218.487 274.174 218.487C273.966 218.487 273.761 218.443 273.56 218.353C273.362 218.263 273.197 218.126 273.065 217.942C272.936 217.759 272.871 217.527 272.871 217.247V212.46Z" fill="#7F7F7F"/>
<path d="M305.051 213.613C305.013 213.295 304.861 213.049 304.593 212.873C304.326 212.698 303.998 212.61 303.609 212.61C303.325 212.61 303.077 212.656 302.864 212.748C302.653 212.84 302.488 212.966 302.369 213.127C302.252 213.288 302.193 213.471 302.193 213.675C302.193 213.847 302.234 213.994 302.316 214.117C302.399 214.238 302.506 214.34 302.635 214.421C302.765 214.5 302.9 214.566 303.042 214.618C303.184 214.668 303.315 214.709 303.434 214.741L304.086 214.916C304.253 214.96 304.439 215.02 304.643 215.098C304.85 215.175 305.047 215.28 305.235 215.414C305.425 215.546 305.582 215.715 305.705 215.922C305.829 216.128 305.89 216.382 305.89 216.683C305.89 217.03 305.799 217.343 305.618 217.623C305.438 217.903 305.175 218.125 304.828 218.29C304.484 218.455 304.065 218.538 303.572 218.538C303.112 218.538 302.714 218.463 302.378 218.315C302.044 218.167 301.781 217.96 301.589 217.695C301.399 217.43 301.291 217.122 301.266 216.771H302.068C302.089 217.013 302.17 217.213 302.312 217.372C302.457 217.529 302.638 217.646 302.858 217.723C303.079 217.798 303.317 217.836 303.572 217.836C303.868 217.836 304.135 217.788 304.371 217.692C304.607 217.594 304.794 217.458 304.932 217.284C305.069 217.109 305.138 216.904 305.138 216.67C305.138 216.457 305.079 216.284 304.96 216.15C304.841 216.017 304.684 215.908 304.49 215.825C304.296 215.741 304.086 215.668 303.86 215.605L303.071 215.38C302.569 215.236 302.172 215.03 301.88 214.762C301.588 214.495 301.441 214.145 301.441 213.713C301.441 213.354 301.539 213.04 301.733 212.773C301.929 212.504 302.192 212.295 302.522 212.146C302.854 211.996 303.225 211.921 303.634 211.921C304.048 211.921 304.416 211.995 304.737 212.143C305.059 212.29 305.314 212.49 305.502 212.745C305.692 213 305.792 213.289 305.802 213.613H305.051ZM310.1 216.457V213.613H310.839V218.425H310.1V217.61H310.05C309.937 217.855 309.762 218.062 309.524 218.234C309.285 218.403 308.985 218.487 308.621 218.487C308.321 218.487 308.053 218.422 307.819 218.29C307.585 218.156 307.402 217.956 307.268 217.689C307.134 217.419 307.067 217.08 307.067 216.67V213.613H307.807V216.62C307.807 216.971 307.905 217.251 308.101 217.46C308.3 217.669 308.552 217.773 308.859 217.773C309.043 217.773 309.23 217.726 309.42 217.632C309.612 217.538 309.773 217.394 309.903 217.2C310.034 217.006 310.1 216.758 310.1 216.457ZM312.933 215.53V218.425H312.194V213.613H312.908V214.365H312.971C313.083 214.12 313.255 213.924 313.484 213.776C313.714 213.625 314.011 213.55 314.374 213.55C314.7 213.55 314.985 213.617 315.229 213.751C315.474 213.882 315.664 214.083 315.8 214.352C315.935 214.619 316.003 214.958 316.003 215.367V218.425H315.264V215.417C315.264 215.039 315.166 214.745 314.969 214.534C314.773 214.321 314.504 214.214 314.161 214.214C313.925 214.214 313.714 214.265 313.528 214.368C313.344 214.47 313.199 214.619 313.093 214.816C312.986 215.012 312.933 215.25 312.933 215.53Z" fill="#7F7F7F"/>
<g filter="url(#filter1_b_2855_44333)">
<rect x="157.254" y="73.2222" width="60.8778" height="47.6444" rx="11.0278" fill="#363636"/>
<rect x="157.53" y="73.4979" width="60.3264" height="47.0931" rx="10.7521" stroke="black" stroke-opacity="0.1" stroke-width="0.551389"/>
<path d="M180.508 87.2323C180.47 86.9148 180.318 86.6684 180.05 86.4929C179.783 86.3175 179.455 86.2298 179.067 86.2298C178.783 86.2298 178.534 86.2757 178.321 86.3676C178.11 86.4595 177.945 86.5859 177.826 86.7467C177.709 86.9075 177.65 87.0903 177.65 87.295C177.65 87.4662 177.691 87.6135 177.773 87.7367C177.856 87.8578 177.963 87.9591 178.092 88.0406C178.222 88.12 178.357 88.1858 178.499 88.238C178.642 88.2881 178.772 88.3288 178.891 88.3602L179.543 88.5356C179.71 88.5795 179.896 88.64 180.1 88.7173C180.307 88.7946 180.505 88.9001 180.693 89.0337C180.883 89.1653 181.039 89.3345 181.162 89.5413C181.286 89.748 181.347 90.0018 181.347 90.3025C181.347 90.6493 181.256 90.9625 181.075 91.2424C180.895 91.5223 180.632 91.7447 180.285 91.9097C179.941 92.0747 179.522 92.1572 179.029 92.1572C178.569 92.1572 178.172 92.0831 177.835 91.9348C177.501 91.7865 177.238 91.5797 177.046 91.3145C176.856 91.0492 176.748 90.7412 176.723 90.3903H177.525C177.546 90.6325 177.628 90.833 177.77 90.9918C177.914 91.1484 178.095 91.2654 178.315 91.3427C178.536 91.4179 178.774 91.4554 179.029 91.4554C179.326 91.4554 179.592 91.4074 179.828 91.3113C180.064 91.2132 180.251 91.0774 180.389 90.9041C180.526 90.7286 180.595 90.5239 180.595 90.29C180.595 90.077 180.536 89.9036 180.417 89.77C180.298 89.6363 180.141 89.5277 179.947 89.4441C179.753 89.3606 179.543 89.2875 179.317 89.2248L178.528 88.9993C178.026 88.8551 177.63 88.6494 177.337 88.3821C177.045 88.1147 176.899 87.7649 176.899 87.3326C176.899 86.9733 176.996 86.66 177.19 86.3927C177.386 86.1233 177.649 85.9144 177.979 85.7661C178.312 85.6157 178.682 85.5406 179.092 85.5406C179.505 85.5406 179.873 85.6147 180.194 85.763C180.516 85.9092 180.771 86.1097 180.959 86.3645C181.149 86.6193 181.249 86.9086 181.26 87.2323H180.508ZM184.342 92.1447C183.941 92.1447 183.587 92.0434 183.28 91.8408C182.972 91.6361 182.732 91.3479 182.559 90.9761C182.386 90.6023 182.299 90.1605 182.299 89.6509C182.299 89.1455 182.386 88.7069 182.559 88.3351C182.732 87.9633 182.974 87.6761 183.283 87.4735C183.592 87.271 183.949 87.1697 184.354 87.1697C184.667 87.1697 184.915 87.2219 185.097 87.3263C185.28 87.4286 185.42 87.5456 185.516 87.6772C185.615 87.8067 185.691 87.9132 185.745 87.9967H185.808V87.2323H186.547V92.0444H185.833V91.3051H185.745C185.691 91.3928 185.614 91.5035 185.513 91.6372C185.413 91.7687 185.27 91.8867 185.084 91.9912C184.898 92.0935 184.651 92.1447 184.342 92.1447ZM184.442 91.4805C184.738 91.4805 184.989 91.4032 185.194 91.2487C185.398 91.092 185.554 90.8759 185.661 90.6002C185.767 90.3224 185.82 90.0018 185.82 89.6384C185.82 89.2791 185.768 88.9648 185.664 88.6954C185.559 88.4239 185.405 88.2129 185.2 88.0625C184.995 87.9101 184.743 87.8338 184.442 87.8338C184.129 87.8338 183.867 87.9142 183.659 88.0751C183.452 88.2338 183.296 88.45 183.192 88.7236C183.089 88.9951 183.038 89.3 183.038 89.6384C183.038 89.9809 183.09 90.2921 183.195 90.572C183.301 90.8498 183.458 91.0711 183.665 91.2361C183.874 91.3991 184.133 91.4805 184.442 91.4805ZM188.743 85.6283V92.0444H188.004V85.6283H188.743ZM192.115 92.1447C191.651 92.1447 191.251 92.0423 190.915 91.8377C190.581 91.6309 190.323 91.3427 190.141 90.973C189.962 90.6012 189.872 90.1689 189.872 89.676C189.872 89.1831 189.962 88.7486 190.141 88.3727C190.323 87.9946 190.576 87.7002 190.899 87.4892C191.225 87.2762 191.605 87.1697 192.04 87.1697C192.29 87.1697 192.538 87.2114 192.782 87.295C193.027 87.3785 193.249 87.5143 193.45 87.7022C193.65 87.8881 193.81 88.1346 193.929 88.4416C194.048 88.7486 194.108 89.1267 194.108 89.5757V89.889H190.398V89.2499H193.356C193.356 88.9784 193.301 88.7361 193.193 88.5231C193.086 88.31 192.934 88.1419 192.735 88.0187C192.539 87.8954 192.307 87.8338 192.04 87.8338C191.745 87.8338 191.491 87.9069 191.275 88.0531C191.062 88.1972 190.898 88.3852 190.784 88.617C190.669 88.8489 190.611 89.0974 190.611 89.3627V89.7888C190.611 90.1522 190.674 90.4602 190.799 90.713C190.927 90.9636 191.103 91.1547 191.329 91.2863C191.554 91.4158 191.816 91.4805 192.115 91.4805C192.309 91.4805 192.485 91.4534 192.641 91.3991C192.8 91.3427 192.937 91.2591 193.052 91.1484C193.167 91.0356 193.255 90.8957 193.318 90.7286L194.032 90.9291C193.957 91.1714 193.831 91.3844 193.653 91.5682C193.476 91.7499 193.256 91.892 192.995 91.9943C192.734 92.0946 192.441 92.1447 192.115 92.1447ZM198.641 88.31L197.977 88.498C197.935 88.3873 197.873 88.2797 197.792 88.1753C197.712 88.0688 197.604 87.9811 197.466 87.9121C197.328 87.8432 197.152 87.8088 196.937 87.8088C196.642 87.8088 196.397 87.8766 196.2 88.0124C196.006 88.1461 195.909 88.3163 195.909 88.5231C195.909 88.7069 195.976 88.852 196.109 88.9585C196.243 89.0651 196.452 89.1538 196.736 89.2248L197.45 89.4003C197.881 89.5047 198.201 89.6645 198.412 89.8796C198.623 90.0926 198.729 90.3673 198.729 90.7036C198.729 90.9793 198.649 91.2257 198.49 91.4429C198.334 91.6601 198.115 91.8314 197.833 91.9567C197.551 92.082 197.223 92.1447 196.849 92.1447C196.358 92.1447 195.952 92.0382 195.63 91.8251C195.309 91.6121 195.105 91.3009 195.019 90.8915L195.721 90.7161C195.788 90.9751 195.914 91.1693 196.1 91.2988C196.288 91.4283 196.533 91.493 196.836 91.493C197.181 91.493 197.455 91.4199 197.657 91.2737C197.862 91.1255 197.964 90.9479 197.964 90.7412C197.964 90.5741 197.906 90.4341 197.789 90.3213C197.672 90.2065 197.492 90.1208 197.25 90.0644L196.448 89.8765C196.007 89.772 195.683 89.6102 195.477 89.3909C195.272 89.1695 195.17 88.8927 195.17 88.5607C195.17 88.2891 195.246 88.049 195.398 87.8401C195.553 87.6312 195.763 87.4673 196.028 87.3482C196.295 87.2292 196.598 87.1697 196.937 87.1697C197.413 87.1697 197.787 87.2741 198.058 87.4829C198.332 87.6918 198.526 87.9675 198.641 88.31Z" fill="#E9E9E9"/>
<path d="M173.737 108.044V107.34L176.385 104.442C176.695 104.102 176.951 103.807 177.152 103.557C177.353 103.303 177.502 103.066 177.599 102.844C177.698 102.619 177.747 102.384 177.747 102.139C177.747 101.857 177.68 101.613 177.544 101.407C177.411 101.2 177.228 101.041 176.996 100.929C176.763 100.817 176.502 100.76 176.212 100.76C175.904 100.76 175.635 100.824 175.406 100.952C175.178 101.078 175.002 101.254 174.877 101.481C174.754 101.708 174.693 101.974 174.693 102.28H173.769C173.769 101.81 173.877 101.397 174.094 101.042C174.31 100.687 174.605 100.411 174.979 100.212C175.355 100.014 175.776 99.9146 176.244 99.9146C176.714 99.9146 177.13 100.014 177.493 100.212C177.856 100.411 178.14 100.678 178.347 101.015C178.553 101.352 178.656 101.726 178.656 102.139C178.656 102.434 178.602 102.722 178.495 103.004C178.391 103.284 178.208 103.596 177.947 103.94C177.689 104.282 177.33 104.7 176.87 105.194L175.069 107.12V107.183H178.797V108.044H173.737ZM181.808 106.948L181.746 107.371C181.701 107.668 181.633 107.987 181.542 108.326C181.453 108.666 181.361 108.986 181.264 109.286C181.167 109.586 181.088 109.825 181.025 110.002H180.32C180.354 109.835 180.399 109.615 180.453 109.341C180.508 109.067 180.563 108.76 180.618 108.42C180.675 108.084 180.722 107.739 180.759 107.387L180.806 106.948H181.808ZM183.317 105.507C183.322 105.256 183.36 104.996 183.431 104.727C183.501 104.459 183.62 104.16 183.787 103.831C183.954 103.502 184.184 103.121 184.476 102.687L186.278 100.024H187.343L185.228 103.11C185.322 103.079 185.419 103.053 185.518 103.032C185.62 103.011 185.722 103 185.823 103C186.309 103 186.742 103.113 187.124 103.337C187.507 103.562 187.809 103.869 188.028 104.258C188.25 104.647 188.361 105.089 188.361 105.585C188.361 106.081 188.251 106.522 188.032 106.909C187.815 107.295 187.516 107.599 187.135 107.821C186.757 108.043 186.325 108.154 185.839 108.154C185.348 108.154 184.912 108.041 184.531 107.813C184.15 107.584 183.851 107.27 183.634 106.874C183.418 106.474 183.312 106.018 183.317 105.507ZM184.241 105.569C184.241 105.909 184.309 106.209 184.445 106.47C184.581 106.731 184.769 106.936 185.009 107.085C185.249 107.234 185.526 107.308 185.839 107.308C186.152 107.308 186.429 107.235 186.669 107.089C186.909 106.94 187.097 106.736 187.233 106.478C187.369 106.217 187.437 105.919 187.437 105.585C187.437 105.246 187.369 104.947 187.233 104.688C187.097 104.43 186.909 104.228 186.669 104.081C186.429 103.935 186.152 103.862 185.839 103.862C185.526 103.862 185.249 103.935 185.009 104.081C184.769 104.225 184.581 104.426 184.445 104.684C184.309 104.94 184.241 105.235 184.241 105.569ZM192.406 108.154C191.869 108.154 191.393 108.059 190.981 107.868C190.571 107.675 190.251 107.41 190.021 107.073C189.792 106.734 189.678 106.347 189.681 105.914C189.678 105.575 189.745 105.261 189.881 104.974C190.016 104.684 190.202 104.443 190.437 104.25C190.674 104.054 190.939 103.93 191.232 103.878V103.831C190.848 103.731 190.542 103.516 190.315 103.185C190.088 102.85 189.976 102.47 189.978 102.045C189.976 101.638 190.079 101.273 190.288 100.952C190.497 100.631 190.784 100.378 191.149 100.193C191.517 100.007 191.936 99.9146 192.406 99.9146C192.871 99.9146 193.286 100.007 193.652 100.193C194.017 100.378 194.304 100.631 194.513 100.952C194.725 101.273 194.832 101.638 194.834 102.045C194.832 102.47 194.716 102.85 194.486 103.185C194.259 103.516 193.957 103.731 193.581 103.831V103.878C193.871 103.93 194.132 104.054 194.364 104.25C194.597 104.443 194.782 104.684 194.921 104.974C195.059 105.261 195.129 105.575 195.132 105.914C195.129 106.347 195.012 106.734 194.78 107.073C194.55 107.41 194.23 107.675 193.82 107.868C193.413 108.059 192.942 108.154 192.406 108.154ZM192.406 107.293C192.769 107.293 193.083 107.234 193.346 107.116C193.61 106.999 193.814 106.833 193.957 106.619C194.101 106.405 194.174 106.154 194.176 105.867C194.174 105.564 194.096 105.297 193.942 105.064C193.787 104.832 193.577 104.649 193.311 104.516C193.047 104.383 192.746 104.316 192.406 104.316C192.064 104.316 191.759 104.383 191.49 104.516C191.224 104.649 191.014 104.832 190.86 105.064C190.708 105.297 190.634 105.564 190.636 105.867C190.634 106.154 190.703 106.405 190.844 106.619C190.987 106.833 191.192 106.999 191.459 107.116C191.725 107.234 192.041 107.293 192.406 107.293ZM192.406 103.486C192.694 103.486 192.948 103.429 193.17 103.314C193.395 103.199 193.571 103.038 193.699 102.832C193.827 102.626 193.892 102.384 193.895 102.108C193.892 101.836 193.828 101.6 193.703 101.399C193.577 101.195 193.404 101.039 193.182 100.929C192.96 100.817 192.701 100.76 192.406 100.76C192.106 100.76 191.844 100.817 191.619 100.929C191.395 101.039 191.221 101.195 191.098 101.399C190.976 101.6 190.916 101.836 190.918 102.108C190.916 102.384 190.977 102.626 191.102 102.832C191.23 103.038 191.406 103.199 191.631 103.314C191.856 103.429 192.114 103.486 192.406 103.486ZM196.633 108.044V107.34L199.28 104.442C199.591 104.102 199.847 103.807 200.048 103.557C200.249 103.303 200.398 103.066 200.494 102.844C200.593 102.619 200.643 102.384 200.643 102.139C200.643 101.857 200.575 101.613 200.439 101.407C200.306 101.2 200.123 101.041 199.891 100.929C199.659 100.817 199.398 100.76 199.108 100.76C198.8 100.76 198.531 100.824 198.301 100.952C198.074 101.078 197.898 101.254 197.772 101.481C197.65 101.708 197.588 101.974 197.588 102.28H196.664C196.664 101.81 196.773 101.397 196.989 101.042C197.206 100.687 197.501 100.411 197.874 100.212C198.25 100.014 198.672 99.9146 199.139 99.9146C199.609 99.9146 200.026 100.014 200.388 100.212C200.751 100.411 201.036 100.678 201.242 101.015C201.448 101.352 201.552 101.726 201.552 102.139C201.552 102.434 201.498 102.722 201.391 103.004C201.287 103.284 201.104 103.596 200.843 103.94C200.584 104.282 200.225 104.7 199.766 105.194L197.964 107.12V107.183H201.692V108.044H196.633Z" fill="white"/>
</g>
<g filter="url(#filter2_d_2855_44333)">
<circle cx="3.30833" cy="3.30833" r="4.88712" transform="matrix(-1 0 0 1 191 128.586)" fill="#AAABAD" stroke="white" stroke-width="3.15758"/>
</g>
</g>
<defs>
<filter id="filter0_d_2855_44333" x="-22" y="-28" width="418.281" height="325.097" filterUnits="userSpaceOnUse" color-interpolation-filters="sRGB">
<feFlood flood-opacity="0" result="BackgroundImageFix"/>
<feColorMatrix in="SourceAlpha" type="matrix" values="0 0 0 0 0 0 0 0 0 0 0 0 0 0 0 0 0 0 127 0" result="hardAlpha"/>
<feMorphology radius="4" operator="erode" in="SourceAlpha" result="effect1_dropShadow_2855_44333"/>
<feOffset dy="16"/>
<feGaussianBlur stdDeviation="24"/>
<feComposite in2="hardAlpha" operator="out"/>
<feColorMatrix type="matrix" values="0 0 0 0 0.0643891 0 0 0 0 0.0643891 0 0 0 0 0.19401 0 0 0 0.06 0"/>
<feBlend mode="normal" in2="BackgroundImageFix" result="effect1_dropShadow_2855_44333"/>
<feBlend mode="normal" in="SourceGraphic" in2="effect1_dropShadow_2855_44333" result="shape"/>
</filter>
<filter id="filter1_b_2855_44333" x="135.198" y="51.1666" width="104.988" height="91.7556" filterUnits="userSpaceOnUse" color-interpolation-filters="sRGB">
<feFlood flood-opacity="0" result="BackgroundImageFix"/>
<feGaussianBlur in="BackgroundImageFix" stdDeviation="11.0278"/>
<feComposite in2="SourceAlpha" operator="in" result="effect1_backgroundBlur_2855_44333"/>
<feBlend mode="normal" in="SourceGraphic" in2="effect1_backgroundBlur_2855_44333" result="shape"/>
</filter>
<filter id="filter2_d_2855_44333" x="178.971" y="125.278" width="17.4425" height="17.4435" filterUnits="userSpaceOnUse" color-interpolation-filters="sRGB">
<feFlood flood-opacity="0" result="BackgroundImageFix"/>
<feColorMatrix in="SourceAlpha" type="matrix" values="0 0 0 0 0 0 0 0 0 0 0 0 0 0 0 0 0 0 127 0" result="hardAlpha"/>
<feOffset dy="2.10505"/>
<feGaussianBlur stdDeviation="1.05253"/>
<feComposite in2="hardAlpha" operator="out"/>
<feColorMatrix type="matrix" values="0 0 0 0 0 0 0 0 0 0 0 0 0 0 0 0 0 0 0.1 0"/>
<feBlend mode="normal" in2="BackgroundImageFix" result="effect1_dropShadow_2855_44333"/>
<feBlend mode="normal" in="SourceGraphic" in2="effect1_dropShadow_2855_44333" result="shape"/>
</filter>
</defs>
</svg>
