<svg width="367" height="266" viewBox="0 0 367 266" fill="none" xmlns="http://www.w3.org/2000/svg">
<g filter="url(#filter0_d_2499_7527)">
<line x1="38.5254" y1="53.9348" x2="324.696" y2="53.9347" stroke="white" stroke-opacity="0.06" stroke-width="0.551389"/>
<line x1="38.5254" y1="83.7097" x2="324.696" y2="83.7096" stroke="white" stroke-opacity="0.06" stroke-width="0.551389"/>
<line x1="38.5254" y1="113.485" x2="324.696" y2="113.485" stroke="white" stroke-opacity="0.06" stroke-width="0.551389"/>
<line x1="38.5254" y1="143.26" x2="324.696" y2="143.26" stroke="white" stroke-opacity="0.06" stroke-width="0.551389"/>
<line x1="38.5254" y1="173.035" x2="324.696" y2="173.035" stroke="white" stroke-opacity="0.06" stroke-width="0.551389"/>
<line x1="38.5254" y1="202.81" x2="324.696" y2="202.81" stroke="white" stroke-opacity="0.06" stroke-width="0.551389"/>
<path d="M45.6934 136.643C45.6934 135.425 46.6808 134.438 47.8989 134.438H54.5156C55.7337 134.438 56.7211 135.425 56.7211 136.643V201.707H45.6934V136.643Z" fill="#3AB54B"/>
<path d="M86.4961 137.194C86.4961 135.976 87.4836 134.989 88.7016 134.989H95.3183C96.5364 134.989 97.5239 135.976 97.5239 137.194V201.707H86.4961V137.194Z" fill="#3AB54B"/>
<path d="M250.809 137.194C250.809 135.976 251.796 134.989 253.014 134.989H259.631C260.849 134.989 261.836 135.976 261.836 137.194V201.707H250.809V137.194Z" fill="#3AB54B"/>
<path d="M291.061 105.214C291.061 103.996 292.048 103.008 293.266 103.008H299.883C301.101 103.008 302.088 103.996 302.088 105.214V201.707H291.061V105.214Z" fill="#3AB54B"/>
<path d="M127.85 159.801C127.85 158.583 128.837 157.596 130.055 157.596H136.672C137.89 157.596 138.877 158.583 138.877 159.801V201.707H127.85V159.801Z" fill="#3AB54B"/>
<path d="M168.652 152.633C168.652 151.415 169.64 150.428 170.858 150.428H177.475C178.693 150.428 179.68 151.415 179.68 152.633V201.707H168.652V152.633Z" fill="#3AB54B"/>
<path d="M209.455 159.801C209.455 158.583 210.443 157.596 211.661 157.596H218.277C219.495 157.596 220.483 158.583 220.483 159.801V201.707H209.455V159.801Z" fill="#3AB54B"/>
<path d="M61.1309 110.176C61.1309 108.958 62.1183 107.971 63.3364 107.971H69.9531C71.1712 107.971 72.1586 108.958 72.1586 110.176V201.707H61.1309V110.176Z" fill="#AAABAD"/>
<path d="M101.934 95.2891C101.934 94.071 102.921 93.0835 104.139 93.0835H110.756C111.974 93.0835 112.961 94.071 112.961 95.2891V201.707H101.934V95.2891Z" fill="#AAABAD"/>
<path d="M266.248 101.354C266.248 100.136 267.236 99.1484 268.454 99.1484H275.07C276.288 99.1484 277.276 100.136 277.276 101.354V201.707H266.248V101.354Z" fill="#AAABAD"/>
<path d="M306.5 71.0278C306.5 69.8097 307.487 68.8223 308.706 68.8223H315.322C316.54 68.8223 317.528 69.8097 317.528 71.0278V201.707H306.5V71.0278Z" fill="#AAABAD"/>
<path d="M143.289 165.315C143.289 164.097 144.277 163.11 145.495 163.11H152.111C153.329 163.11 154.317 164.097 154.317 165.315V201.707H143.289V165.315Z" fill="#AAABAD"/>
<path d="M184.092 158.699C184.092 157.481 185.079 156.493 186.297 156.493H192.914C194.132 156.493 195.12 157.481 195.12 158.699V201.707H184.092V158.699Z" fill="#AAABAD"/>
<path d="M224.895 152.633C224.895 151.415 225.882 150.428 227.1 150.428H233.717C234.935 150.428 235.922 151.415 235.922 152.633V201.707H224.895V152.633Z" fill="#AAABAD"/>
<path d="M50.0157 212.459H50.943L53.1235 217.785H53.1987L55.3792 212.459H56.3066V218.875H55.5797V214H55.5171L53.512 218.875H52.8102L50.8052 214H50.7425V218.875H50.0157V212.459ZM59.7191 218.975C59.2846 218.975 58.9035 218.872 58.5755 218.665C58.2497 218.458 57.9949 218.169 57.8111 217.797C57.6294 217.426 57.5386 216.991 57.5386 216.494C57.5386 215.993 57.6294 215.555 57.8111 215.181C57.9949 214.807 58.2497 214.517 58.5755 214.31C58.9035 214.104 59.2846 214 59.7191 214C60.1535 214 60.5336 214.104 60.8594 214.31C61.1873 214.517 61.4421 214.807 61.6239 215.181C61.8076 215.555 61.8995 215.993 61.8995 216.494C61.8995 216.991 61.8076 217.426 61.6239 217.797C61.4421 218.169 61.1873 218.458 60.8594 218.665C60.5336 218.872 60.1535 218.975 59.7191 218.975ZM59.7191 218.311C60.0491 218.311 60.3206 218.226 60.5336 218.057C60.7466 217.888 60.9043 217.666 61.0067 217.39C61.109 217.114 61.1602 216.816 61.1602 216.494C61.1602 216.172 61.109 215.873 61.0067 215.595C60.9043 215.317 60.7466 215.093 60.5336 214.921C60.3206 214.75 60.0491 214.664 59.7191 214.664C59.3891 214.664 59.1175 214.75 58.9045 214.921C58.6915 215.093 58.5338 215.317 58.4314 215.595C58.3291 215.873 58.2779 216.172 58.2779 216.494C58.2779 216.816 58.3291 217.114 58.4314 217.39C58.5338 217.666 58.6915 217.888 58.9045 218.057C59.1175 218.226 59.3891 218.311 59.7191 218.311ZM63.7675 215.98V218.875H63.0282V214.063H63.7425V214.815H63.8051C63.9179 214.57 64.0892 214.374 64.3189 214.226C64.5487 214.075 64.8452 214 65.2087 214C65.5345 214 65.8196 214.067 66.0639 214.201C66.3083 214.332 66.4984 214.533 66.6341 214.802C66.7699 215.07 66.8378 215.408 66.8378 215.817V218.875H66.0984V215.867C66.0984 215.489 66.0002 215.195 65.8039 214.984C65.6076 214.771 65.3382 214.664 64.9956 214.664C64.7596 214.664 64.5487 214.716 64.3628 214.818C64.179 214.92 64.0338 215.07 63.9273 215.266C63.8208 215.462 63.7675 215.7 63.7675 215.98Z" fill="#7F7F7F"/>
<path d="M91.971 213.148V212.459H96.7831V213.148H94.7655V218.875H93.9885V213.148H91.971ZM100.26 216.908V214.063H100.999V218.875H100.26V218.06H100.21C100.097 218.305 99.9214 218.513 99.6833 218.684C99.4452 218.853 99.1445 218.938 98.7811 218.938C98.4803 218.938 98.213 218.872 97.9791 218.74C97.7451 218.607 97.5613 218.406 97.4277 218.139C97.294 217.869 97.2272 217.53 97.2272 217.121V214.063H97.9665V217.07C97.9665 217.421 98.0647 217.701 98.261 217.91C98.4594 218.119 98.7122 218.223 99.0192 218.223C99.203 218.223 99.3899 218.176 99.58 218.082C99.7721 217.988 99.9329 217.844 100.062 217.65C100.194 217.456 100.26 217.208 100.26 216.908ZM104.371 218.975C103.907 218.975 103.507 218.873 103.171 218.668C102.837 218.461 102.579 218.173 102.397 217.804C102.218 217.432 102.128 216.999 102.128 216.507C102.128 216.014 102.218 215.579 102.397 215.203C102.579 214.825 102.832 214.531 103.155 214.32C103.481 214.107 103.861 214 104.296 214C104.546 214 104.794 214.042 105.038 214.126C105.283 214.209 105.505 214.345 105.706 214.533C105.906 214.719 106.066 214.965 106.185 215.272C106.304 215.579 106.363 215.957 106.363 216.406V216.72H102.654V216.08H105.612C105.612 215.809 105.557 215.567 105.449 215.354C105.342 215.141 105.19 214.972 104.991 214.849C104.795 214.726 104.563 214.664 104.296 214.664C104.001 214.664 103.746 214.737 103.531 214.884C103.318 215.028 103.154 215.216 103.039 215.448C102.925 215.679 102.867 215.928 102.867 216.193V216.619C102.867 216.983 102.93 217.291 103.055 217.544C103.183 217.794 103.359 217.985 103.585 218.117C103.81 218.246 104.072 218.311 104.371 218.311C104.565 218.311 104.741 218.284 104.897 218.23C105.056 218.173 105.193 218.09 105.308 217.979C105.423 217.866 105.511 217.726 105.574 217.559L106.288 217.76C106.213 218.002 106.087 218.215 105.909 218.399C105.732 218.581 105.512 218.723 105.251 218.825C104.99 218.925 104.697 218.975 104.371 218.975Z" fill="#7F7F7F"/>
<path d="M132.653 218.875L130.899 212.459H131.688L133.029 217.685H133.092L134.458 212.459H135.335L136.701 217.685H136.763L138.104 212.459H138.894L137.139 218.875H136.337L134.921 213.762H134.871L133.455 218.875H132.653ZM141.331 218.975C140.868 218.975 140.468 218.873 140.131 218.668C139.797 218.461 139.539 218.173 139.357 217.804C139.178 217.432 139.088 216.999 139.088 216.507C139.088 216.014 139.178 215.579 139.357 215.203C139.539 214.825 139.792 214.531 140.116 214.32C140.441 214.107 140.822 214 141.256 214C141.507 214 141.754 214.042 141.998 214.126C142.243 214.209 142.465 214.345 142.666 214.533C142.866 214.719 143.026 214.965 143.145 215.272C143.264 215.579 143.324 215.957 143.324 216.406V216.72H139.614V216.08H142.572C142.572 215.809 142.518 215.567 142.409 215.354C142.302 215.141 142.15 214.972 141.951 214.849C141.755 214.726 141.523 214.664 141.256 214.664C140.961 214.664 140.707 214.737 140.492 214.884C140.279 215.028 140.115 215.216 140 215.448C139.885 215.679 139.827 215.928 139.827 216.193V216.619C139.827 216.983 139.89 217.291 140.015 217.544C140.143 217.794 140.319 217.985 140.545 218.117C140.77 218.246 141.033 218.311 141.331 218.311C141.525 218.311 141.701 218.284 141.858 218.23C142.016 218.173 142.153 218.09 142.268 217.979C142.383 217.866 142.472 217.726 142.534 217.559L143.249 217.76C143.173 218.002 143.047 218.215 142.869 218.399C142.692 218.581 142.473 218.723 142.212 218.825C141.95 218.925 141.657 218.975 141.331 218.975ZM146.265 218.975C145.864 218.975 145.51 218.874 145.203 218.671C144.896 218.467 144.656 218.178 144.483 217.807C144.31 217.433 144.223 216.991 144.223 216.481C144.223 215.976 144.31 215.537 144.483 215.166C144.656 214.794 144.897 214.507 145.207 214.304C145.516 214.102 145.873 214 146.278 214C146.591 214 146.839 214.052 147.021 214.157C147.204 214.259 147.344 214.376 147.44 214.508C147.538 214.637 147.615 214.744 147.669 214.827H147.732V212.459H148.471V218.875H147.757V218.136H147.669C147.615 218.223 147.537 218.334 147.437 218.468C147.337 218.599 147.194 218.717 147.008 218.822C146.822 218.924 146.575 218.975 146.265 218.975ZM146.366 218.311C146.662 218.311 146.913 218.234 147.118 218.079C147.322 217.923 147.478 217.706 147.584 217.431C147.691 217.153 147.744 216.832 147.744 216.469C147.744 216.11 147.692 215.795 147.588 215.526C147.483 215.254 147.329 215.043 147.124 214.893C146.919 214.741 146.666 214.664 146.366 214.664C146.052 214.664 145.791 214.745 145.583 214.906C145.376 215.064 145.22 215.281 145.116 215.554C145.013 215.826 144.962 216.131 144.962 216.469C144.962 216.811 145.014 217.123 145.119 217.403C145.225 217.68 145.382 217.902 145.589 218.067C145.798 218.23 146.057 218.311 146.366 218.311Z" fill="#7F7F7F"/>
<path d="M173.21 213.148V212.459H178.022V213.148H176.005V218.875H175.228V213.148H173.21ZM179.861 215.98V218.875H179.121V212.459H179.861V214.815H179.923C180.036 214.566 180.205 214.369 180.431 214.223C180.658 214.074 180.961 214 181.339 214C181.667 214 181.954 214.066 182.201 214.198C182.447 214.327 182.638 214.527 182.774 214.796C182.912 215.063 182.981 215.404 182.981 215.817V218.875H182.242V215.867C182.242 215.485 182.142 215.19 181.944 214.981C181.748 214.77 181.475 214.664 181.126 214.664C180.884 214.664 180.667 214.716 180.475 214.818C180.285 214.92 180.134 215.07 180.024 215.266C179.915 215.462 179.861 215.7 179.861 215.98ZM187.366 216.908V214.063H188.106V218.875H187.366V218.06H187.316C187.203 218.305 187.028 218.513 186.79 218.684C186.552 218.853 186.251 218.938 185.888 218.938C185.587 218.938 185.319 218.872 185.085 218.74C184.852 218.607 184.668 218.406 184.534 218.139C184.4 217.869 184.334 217.53 184.334 217.121V214.063H185.073V217.07C185.073 217.421 185.171 217.701 185.367 217.91C185.566 218.119 185.819 218.223 186.126 218.223C186.309 218.223 186.496 218.176 186.686 218.082C186.879 217.988 187.039 217.844 187.169 217.65C187.3 217.456 187.366 217.208 187.366 216.908Z" fill="white"/>
<path d="M217.112 218.875V212.459H220.959V213.148H217.889V215.316H220.671V216.005H217.889V218.875H217.112ZM222.138 218.875V214.063H222.852V214.79H222.903C222.99 214.552 223.149 214.358 223.379 214.21C223.609 214.062 223.868 213.988 224.156 213.988C224.21 213.988 224.278 213.989 224.359 213.991C224.441 213.993 224.502 213.996 224.544 214V214.752C224.519 214.746 224.462 214.736 224.372 214.724C224.284 214.709 224.191 214.702 224.093 214.702C223.859 214.702 223.65 214.751 223.466 214.849C223.285 214.945 223.141 215.079 223.034 215.25C222.93 215.419 222.878 215.613 222.878 215.83V218.875H222.138ZM225.421 218.875V214.063H226.16V218.875H225.421ZM225.797 213.261C225.652 213.261 225.528 213.212 225.424 213.114C225.321 213.015 225.27 212.897 225.27 212.76C225.27 212.622 225.321 212.504 225.424 212.406C225.528 212.307 225.652 212.258 225.797 212.258C225.941 212.258 226.064 212.307 226.166 212.406C226.271 212.504 226.323 212.622 226.323 212.76C226.323 212.897 226.271 213.015 226.166 213.114C226.064 213.212 225.941 213.261 225.797 213.261Z" fill="#7F7F7F"/>
<path d="M259.52 214.063C259.482 213.745 259.33 213.499 259.062 213.324C258.795 213.148 258.467 213.06 258.079 213.06C257.795 213.06 257.546 213.106 257.333 213.198C257.122 213.29 256.957 213.416 256.838 213.577C256.721 213.738 256.663 213.921 256.663 214.126C256.663 214.297 256.703 214.444 256.785 214.567C256.868 214.688 256.975 214.79 257.104 214.871C257.234 214.951 257.37 215.016 257.512 215.069C257.654 215.119 257.784 215.159 257.903 215.191L258.555 215.366C258.722 215.41 258.908 215.471 259.112 215.548C259.319 215.625 259.517 215.731 259.705 215.864C259.895 215.996 260.051 216.165 260.175 216.372C260.298 216.579 260.359 216.832 260.359 217.133C260.359 217.48 260.269 217.793 260.087 218.073C259.907 218.353 259.644 218.575 259.297 218.74C258.953 218.905 258.534 218.988 258.041 218.988C257.582 218.988 257.184 218.914 256.847 218.765C256.513 218.617 256.25 218.41 256.058 218.145C255.868 217.88 255.76 217.572 255.735 217.221H256.537C256.558 217.463 256.64 217.664 256.782 217.822C256.926 217.979 257.107 218.096 257.327 218.173C257.548 218.248 257.786 218.286 258.041 218.286C258.338 218.286 258.604 218.238 258.84 218.142C259.076 218.044 259.263 217.908 259.401 217.735C259.539 217.559 259.607 217.355 259.607 217.121C259.607 216.908 259.548 216.734 259.429 216.601C259.31 216.467 259.153 216.358 258.959 216.275C258.765 216.191 258.555 216.118 258.329 216.055L257.54 215.83C257.039 215.686 256.642 215.48 256.349 215.213C256.057 214.945 255.911 214.595 255.911 214.163C255.911 213.804 256.008 213.491 256.202 213.223C256.398 212.954 256.662 212.745 256.992 212.597C257.324 212.446 257.694 212.371 258.104 212.371C258.517 212.371 258.885 212.445 259.206 212.594C259.528 212.74 259.783 212.94 259.971 213.195C260.161 213.45 260.261 213.739 260.272 214.063H259.52ZM263.354 218.975C262.953 218.975 262.599 218.874 262.292 218.671C261.985 218.467 261.744 218.178 261.571 217.807C261.398 217.433 261.311 216.991 261.311 216.481C261.311 215.976 261.398 215.537 261.571 215.166C261.744 214.794 261.986 214.507 262.295 214.304C262.604 214.102 262.961 214 263.366 214C263.679 214 263.927 214.052 264.109 214.157C264.292 214.259 264.432 214.376 264.528 214.508C264.627 214.637 264.703 214.744 264.757 214.827H264.82V214.063H265.559V218.875H264.845V218.136H264.757C264.703 218.223 264.626 218.334 264.525 218.468C264.425 218.599 264.282 218.717 264.096 218.822C263.91 218.924 263.663 218.975 263.354 218.975ZM263.454 218.311C263.75 218.311 264.001 218.234 264.206 218.079C264.41 217.923 264.566 217.706 264.673 217.431C264.779 217.153 264.832 216.832 264.832 216.469C264.832 216.11 264.78 215.795 264.676 215.526C264.571 215.254 264.417 215.043 264.212 214.893C264.007 214.741 263.755 214.664 263.454 214.664C263.141 214.664 262.88 214.745 262.671 214.906C262.464 215.064 262.308 215.281 262.204 215.554C262.102 215.826 262.05 216.131 262.05 216.469C262.05 216.811 262.103 217.123 262.207 217.403C262.314 217.68 262.47 217.902 262.677 218.067C262.886 218.23 263.145 218.311 263.454 218.311ZM269.109 214.063V214.689H266.615V214.063H269.109ZM267.342 212.91H268.081V217.497C268.081 217.705 268.111 217.862 268.172 217.966C268.235 218.069 268.314 218.138 268.41 218.173C268.508 218.207 268.612 218.223 268.72 218.223C268.802 218.223 268.869 218.219 268.921 218.211C268.973 218.2 269.015 218.192 269.046 218.186L269.196 218.85C269.146 218.869 269.076 218.888 268.987 218.906C268.897 218.927 268.783 218.938 268.645 218.938C268.436 218.938 268.232 218.893 268.031 218.803C267.833 218.713 267.668 218.576 267.536 218.393C267.407 218.209 267.342 217.977 267.342 217.697V212.91Z" fill="#7F7F7F"/>
<path d="M299.521 214.063C299.484 213.745 299.331 213.499 299.064 213.324C298.797 213.148 298.469 213.06 298.08 213.06C297.796 213.06 297.548 213.106 297.335 213.198C297.124 213.29 296.959 213.416 296.84 213.577C296.723 213.738 296.664 213.921 296.664 214.126C296.664 214.297 296.705 214.444 296.786 214.567C296.87 214.688 296.976 214.79 297.106 214.871C297.235 214.951 297.371 215.016 297.513 215.069C297.655 215.119 297.786 215.159 297.905 215.191L298.556 215.366C298.723 215.41 298.909 215.471 299.114 215.548C299.321 215.625 299.518 215.731 299.706 215.864C299.896 215.996 300.053 216.165 300.176 216.372C300.299 216.579 300.361 216.832 300.361 217.133C300.361 217.48 300.27 217.793 300.088 218.073C299.909 218.353 299.646 218.575 299.299 218.74C298.954 218.905 298.535 218.988 298.043 218.988C297.583 218.988 297.185 218.914 296.849 218.765C296.515 218.617 296.252 218.41 296.059 218.145C295.869 217.88 295.762 217.572 295.737 217.221H296.539C296.56 217.463 296.641 217.664 296.783 217.822C296.927 217.979 297.109 218.096 297.328 218.173C297.55 218.248 297.788 218.286 298.043 218.286C298.339 218.286 298.605 218.238 298.841 218.142C299.077 218.044 299.264 217.908 299.402 217.735C299.54 217.559 299.609 217.355 299.609 217.121C299.609 216.908 299.549 216.734 299.43 216.601C299.311 216.467 299.155 216.358 298.96 216.275C298.766 216.191 298.556 216.118 298.331 216.055L297.541 215.83C297.04 215.686 296.643 215.48 296.351 215.213C296.058 214.945 295.912 214.595 295.912 214.163C295.912 213.804 296.009 213.491 296.204 213.223C296.4 212.954 296.663 212.745 296.993 212.597C297.325 212.446 297.696 212.371 298.105 212.371C298.519 212.371 298.886 212.445 299.208 212.594C299.53 212.74 299.784 212.94 299.972 213.195C300.162 213.45 300.263 213.739 300.273 214.063H299.521ZM304.571 216.908V214.063H305.31V218.875H304.571V218.06H304.521C304.408 218.305 304.232 218.513 303.994 218.684C303.756 218.853 303.455 218.938 303.092 218.938C302.791 218.938 302.524 218.872 302.29 218.74C302.056 218.607 301.872 218.406 301.739 218.139C301.605 217.869 301.538 217.53 301.538 217.121V214.063H302.277V217.07C302.277 217.421 302.376 217.701 302.572 217.91C302.77 218.119 303.023 218.223 303.33 218.223C303.514 218.223 303.701 218.176 303.891 218.082C304.083 217.988 304.244 217.844 304.373 217.65C304.505 217.456 304.571 217.208 304.571 216.908ZM307.404 215.98V218.875H306.664V214.063H307.379V214.815H307.441C307.554 214.57 307.725 214.374 307.955 214.226C308.185 214.075 308.481 214 308.845 214C309.171 214 309.456 214.067 309.7 214.201C309.944 214.332 310.134 214.533 310.27 214.802C310.406 215.07 310.474 215.408 310.474 215.817V218.875H309.734V215.867C309.734 215.489 309.636 215.195 309.44 214.984C309.244 214.771 308.974 214.664 308.632 214.664C308.396 214.664 308.185 214.716 307.999 214.818C307.815 214.92 307.67 215.07 307.563 215.266C307.457 215.462 307.404 215.7 307.404 215.98Z" fill="#7F7F7F"/>
<g filter="url(#filter1_b_2499_7527)">
<rect x="151.725" y="73.6724" width="60.8778" height="47.6444" rx="11.0278" fill="#363636" fill-opacity="0.4"/>
<rect x="152" y="73.9481" width="60.3264" height="47.0931" rx="10.7521" stroke="white" stroke-opacity="0.1" stroke-width="0.551389"/>
<path d="M174.978 87.6825C174.941 87.365 174.788 87.1186 174.521 86.9431C174.254 86.7677 173.926 86.68 173.537 86.68C173.253 86.68 173.005 86.7259 172.792 86.8178C172.581 86.9097 172.416 87.0361 172.297 87.1969C172.18 87.3577 172.121 87.5405 172.121 87.7452C172.121 87.9164 172.162 88.0637 172.243 88.1869C172.327 88.308 172.433 88.4093 172.563 88.4908C172.692 88.5702 172.828 88.636 172.97 88.6882C173.112 88.7383 173.243 88.779 173.362 88.8103L174.013 88.9858C174.181 89.0297 174.366 89.0902 174.571 89.1675C174.778 89.2448 174.975 89.3502 175.163 89.4839C175.353 89.6155 175.51 89.7847 175.633 89.9914C175.756 90.1982 175.818 90.452 175.818 90.7527C175.818 91.0994 175.727 91.4127 175.545 91.6926C175.366 91.9725 175.103 92.1949 174.756 92.3599C174.411 92.5249 173.993 92.6074 173.5 92.6074C173.04 92.6074 172.642 92.5333 172.306 92.385C171.972 92.2367 171.709 92.0299 171.517 91.7647C171.326 91.4994 171.219 91.1913 171.194 90.8405H171.996C172.017 91.0827 172.098 91.2832 172.24 91.442C172.384 91.5986 172.566 91.7156 172.785 91.7929C173.007 91.8681 173.245 91.9056 173.5 91.9056C173.796 91.9056 174.063 91.8576 174.299 91.7615C174.535 91.6634 174.721 91.5276 174.859 91.3543C174.997 91.1788 175.066 90.9741 175.066 90.7402C175.066 90.5272 175.007 90.3538 174.888 90.2201C174.768 90.0865 174.612 89.9779 174.418 89.8943C174.223 89.8108 174.013 89.7377 173.788 89.675L172.998 89.4495C172.497 89.3053 172.1 89.0996 171.808 88.8323C171.515 88.5649 171.369 88.2151 171.369 87.7828C171.369 87.4235 171.466 87.1102 171.661 86.8429C171.857 86.5735 172.12 86.3646 172.45 86.2163C172.782 86.0659 173.153 85.9907 173.562 85.9907C173.976 85.9907 174.343 86.0649 174.665 86.2132C174.987 86.3594 175.242 86.5599 175.43 86.8147C175.62 87.0695 175.72 87.3588 175.73 87.6825H174.978ZM178.812 92.5949C178.411 92.5949 178.057 92.4936 177.75 92.291C177.443 92.0863 177.203 91.7981 177.03 91.4263C176.856 91.0525 176.77 90.6107 176.77 90.1011C176.77 89.5957 176.856 89.1571 177.03 88.7853C177.203 88.4135 177.444 88.1263 177.753 87.9237C178.062 87.7211 178.42 87.6198 178.825 87.6198C179.138 87.6198 179.386 87.6721 179.567 87.7765C179.751 87.8788 179.891 87.9958 179.987 88.1274C180.085 88.2569 180.161 88.3634 180.216 88.4469H180.278V87.6825H181.018V92.4946H180.304V91.7553H180.216C180.161 91.843 180.084 91.9537 179.984 92.0874C179.884 92.2189 179.741 92.3369 179.555 92.4414C179.369 92.5437 179.121 92.5949 178.812 92.5949ZM178.913 91.9307C179.209 91.9307 179.46 91.8534 179.664 91.6989C179.869 91.5422 180.025 91.3261 180.131 91.0504C180.238 90.7726 180.291 90.452 180.291 90.0886C180.291 89.7293 180.239 89.415 180.134 89.1456C180.03 88.8741 179.875 88.6631 179.671 88.5127C179.466 88.3603 179.213 88.284 178.913 88.284C178.599 88.284 178.338 88.3644 178.129 88.5253C177.923 88.684 177.767 88.9002 177.662 89.1738C177.56 89.4453 177.509 89.7502 177.509 90.0886C177.509 90.4311 177.561 90.7423 177.666 91.0222C177.772 91.3 177.929 91.5213 178.136 91.6863C178.344 91.8493 178.603 91.9307 178.913 91.9307ZM183.214 86.0785V92.4946H182.475V86.0785H183.214ZM186.586 92.5949C186.122 92.5949 185.722 92.4925 185.386 92.2879C185.052 92.0811 184.794 91.7929 184.612 91.4232C184.432 91.0514 184.343 90.6191 184.343 90.1262C184.343 89.6333 184.432 89.1988 184.612 88.8229C184.794 88.4448 185.046 88.1504 185.37 87.9394C185.696 87.7264 186.076 87.6198 186.511 87.6198C186.761 87.6198 187.009 87.6616 187.253 87.7452C187.497 87.8287 187.72 87.9645 187.92 88.1524C188.121 88.3383 188.281 88.5848 188.4 88.8918C188.519 89.1988 188.578 89.5769 188.578 90.0259V90.3392H184.869V89.7001H187.826C187.826 89.4286 187.772 89.1863 187.663 88.9733C187.557 88.7602 187.404 88.5921 187.206 88.4689C187.01 88.3456 186.778 88.284 186.511 88.284C186.216 88.284 185.961 88.3571 185.746 88.5033C185.533 88.6474 185.369 88.8354 185.254 89.0672C185.139 89.2991 185.082 89.5476 185.082 89.8129V90.2389C185.082 90.6024 185.145 90.9104 185.27 91.1631C185.397 91.4138 185.574 91.6049 185.799 91.7365C186.025 91.866 186.287 91.9307 186.586 91.9307C186.78 91.9307 186.955 91.9036 187.112 91.8493C187.271 91.7929 187.408 91.7093 187.522 91.5986C187.637 91.4858 187.726 91.3459 187.789 91.1788L188.503 91.3793C188.428 91.6216 188.302 91.8346 188.124 92.0184C187.946 92.2001 187.727 92.3422 187.466 92.4445C187.205 92.5448 186.912 92.5949 186.586 92.5949ZM193.112 88.7602L192.447 88.9482C192.406 88.8375 192.344 88.7299 192.263 88.6255C192.183 88.519 192.075 88.4313 191.937 88.3623C191.799 88.2934 191.622 88.259 191.407 88.259C191.113 88.259 190.867 88.3268 190.671 88.4626C190.477 88.5963 190.38 88.7665 190.38 88.9733C190.38 89.1571 190.447 89.3022 190.58 89.4087C190.714 89.5152 190.923 89.604 191.207 89.675L191.921 89.8505C192.351 89.9549 192.672 90.1147 192.883 90.3298C193.094 90.5428 193.199 90.8175 193.199 91.1538C193.199 91.4294 193.12 91.6759 192.961 91.8931C192.805 92.1103 192.585 92.2816 192.303 92.4069C192.021 92.5322 191.693 92.5949 191.32 92.5949C190.829 92.5949 190.422 92.4884 190.101 92.2753C189.779 92.0623 189.576 91.7511 189.49 91.3417L190.192 91.1663C190.259 91.4253 190.385 91.6195 190.571 91.749C190.759 91.8785 191.004 91.9432 191.307 91.9432C191.652 91.9432 191.925 91.8701 192.128 91.7239C192.333 91.5756 192.435 91.3981 192.435 91.1913C192.435 91.0243 192.376 90.8843 192.259 90.7715C192.142 90.6567 191.963 90.571 191.721 90.5146L190.919 90.3267C190.478 90.2222 190.154 90.0604 189.947 89.8411C189.743 89.6197 189.64 89.3429 189.64 89.0109C189.64 88.7393 189.717 88.4991 189.869 88.2903C190.024 88.0814 190.233 87.9175 190.499 87.7984C190.766 87.6794 191.069 87.6198 191.407 87.6198C191.883 87.6198 192.257 87.7243 192.529 87.9331C192.802 88.142 192.997 88.4177 193.112 88.7602Z" fill="#AAABAD"/>
<path d="M168.208 108.495V107.79L170.855 104.892C171.166 104.552 171.422 104.257 171.623 104.007C171.824 103.754 171.973 103.516 172.069 103.294C172.169 103.07 172.218 102.835 172.218 102.589C172.218 102.307 172.15 102.063 172.014 101.857C171.881 101.651 171.699 101.491 171.466 101.379C171.234 101.267 170.973 101.211 170.683 101.211C170.375 101.211 170.106 101.275 169.876 101.403C169.649 101.528 169.473 101.704 169.348 101.931C169.225 102.158 169.164 102.425 169.164 102.73H168.239C168.239 102.26 168.348 101.848 168.564 101.493C168.781 101.138 169.076 100.861 169.449 100.662C169.825 100.464 170.247 100.365 170.714 100.365C171.184 100.365 171.601 100.464 171.964 100.662C172.326 100.861 172.611 101.128 172.817 101.465C173.024 101.802 173.127 102.177 173.127 102.589C173.127 102.884 173.073 103.173 172.966 103.455C172.862 103.734 172.679 104.046 172.418 104.391C172.159 104.733 171.8 105.15 171.341 105.644L169.539 107.57V107.633H173.268V108.495H168.208ZM176.279 107.398L176.216 107.821C176.172 108.119 176.104 108.437 176.013 108.777C175.924 109.116 175.831 109.436 175.735 109.736C175.638 110.036 175.559 110.275 175.496 110.453H174.791C174.825 110.286 174.869 110.065 174.924 109.791C174.979 109.517 175.034 109.21 175.089 108.871C175.146 108.534 175.193 108.189 175.23 107.837L175.277 107.398H176.279ZM177.788 105.957C177.793 105.706 177.831 105.447 177.901 105.178C177.972 104.909 178.091 104.61 178.258 104.281C178.425 103.952 178.655 103.571 178.947 103.137L180.748 100.474H181.814L179.699 103.56C179.793 103.529 179.889 103.503 179.989 103.482C180.09 103.461 180.192 103.451 180.294 103.451C180.78 103.451 181.213 103.563 181.594 103.787C181.978 104.012 182.28 104.319 182.499 104.708C182.721 105.097 182.832 105.539 182.832 106.035C182.832 106.531 182.722 106.973 182.503 107.359C182.286 107.745 181.987 108.049 181.606 108.271C181.227 108.493 180.795 108.604 180.31 108.604C179.819 108.604 179.383 108.491 179.002 108.264C178.621 108.034 178.322 107.721 178.105 107.324C177.888 106.924 177.783 106.469 177.788 105.957ZM178.712 106.02C178.712 106.359 178.78 106.659 178.916 106.92C179.051 107.181 179.239 107.386 179.48 107.535C179.72 107.684 179.996 107.758 180.31 107.758C180.623 107.758 180.9 107.685 181.14 107.539C181.38 107.39 181.568 107.187 181.704 106.928C181.84 106.667 181.908 106.369 181.908 106.035C181.908 105.696 181.84 105.397 181.704 105.139C181.568 104.88 181.38 104.678 181.14 104.532C180.9 104.385 180.623 104.312 180.31 104.312C179.996 104.312 179.72 104.385 179.48 104.532C179.239 104.675 179.051 104.876 178.916 105.135C178.78 105.39 178.712 105.685 178.712 106.02ZM186.877 108.604C186.339 108.604 185.864 108.509 185.452 108.318C185.042 108.125 184.722 107.86 184.492 107.523C184.262 107.184 184.149 106.798 184.151 106.364C184.149 106.025 184.215 105.712 184.351 105.424C184.487 105.135 184.672 104.893 184.907 104.7C185.145 104.504 185.41 104.38 185.702 104.328V104.281C185.318 104.182 185.013 103.966 184.786 103.635C184.559 103.301 184.447 102.921 184.449 102.495C184.447 102.088 184.55 101.724 184.758 101.403C184.967 101.081 185.255 100.828 185.62 100.643C185.988 100.457 186.407 100.365 186.877 100.365C187.342 100.365 187.757 100.457 188.122 100.643C188.488 100.828 188.775 101.081 188.984 101.403C189.195 101.724 189.302 102.088 189.305 102.495C189.302 102.921 189.186 103.301 188.957 103.635C188.729 103.966 188.428 104.182 188.052 104.281V104.328C188.342 104.38 188.603 104.504 188.835 104.7C189.068 104.893 189.253 105.135 189.391 105.424C189.53 105.712 189.6 106.025 189.603 106.364C189.6 106.798 189.483 107.184 189.25 107.523C189.021 107.86 188.701 108.125 188.291 108.318C187.884 108.509 187.412 108.604 186.877 108.604ZM186.877 107.743C187.24 107.743 187.553 107.684 187.817 107.567C188.081 107.449 188.284 107.283 188.428 107.069C188.571 106.855 188.645 106.604 188.647 106.317C188.645 106.014 188.566 105.747 188.412 105.514C188.258 105.282 188.048 105.099 187.782 104.966C187.518 104.833 187.217 104.766 186.877 104.766C186.535 104.766 186.23 104.833 185.961 104.966C185.694 105.099 185.484 105.282 185.33 105.514C185.179 105.747 185.104 106.014 185.107 106.317C185.104 106.604 185.174 106.855 185.315 107.069C185.458 107.283 185.663 107.449 185.929 107.567C186.196 107.684 186.512 107.743 186.877 107.743ZM186.877 103.936C187.164 103.936 187.419 103.879 187.641 103.764C187.865 103.649 188.041 103.489 188.169 103.282C188.297 103.076 188.363 102.835 188.365 102.558C188.363 102.286 188.299 102.05 188.173 101.849C188.048 101.645 187.874 101.489 187.652 101.379C187.431 101.267 187.172 101.211 186.877 101.211C186.577 101.211 186.314 101.267 186.09 101.379C185.865 101.489 185.692 101.645 185.569 101.849C185.446 102.05 185.386 102.286 185.389 102.558C185.386 102.835 185.448 103.076 185.573 103.282C185.701 103.489 185.877 103.649 186.102 103.764C186.326 103.879 186.585 103.936 186.877 103.936ZM191.104 108.495V107.79L193.751 104.892C194.062 104.552 194.317 104.257 194.518 104.007C194.719 103.754 194.868 103.516 194.965 103.294C195.064 103.07 195.114 102.835 195.114 102.589C195.114 102.307 195.046 102.063 194.91 101.857C194.777 101.651 194.594 101.491 194.362 101.379C194.129 101.267 193.868 101.211 193.579 101.211C193.27 101.211 193.002 101.275 192.772 101.403C192.545 101.528 192.368 101.704 192.243 101.931C192.12 102.158 192.059 102.425 192.059 102.73H191.135C191.135 102.26 191.243 101.848 191.46 101.493C191.677 101.138 191.972 100.861 192.345 100.662C192.721 100.464 193.143 100.365 193.61 100.365C194.08 100.365 194.496 100.464 194.859 100.662C195.222 100.861 195.507 101.128 195.713 101.465C195.919 101.802 196.022 102.177 196.022 102.589C196.022 102.884 195.969 103.173 195.862 103.455C195.757 103.734 195.574 104.046 195.313 104.391C195.055 104.733 194.696 105.15 194.236 105.644L192.435 107.57V107.633H196.163V108.495H191.104Z" fill="white"/>
</g>
<g filter="url(#filter2_d_2499_7527)">
<circle cx="3.30833" cy="3.30833" r="4.88712" transform="matrix(-1 0 0 1 185.471 129.036)" fill="#AAABAD" stroke="white" stroke-width="3.15758"/>
</g>
</g>
<defs>
<filter id="filter0_d_2499_7527" x="-21.5293" y="-35.5498" width="410.281" height="317.097" filterUnits="userSpaceOnUse" color-interpolation-filters="sRGB">
<feFlood flood-opacity="0" result="BackgroundImageFix"/>
<feColorMatrix in="SourceAlpha" type="matrix" values="0 0 0 0 0 0 0 0 0 0 0 0 0 0 0 0 0 0 127 0" result="hardAlpha"/>
<feOffset dx="2" dy="4"/>
<feGaussianBlur stdDeviation="20"/>
<feComposite in2="hardAlpha" operator="out"/>
<feColorMatrix type="matrix" values="0 0 0 0 0 0 0 0 0 0 0 0 0 0 0 0 0 0 0.5 0"/>
<feBlend mode="normal" in2="BackgroundImageFix" result="effect1_dropShadow_2499_7527"/>
<feBlend mode="normal" in="SourceGraphic" in2="effect1_dropShadow_2499_7527" result="shape"/>
</filter>
<filter id="filter1_b_2499_7527" x="129.669" y="51.6168" width="104.988" height="91.7556" filterUnits="userSpaceOnUse" color-interpolation-filters="sRGB">
<feFlood flood-opacity="0" result="BackgroundImageFix"/>
<feGaussianBlur in="BackgroundImageFix" stdDeviation="11.0278"/>
<feComposite in2="SourceAlpha" operator="in" result="effect1_backgroundBlur_2499_7527"/>
<feBlend mode="normal" in="SourceGraphic" in2="effect1_backgroundBlur_2499_7527" result="shape"/>
</filter>
<filter id="filter2_d_2499_7527" x="173.442" y="125.728" width="17.4425" height="17.4435" filterUnits="userSpaceOnUse" color-interpolation-filters="sRGB">
<feFlood flood-opacity="0" result="BackgroundImageFix"/>
<feColorMatrix in="SourceAlpha" type="matrix" values="0 0 0 0 0 0 0 0 0 0 0 0 0 0 0 0 0 0 127 0" result="hardAlpha"/>
<feOffset dy="2.10505"/>
<feGaussianBlur stdDeviation="1.05253"/>
<feComposite in2="hardAlpha" operator="out"/>
<feColorMatrix type="matrix" values="0 0 0 0 0 0 0 0 0 0 0 0 0 0 0 0 0 0 0.1 0"/>
<feBlend mode="normal" in2="BackgroundImageFix" result="effect1_dropShadow_2499_7527"/>
<feBlend mode="normal" in="SourceGraphic" in2="effect1_dropShadow_2499_7527" result="shape"/>
</filter>
</defs>
</svg>
