<svg width="583" height="248" viewBox="0 0 583 248" fill="none" xmlns="http://www.w3.org/2000/svg">
<rect x="224.611" y="62.418" width="44.0415" height="139.883" fill="url(#paint0_linear_2499_7461)"/>
<path d="M24.6242 62.0239V68.4299H23.6545V63.3282H23.6014C23.568 63.3908 23.4908 63.4586 23.3699 63.5316C23.251 63.6045 23.0978 63.6681 22.9101 63.7224C22.7245 63.7766 22.5097 63.8037 22.2657 63.8037V63.0092C22.5014 63.0092 22.7068 62.9675 22.8819 62.8841C23.0592 62.8007 23.2093 62.7006 23.3323 62.5838C23.4554 62.4649 23.5492 62.3534 23.6139 62.2491C23.6785 62.1428 23.715 62.0677 23.7233 62.0239H24.6242ZM28.585 68.5363C28.0907 68.5342 27.6685 68.4039 27.3181 68.1453C26.9678 67.8867 26.6998 67.5103 26.5143 67.0161C26.3287 66.5219 26.2359 65.9265 26.2359 65.23C26.2359 64.5356 26.3287 63.9424 26.5143 63.4502C26.7019 62.9581 26.9709 62.5827 27.3213 62.3242C27.6737 62.0656 28.0949 61.9363 28.585 61.9363C29.075 61.9363 29.4952 62.0666 29.8455 62.3273C30.1959 62.5859 30.4638 62.9612 30.6494 63.4534C30.8371 63.9434 30.9309 64.5356 30.9309 65.23C30.9309 65.9286 30.8381 66.525 30.6525 67.0192C30.4669 67.5114 30.199 67.8878 29.8487 68.1484C29.4983 68.407 29.0771 68.5363 28.585 68.5363ZM28.585 67.7011C29.0187 67.7011 29.3576 67.4895 29.6015 67.0661C29.8476 66.6428 29.9706 66.0308 29.9706 65.23C29.9706 64.6983 29.9143 64.2489 29.8017 63.8819C29.6912 63.5128 29.5317 63.2334 29.3232 63.0436C29.1167 62.8518 28.8706 62.7558 28.585 62.7558C28.1533 62.7558 27.8144 62.9685 27.5684 63.3939C27.3223 63.8193 27.1982 64.4314 27.1961 65.23C27.1961 65.7639 27.2514 66.2153 27.3619 66.5844C27.4745 66.9515 27.6341 67.2298 27.8405 67.4196C28.047 67.6073 28.2951 67.7011 28.585 67.7011ZM34.2708 68.5363C33.7766 68.5342 33.3543 68.4039 33.004 68.1453C32.6536 67.8867 32.3857 67.5103 32.2001 67.0161C32.0145 66.5219 31.9217 65.9265 31.9217 65.23C31.9217 64.5356 32.0145 63.9424 32.2001 63.4502C32.3878 62.9581 32.6568 62.5827 33.0071 62.3242C33.3595 62.0656 33.7807 61.9363 34.2708 61.9363C34.7608 61.9363 35.181 62.0666 35.5314 62.3273C35.8817 62.5859 36.1496 62.9612 36.3352 63.4534C36.5229 63.9434 36.6168 64.5356 36.6168 65.23C36.6168 65.9286 36.524 66.525 36.3384 67.0192C36.1528 67.5114 35.8848 67.8878 35.5345 68.1484C35.1842 68.407 34.7629 68.5363 34.2708 68.5363ZM34.2708 67.7011C34.7045 67.7011 35.0434 67.4895 35.2874 67.0661C35.5334 66.6428 35.6565 66.0308 35.6565 65.23C35.6565 64.6983 35.6002 64.2489 35.4876 63.8819C35.377 63.5128 35.2175 63.2334 35.009 63.0436C34.8025 62.8518 34.5565 62.7558 34.2708 62.7558C33.8391 62.7558 33.5003 62.9685 33.2542 63.3939C33.0081 63.8193 32.8841 64.4314 32.882 65.23C32.882 65.7639 32.9372 66.2153 33.0478 66.5844C33.1604 66.9515 33.3199 67.2298 33.5263 67.4196C33.7328 67.6073 33.9809 67.7011 34.2708 67.7011ZM37.814 68.4299V62.0239H38.7805V65.083H38.8587L41.5456 62.0239H42.7624L40.1787 64.9079L42.7718 68.4299H41.6082L39.5375 65.5679L38.7805 66.4374V68.4299H37.814Z" fill="#7F7F7F"/>
<path d="M24.5366 94.9321C24.0883 94.9321 23.6921 94.8549 23.348 94.7006C23.006 94.5463 22.738 94.3336 22.5441 94.0625C22.3502 93.7914 22.2542 93.4828 22.2563 93.1366C22.2542 92.8655 22.3095 92.6163 22.4221 92.389C22.5368 92.1597 22.6922 91.9689 22.8882 91.8166C23.0842 91.6623 23.3032 91.5643 23.545 91.5226V91.4851C23.226 91.4079 22.9705 91.2369 22.7787 90.9721C22.5869 90.7072 22.492 90.4028 22.4941 90.0587C22.492 89.7313 22.5785 89.4394 22.7537 89.1829C22.9309 88.9243 23.1739 88.721 23.4825 88.5729C23.7911 88.4249 24.1425 88.3509 24.5366 88.3509C24.9266 88.3509 25.2748 88.4259 25.5813 88.5761C25.89 88.7241 26.1329 88.9274 26.3102 89.186C26.4874 89.4425 26.5771 89.7334 26.5792 90.0587C26.5771 90.4028 26.4791 90.7072 26.2851 90.9721C26.0912 91.2369 25.8389 91.4079 25.5282 91.4851V91.5226C25.768 91.5643 25.9838 91.6623 26.1757 91.8166C26.3696 91.9689 26.5239 92.1597 26.6386 92.389C26.7554 92.6163 26.8148 92.8655 26.8169 93.1366C26.8148 93.4828 26.7168 93.7914 26.5229 94.0625C26.3289 94.3336 26.0599 94.5463 25.7158 94.7006C25.3739 94.8549 24.9808 94.9321 24.5366 94.9321ZM24.5366 94.1407C24.8014 94.1407 25.0308 94.0969 25.2248 94.0093C25.4187 93.9197 25.5688 93.7956 25.6752 93.6371C25.7815 93.4765 25.8357 93.2888 25.8378 93.0741C25.8357 92.8509 25.7774 92.6539 25.6627 92.4829C25.5501 92.3119 25.3968 92.1774 25.2029 92.0794C25.0089 91.9814 24.7868 91.9324 24.5366 91.9324C24.2843 91.9324 24.0601 91.9814 23.8641 92.0794C23.6681 92.1774 23.5138 92.3119 23.4012 92.4829C23.2886 92.6539 23.2333 92.8509 23.2354 93.0741C23.2333 93.2888 23.2844 93.4765 23.3886 93.6371C23.495 93.7956 23.6462 93.9197 23.8422 94.0093C24.0382 94.0969 24.2697 94.1407 24.5366 94.1407ZM24.5366 91.1598C24.7493 91.1598 24.938 91.117 25.1028 91.0315C25.2675 90.946 25.3968 90.8272 25.4906 90.6749C25.5866 90.5227 25.6356 90.3444 25.6376 90.14C25.6356 89.9399 25.5876 89.7647 25.4938 89.6145C25.402 89.4644 25.2738 89.3487 25.109 89.2673C24.9443 89.1839 24.7535 89.1422 24.5366 89.1422C24.3156 89.1422 24.1216 89.1839 23.9548 89.2673C23.7901 89.3487 23.6618 89.4644 23.5701 89.6145C23.4783 89.7647 23.4335 89.9399 23.4356 90.14C23.4335 90.3444 23.4794 90.5227 23.5732 90.6749C23.667 90.8272 23.7963 90.946 23.9611 91.0315C24.1279 91.117 24.3197 91.1598 24.5366 91.1598ZM30.1677 94.9508C29.6735 94.9487 29.2512 94.8184 28.9009 94.5598C28.5506 94.3013 28.2826 93.9249 28.097 93.4306C27.9114 92.9364 27.8186 92.3411 27.8186 91.6446C27.8186 90.9502 27.9114 90.3569 28.097 89.8648C28.2847 89.3727 28.5537 88.9973 28.904 88.7387C29.2564 88.4801 29.6777 88.3509 30.1677 88.3509C30.6577 88.3509 31.0779 88.4812 31.4283 88.7418C31.7786 89.0004 32.0466 89.3758 32.2321 89.8679C32.4198 90.358 32.5137 90.9502 32.5137 91.6446C32.5137 92.3432 32.4209 92.9396 32.2353 93.4338C32.0497 93.9259 31.7817 94.3023 31.4314 94.563C31.0811 94.8215 30.6598 94.9508 30.1677 94.9508ZM30.1677 94.1157C30.6014 94.1157 30.9403 93.904 31.1843 93.4807C31.4304 93.0574 31.5534 92.4453 31.5534 91.6446C31.5534 91.1128 31.4971 90.6635 31.3845 90.2964C31.274 89.9273 31.1144 89.6479 30.9059 89.4582C30.6995 89.2663 30.4534 89.1704 30.1677 89.1704C29.736 89.1704 29.3972 89.3831 29.1511 89.8085C28.9051 90.2339 28.781 90.8459 28.7789 91.6446C28.7789 92.1784 28.8342 92.6299 28.9447 92.999C29.0573 93.366 29.2168 93.6444 29.4232 93.8342C29.6297 94.0218 29.8778 94.1157 30.1677 94.1157ZM33.7109 94.8445V88.4384H34.6774V91.4976H34.7556L37.4425 88.4384H38.6593L36.0756 91.3224L38.6687 94.8445H37.5051L35.4344 91.9824L34.6774 92.852V94.8445H33.7109Z" fill="#7F7F7F"/>
<path d="M22.2657 119.213C22.2699 119.005 22.3001 118.792 22.3564 118.575C22.4148 118.358 22.5087 118.123 22.6379 117.868C22.7672 117.614 22.9403 117.325 23.1572 117.002L24.6117 114.853H25.6314L23.9892 117.255C24.0643 117.232 24.1425 117.214 24.2238 117.199C24.3072 117.182 24.3906 117.174 24.474 117.174C24.864 117.174 25.2112 117.264 25.5157 117.443C25.8201 117.622 26.0599 117.867 26.2351 118.178C26.4123 118.489 26.501 118.845 26.501 119.248C26.501 119.659 26.4092 120.021 26.2257 120.336C26.0443 120.651 25.794 120.898 25.475 121.078C25.158 121.257 24.7962 121.347 24.3896 121.347C23.9871 121.347 23.6243 121.258 23.3011 121.081C22.9799 120.901 22.7266 120.652 22.541 120.333C22.3554 120.012 22.2636 119.639 22.2657 119.213ZM23.201 119.251C23.201 119.503 23.251 119.726 23.3511 119.92C23.4512 120.114 23.5909 120.266 23.7703 120.377C23.9496 120.487 24.156 120.543 24.3896 120.543C24.6211 120.543 24.8254 120.489 25.0027 120.38C25.182 120.27 25.3217 120.118 25.4218 119.927C25.524 119.733 25.5751 119.512 25.5751 119.263C25.5751 119.011 25.524 118.789 25.4218 118.597C25.3217 118.403 25.182 118.252 25.0027 118.144C24.8254 118.035 24.6211 117.981 24.3896 117.981C24.156 117.981 23.9496 118.035 23.7703 118.144C23.5909 118.252 23.4512 118.402 23.3511 118.594C23.251 118.784 23.201 119.003 23.201 119.251ZM29.8236 121.365C29.3294 121.363 28.9071 121.233 28.5568 120.974C28.2065 120.716 27.9385 120.339 27.7529 119.845C27.5673 119.351 27.4745 118.756 27.4745 118.059C27.4745 117.365 27.5673 116.771 27.7529 116.279C27.9406 115.787 28.2096 115.412 28.5599 115.153C28.9124 114.895 29.3336 114.765 29.8236 114.765C30.3137 114.765 30.7339 114.896 31.0842 115.156C31.4345 115.415 31.7025 115.79 31.8881 116.282C32.0758 116.773 32.1696 117.365 32.1696 118.059C32.1696 118.758 32.0768 119.354 31.8912 119.848C31.7056 120.34 31.4376 120.717 31.0873 120.978C30.737 121.236 30.3158 121.365 29.8236 121.365ZM29.8236 120.53C30.2574 120.53 30.5962 120.319 30.8402 119.895C31.0863 119.472 31.2093 118.86 31.2093 118.059C31.2093 117.527 31.153 117.078 31.0404 116.711C30.9299 116.342 30.7704 116.062 30.5618 115.873C30.3554 115.681 30.1093 115.585 29.8236 115.585C29.392 115.585 29.0531 115.798 28.807 116.223C28.561 116.648 28.4369 117.26 28.4348 118.059C28.4348 118.593 28.4901 119.044 28.6006 119.414C28.7132 119.781 28.8727 120.059 29.0792 120.249C29.2856 120.436 29.5338 120.53 29.8236 120.53ZM33.3668 121.259V114.853H34.3333V117.912H34.4115L37.0985 114.853H38.3152L35.7315 117.737L38.3246 121.259H37.161L35.0903 118.397L34.3333 119.267V121.259H33.3668Z" fill="#7F7F7F"/>
<path d="M22.2376 146.422V145.64L24.7462 141.268H25.6908L23.2416 145.553V145.603H27.0452V146.422H22.2376ZM25.2748 147.674V146.191L25.2873 145.828V143.67H26.1913V147.674H25.2748ZM30.3655 147.78C29.8713 147.778 29.4491 147.648 29.0987 147.389C28.7484 147.13 28.4804 146.754 28.2948 146.26C28.1092 145.766 28.0165 145.17 28.0165 144.474C28.0165 143.779 28.1092 143.186 28.2948 142.694C28.4825 142.202 28.7515 141.826 29.1019 141.568C29.4543 141.309 29.8755 141.18 30.3655 141.18C30.8556 141.18 31.2758 141.31 31.6261 141.571C31.9764 141.83 32.2444 142.205 32.43 142.697C32.6177 143.187 32.7115 143.779 32.7115 144.474C32.7115 145.172 32.6187 145.769 32.4331 146.263C32.2475 146.755 31.9796 147.131 31.6292 147.392C31.2789 147.651 30.8577 147.78 30.3655 147.78ZM30.3655 146.945C30.7993 146.945 31.1381 146.733 31.3821 146.31C31.6282 145.886 31.7512 145.274 31.7512 144.474C31.7512 143.942 31.6949 143.493 31.5823 143.126C31.4718 142.756 31.3123 142.477 31.1037 142.287C30.8973 142.095 30.6512 141.999 30.3655 141.999C29.9339 141.999 29.595 142.212 29.349 142.638C29.1029 143.063 28.9788 143.675 28.9767 144.474C28.9767 145.008 29.032 145.459 29.1425 145.828C29.2551 146.195 29.4146 146.473 29.6211 146.663C29.8275 146.851 30.0757 146.945 30.3655 146.945ZM33.9087 147.674V141.268H34.8753V144.327H34.9535L37.6404 141.268H38.8571L36.2735 144.152L38.8665 147.674H37.7029L35.6322 144.812L34.8753 145.681V147.674H33.9087Z" fill="#7F7F7F"/>
<path d="M22.3721 174.088V173.387L24.5397 171.142C24.7712 170.898 24.962 170.684 25.1122 170.5C25.2644 170.315 25.378 170.139 25.4531 169.972C25.5282 169.805 25.5657 169.628 25.5657 169.44C25.5657 169.227 25.5157 169.044 25.4156 168.889C25.3155 168.733 25.1789 168.613 25.0058 168.53C24.8327 168.444 24.6377 168.402 24.4209 168.402C24.1915 168.402 23.9913 168.448 23.8203 168.542C23.6493 168.636 23.5179 168.769 23.4262 168.94C23.3344 169.111 23.2886 169.311 23.2886 169.54H22.3658C22.3658 169.15 22.4555 168.809 22.6348 168.517C22.8141 168.225 23.0602 167.999 23.373 167.838C23.6858 167.676 24.0413 167.595 24.4396 167.595C24.8421 167.595 25.1966 167.675 25.5031 167.835C25.8118 167.994 26.0526 168.211 26.2257 168.486C26.3988 168.759 26.4853 169.068 26.4853 169.412C26.4853 169.65 26.4405 169.882 26.3508 170.109C26.2632 170.337 26.11 170.59 25.891 170.869C25.6721 171.147 25.3676 171.484 24.9776 171.88L23.7046 173.212V173.259H26.5885V174.088H22.3721ZM30.0043 174.194C29.51 174.192 29.0878 174.062 28.7374 173.803C28.3871 173.545 28.1192 173.169 27.9336 172.674C27.748 172.18 27.6552 171.585 27.6552 170.888C27.6552 170.194 27.748 169.601 27.9336 169.108C28.1212 168.616 28.3902 168.241 28.7406 167.982C29.093 167.724 29.5142 167.595 30.0043 167.595C30.4943 167.595 30.9145 167.725 31.2648 167.986C31.6152 168.244 31.8831 168.619 32.0687 169.112C32.2564 169.602 32.3502 170.194 32.3502 170.888C32.3502 171.587 32.2574 172.183 32.0718 172.677C31.8862 173.17 31.6183 173.546 31.268 173.807C30.9176 174.065 30.4964 174.194 30.0043 174.194ZM30.0043 173.359C30.438 173.359 30.7769 173.148 31.0208 172.724C31.2669 172.301 31.3899 171.689 31.3899 170.888C31.3899 170.356 31.3336 169.907 31.221 169.54C31.1105 169.171 30.951 168.892 30.7425 168.702C30.536 168.51 30.29 168.414 30.0043 168.414C29.5726 168.414 29.2337 168.627 28.9877 169.052C28.7416 169.478 28.6175 170.09 28.6155 170.888C28.6155 171.422 28.6707 171.874 28.7812 172.243C28.8938 172.61 29.0534 172.888 29.2598 173.078C29.4663 173.265 29.7144 173.359 30.0043 173.359ZM33.5475 174.088V167.682H34.514V170.741H34.5922L37.2791 167.682H38.4959L35.9122 170.566L38.5053 174.088H37.3417L35.271 171.226L34.514 172.096V174.088H33.5475Z" fill="#7F7F7F"/>
<path d="M24.6023 200.609C24.1081 200.607 23.6858 200.477 23.3355 200.218C22.9851 199.959 22.7172 199.583 22.5316 199.089C22.346 198.595 22.2532 197.999 22.2532 197.303C22.2532 196.608 22.346 196.015 22.5316 195.523C22.7193 195.031 22.9883 194.656 23.3386 194.397C23.691 194.138 24.1122 194.009 24.6023 194.009C25.0923 194.009 25.5125 194.139 25.8629 194.4C26.2132 194.659 26.4812 195.034 26.6667 195.526C26.8544 196.016 26.9483 196.608 26.9483 197.303C26.9483 198.001 26.8555 198.598 26.6699 199.092C26.4843 199.584 26.2163 199.961 25.866 200.221C25.5157 200.48 25.0944 200.609 24.6023 200.609ZM24.6023 199.774C25.036 199.774 25.3749 199.562 25.6189 199.139C25.8649 198.716 25.988 198.104 25.988 197.303C25.988 196.771 25.9317 196.322 25.8191 195.955C25.7085 195.586 25.549 195.306 25.3405 195.116C25.134 194.925 24.888 194.829 24.6023 194.829C24.1706 194.829 23.8318 195.041 23.5857 195.467C23.3396 195.892 23.2156 196.504 23.2135 197.303C23.2135 197.837 23.2687 198.288 23.3793 198.657C23.4919 199.024 23.6514 199.303 23.8578 199.492C24.0643 199.68 24.3124 199.774 24.6023 199.774Z" fill="#7F7F7F"/>
<path d="M70.2449 223.638H71.2084V228.18C71.2084 228.59 71.127 228.942 70.9644 229.234C70.8038 229.526 70.5776 229.749 70.2856 229.903C69.9937 230.055 69.6517 230.132 69.2596 230.132C68.8989 230.132 68.5746 230.066 68.2869 229.934C68.0012 229.803 67.7749 229.612 67.6081 229.362C67.4433 229.11 67.361 228.803 67.361 228.442H68.3213C68.3213 228.62 68.3619 228.773 68.4432 228.902C68.5267 229.032 68.6403 229.133 68.7842 229.206C68.9302 229.277 69.097 229.312 69.2847 229.312C69.489 229.312 69.6621 229.269 69.8039 229.184C69.9478 229.096 70.0573 228.968 70.1323 228.799C70.2074 228.63 70.2449 228.424 70.2449 228.18V223.638ZM74.3387 230.138C73.9508 230.138 73.6046 230.039 73.3002 229.841C72.9978 229.64 72.7601 229.356 72.587 228.987C72.416 228.616 72.3305 228.17 72.3305 227.651C72.3305 227.132 72.417 226.688 72.5901 226.319C72.7653 225.949 73.0051 225.667 73.3096 225.471C73.614 225.275 73.9591 225.177 74.3449 225.177C74.6431 225.177 74.8829 225.227 75.0643 225.327C75.2478 225.425 75.3896 225.54 75.4897 225.671C75.5919 225.802 75.6712 225.918 75.7275 226.018H75.7838V225.239H76.719V230.044H75.8057V229.296H75.7275C75.6712 229.399 75.5898 229.515 75.4835 229.647C75.3792 229.778 75.2353 229.893 75.0518 229.991C74.8683 230.089 74.6306 230.138 74.3387 230.138ZM74.5451 229.34C74.8141 229.34 75.0414 229.269 75.227 229.127C75.4147 228.984 75.5565 228.784 75.6524 228.53C75.7504 228.276 75.7994 227.979 75.7994 227.642C75.7994 227.308 75.7514 227.016 75.6555 226.766C75.5596 226.516 75.4188 226.321 75.2332 226.181C75.0477 226.041 74.8183 225.971 74.5451 225.971C74.2636 225.971 74.029 226.044 73.8413 226.19C73.6536 226.336 73.5118 226.535 73.4159 226.788C73.3221 227.04 73.2752 227.325 73.2752 227.642C73.2752 227.963 73.3231 228.252 73.419 228.508C73.515 228.765 73.6568 228.968 73.8444 229.118C74.0342 229.266 74.2678 229.34 74.5451 229.34ZM78.9891 227.191V230.044H78.0539V225.239H78.9516V226.021H79.011C79.1216 225.767 79.2946 225.563 79.5303 225.408C79.768 225.254 80.0672 225.177 80.428 225.177C80.7554 225.177 81.0421 225.246 81.2882 225.383C81.5342 225.519 81.725 225.721 81.8606 225.99C81.9961 226.259 82.0639 226.592 82.0639 226.988V230.044H81.1287V227.101C81.1287 226.752 81.0379 226.48 80.8565 226.284C80.6751 226.086 80.4259 225.987 80.1089 225.987C79.8921 225.987 79.6992 226.034 79.5303 226.128C79.3634 226.222 79.231 226.359 79.133 226.541C79.0371 226.72 78.9891 226.937 78.9891 227.191Z" fill="#7F7F7F"/>
<path d="M110.77 230.044V223.638H114.742V224.47H111.736V226.422H114.457V227.251H111.736V230.044H110.77ZM117.574 230.141C117.1 230.141 116.693 230.04 116.351 229.838C116.011 229.633 115.748 229.346 115.562 228.977C115.379 228.606 115.287 228.171 115.287 227.673C115.287 227.181 115.379 226.747 115.562 226.372C115.748 225.996 116.007 225.703 116.338 225.493C116.672 225.282 117.062 225.177 117.508 225.177C117.779 225.177 118.042 225.222 118.296 225.311C118.551 225.401 118.779 225.542 118.981 225.734C119.184 225.925 119.343 226.175 119.46 226.481C119.577 226.786 119.635 227.156 119.635 227.592V227.923H115.816V227.223H118.719C118.719 226.976 118.668 226.759 118.568 226.569C118.468 226.377 118.328 226.226 118.146 226.115C117.967 226.005 117.756 225.949 117.514 225.949C117.252 225.949 117.022 226.014 116.826 226.143C116.632 226.271 116.482 226.437 116.376 226.644C116.271 226.848 116.219 227.07 116.219 227.31V227.858C116.219 228.179 116.276 228.452 116.388 228.677C116.503 228.902 116.662 229.074 116.867 229.193C117.071 229.31 117.31 229.368 117.583 229.368C117.76 229.368 117.922 229.343 118.068 229.293C118.214 229.241 118.34 229.164 118.446 229.062C118.553 228.96 118.634 228.833 118.69 228.683L119.576 228.843C119.505 229.103 119.377 229.332 119.194 229.528C119.013 229.722 118.784 229.873 118.509 229.981C118.236 230.088 117.924 230.141 117.574 230.141ZM120.748 230.044V223.638H121.683V226.018H121.739C121.794 225.918 121.872 225.802 121.974 225.671C122.076 225.54 122.218 225.425 122.399 225.327C122.581 225.227 122.821 225.177 123.119 225.177C123.507 225.177 123.853 225.275 124.157 225.471C124.462 225.667 124.7 225.949 124.874 226.319C125.049 226.688 125.136 227.132 125.136 227.651C125.136 228.17 125.05 228.616 124.877 228.987C124.704 229.356 124.466 229.64 124.164 229.841C123.861 230.039 123.516 230.138 123.128 230.138C122.836 230.138 122.597 230.089 122.412 229.991C122.228 229.893 122.084 229.778 121.98 229.647C121.876 229.515 121.796 229.399 121.739 229.296H121.661V230.044H120.748ZM121.664 227.642C121.664 227.979 121.713 228.276 121.811 228.53C121.909 228.784 122.051 228.984 122.237 229.127C122.422 229.269 122.65 229.34 122.919 229.34C123.198 229.34 123.432 229.266 123.619 229.118C123.807 228.968 123.949 228.765 124.045 228.508C124.143 228.252 124.192 227.963 124.192 227.642C124.192 227.325 124.144 227.04 124.048 226.788C123.954 226.535 123.812 226.336 123.622 226.19C123.435 226.044 123.2 225.971 122.919 225.971C122.647 225.971 122.418 226.041 122.23 226.181C122.045 226.321 121.904 226.516 121.808 226.766C121.712 227.016 121.664 227.308 121.664 227.642Z" fill="#7F7F7F"/>
<path d="M153.055 223.638H154.228L156.268 228.618H156.343L158.382 223.638H159.555V230.044H158.636V225.408H158.576L156.687 230.035H155.924L154.034 225.405H153.975V230.044H153.055V223.638ZM162.684 230.138C162.296 230.138 161.95 230.039 161.645 229.841C161.343 229.64 161.105 229.356 160.932 228.987C160.761 228.616 160.676 228.17 160.676 227.651C160.676 227.132 160.762 226.688 160.935 226.319C161.111 225.949 161.35 225.667 161.655 225.471C161.959 225.275 162.304 225.177 162.69 225.177C162.988 225.177 163.228 225.227 163.41 225.327C163.593 225.425 163.735 225.54 163.835 225.671C163.937 225.802 164.016 225.918 164.073 226.018H164.129V225.239H165.064V230.044H164.151V229.296H164.073C164.016 229.399 163.935 229.515 163.829 229.647C163.725 229.778 163.581 229.893 163.397 229.991C163.214 230.089 162.976 230.138 162.684 230.138ZM162.89 229.34C163.159 229.34 163.387 229.269 163.572 229.127C163.76 228.984 163.902 228.784 163.998 228.53C164.096 228.276 164.145 227.979 164.145 227.642C164.145 227.308 164.097 227.016 164.001 226.766C163.905 226.516 163.764 226.321 163.579 226.181C163.393 226.041 163.164 225.971 162.89 225.971C162.609 225.971 162.374 226.044 162.187 226.19C161.999 226.336 161.857 226.535 161.761 226.788C161.667 227.04 161.62 227.325 161.62 227.642C161.62 227.963 161.668 228.252 161.764 228.508C161.86 228.765 162.002 228.968 162.19 229.118C162.379 229.266 162.613 229.34 162.89 229.34ZM166.399 230.044V225.239H167.303V226.003H167.353C167.441 225.744 167.595 225.541 167.816 225.393C168.039 225.243 168.292 225.167 168.573 225.167C168.631 225.167 168.7 225.17 168.78 225.174C168.861 225.178 168.924 225.183 168.97 225.189V226.084C168.933 226.074 168.866 226.062 168.77 226.05C168.674 226.035 168.578 226.028 168.482 226.028C168.261 226.028 168.064 226.075 167.891 226.168C167.72 226.26 167.585 226.388 167.485 226.553C167.384 226.716 167.334 226.901 167.334 227.11V230.044H166.399Z" fill="#7F7F7F"/>
<path d="M197.445 230.044H196.419L198.725 223.638H199.841L202.147 230.044H201.121L199.31 224.801H199.26L197.445 230.044ZM197.617 227.535H200.946V228.349H197.617V227.535ZM202.997 231.846V225.239H203.91V226.018H203.988C204.042 225.918 204.121 225.802 204.223 225.671C204.325 225.54 204.467 225.425 204.648 225.327C204.83 225.227 205.069 225.177 205.368 225.177C205.756 225.177 206.102 225.275 206.406 225.471C206.711 225.667 206.949 225.949 207.122 226.319C207.298 226.688 207.385 227.132 207.385 227.651C207.385 228.17 207.299 228.616 207.126 228.987C206.953 229.356 206.715 229.64 206.412 229.841C206.11 230.039 205.765 230.138 205.377 230.138C205.085 230.138 204.846 230.089 204.661 229.991C204.477 229.893 204.333 229.778 204.229 229.647C204.125 229.515 204.045 229.399 203.988 229.296H203.932V231.846H202.997ZM203.913 227.642C203.913 227.979 203.962 228.276 204.06 228.53C204.158 228.784 204.3 228.984 204.486 229.127C204.671 229.269 204.898 229.34 205.167 229.34C205.447 229.34 205.68 229.266 205.868 229.118C206.056 228.968 206.198 228.765 206.294 228.508C206.392 228.252 206.441 227.963 206.441 227.642C206.441 227.325 206.393 227.04 206.297 226.788C206.203 226.535 206.061 226.336 205.871 226.19C205.684 226.044 205.449 225.971 205.167 225.971C204.896 225.971 204.667 226.041 204.479 226.181C204.294 226.321 204.153 226.516 204.057 226.766C203.961 227.016 203.913 227.308 203.913 227.642ZM208.433 230.044V225.239H209.337V226.003H209.387C209.475 225.744 209.629 225.541 209.85 225.393C210.073 225.243 210.325 225.167 210.607 225.167C210.665 225.167 210.734 225.17 210.813 225.174C210.895 225.178 210.958 225.183 211.004 225.189V226.084C210.967 226.074 210.9 226.062 210.804 226.05C210.708 226.035 210.612 226.028 210.516 226.028C210.295 226.028 210.098 226.075 209.925 226.168C209.754 226.26 209.619 226.388 209.518 226.553C209.418 226.716 209.368 226.901 209.368 227.11V230.044H208.433Z" fill="#7F7F7F"/>
<path d="M238.132 223.638H239.305L241.344 228.618H241.419L243.459 223.638H244.632V230.044H243.712V225.408H243.653L241.763 230.035H241L239.111 225.405H239.052V230.044H238.132V223.638ZM247.761 230.138C247.373 230.138 247.027 230.039 246.722 229.841C246.42 229.64 246.182 229.356 246.009 228.987C245.838 228.616 245.752 228.17 245.752 227.651C245.752 227.132 245.839 226.688 246.012 226.319C246.187 225.949 246.427 225.667 246.731 225.471C247.036 225.275 247.381 225.177 247.767 225.177C248.065 225.177 248.305 225.227 248.486 225.327C248.67 225.425 248.812 225.54 248.912 225.671C249.014 225.802 249.093 225.918 249.149 226.018H249.206V225.239H250.141V230.044H249.228V229.296H249.149C249.093 229.399 249.012 229.515 248.905 229.647C248.801 229.778 248.657 229.893 248.474 229.991C248.29 230.089 248.052 230.138 247.761 230.138ZM247.967 229.34C248.236 229.34 248.463 229.269 248.649 229.127C248.837 228.984 248.978 228.784 249.074 228.53C249.172 228.276 249.221 227.979 249.221 227.642C249.221 227.308 249.173 227.016 249.077 226.766C248.981 226.516 248.841 226.321 248.655 226.181C248.47 226.041 248.24 225.971 247.967 225.971C247.685 225.971 247.451 226.044 247.263 226.19C247.076 226.336 246.934 226.535 246.838 226.788C246.744 227.04 246.697 227.325 246.697 227.642C246.697 227.963 246.745 228.252 246.841 228.508C246.937 228.765 247.079 228.968 247.266 229.118C247.456 229.266 247.69 229.34 247.967 229.34ZM252.067 231.846C251.927 231.846 251.8 231.834 251.685 231.811C251.571 231.79 251.485 231.767 251.429 231.742L251.654 230.976C251.825 231.022 251.977 231.042 252.111 231.036C252.244 231.029 252.362 230.979 252.464 230.885C252.568 230.792 252.66 230.638 252.739 230.426L252.855 230.107L251.097 225.239H252.098L253.315 228.968H253.365L254.582 225.239H255.586L253.606 230.685C253.514 230.935 253.397 231.147 253.256 231.32C253.114 231.495 252.945 231.627 252.749 231.714C252.553 231.802 252.326 231.846 252.067 231.846Z" fill="white"/>
<path d="M285.086 223.638H286.049V228.18C286.049 228.59 285.968 228.942 285.805 229.234C285.645 229.526 285.418 229.749 285.126 229.903C284.834 230.055 284.492 230.132 284.1 230.132C283.74 230.132 283.415 230.066 283.128 229.934C282.842 229.803 282.616 229.612 282.449 229.362C282.284 229.11 282.202 228.803 282.202 228.442H283.162C283.162 228.62 283.203 228.773 283.284 228.902C283.367 229.032 283.481 229.133 283.625 229.206C283.771 229.277 283.938 229.312 284.125 229.312C284.33 229.312 284.503 229.269 284.645 229.184C284.789 229.096 284.898 228.968 284.973 228.799C285.048 228.63 285.086 228.424 285.086 228.18V223.638ZM290.424 228.051V225.239H291.363V230.044H290.443V229.212H290.393C290.283 229.468 290.105 229.682 289.861 229.853C289.619 230.022 289.318 230.107 288.957 230.107C288.649 230.107 288.376 230.039 288.138 229.903C287.902 229.766 287.717 229.562 287.581 229.293C287.448 229.024 287.381 228.692 287.381 228.295V225.239H288.316V228.183C288.316 228.51 288.407 228.771 288.588 228.965C288.77 229.159 289.005 229.256 289.295 229.256C289.47 229.256 289.644 229.212 289.818 229.124C289.993 229.037 290.138 228.904 290.252 228.727C290.369 228.55 290.426 228.325 290.424 228.051ZM293.555 227.191V230.044H292.619V225.239H293.517V226.021H293.577C293.687 225.767 293.86 225.563 294.096 225.408C294.333 225.254 294.633 225.177 294.993 225.177C295.321 225.177 295.608 225.246 295.854 225.383C296.1 225.519 296.291 225.721 296.426 225.99C296.562 226.259 296.629 226.592 296.629 226.988V230.044H295.694V227.101C295.694 226.752 295.603 226.48 295.422 226.284C295.241 226.086 294.991 225.987 294.674 225.987C294.458 225.987 294.265 226.034 294.096 226.128C293.929 226.222 293.797 226.359 293.699 226.541C293.603 226.72 293.555 226.937 293.555 227.191Z" fill="#7F7F7F"/>
<path d="M329.561 223.638H330.524V228.18C330.524 228.59 330.443 228.942 330.28 229.234C330.119 229.526 329.893 229.749 329.601 229.903C329.309 230.055 328.967 230.132 328.575 230.132C328.215 230.132 327.89 230.066 327.602 229.934C327.317 229.803 327.091 229.612 326.924 229.362C326.759 229.11 326.677 228.803 326.677 228.442H327.637C327.637 228.62 327.678 228.773 327.759 228.902C327.842 229.032 327.956 229.133 328.1 229.206C328.246 229.277 328.413 229.312 328.6 229.312C328.805 229.312 328.978 229.269 329.12 229.184C329.263 229.096 329.373 228.968 329.448 228.799C329.523 228.63 329.561 228.424 329.561 228.18V223.638ZM334.899 228.051V225.239H335.838V230.044H334.918V229.212H334.868C334.757 229.468 334.58 229.682 334.336 229.853C334.094 230.022 333.793 230.107 333.432 230.107C333.124 230.107 332.85 230.039 332.613 229.903C332.377 229.766 332.191 229.562 332.056 229.293C331.922 229.024 331.856 228.692 331.856 228.295V225.239H332.791V228.183C332.791 228.51 332.882 228.771 333.063 228.965C333.245 229.159 333.48 229.256 333.77 229.256C333.945 229.256 334.119 229.212 334.292 229.124C334.468 229.037 334.612 228.904 334.727 228.727C334.844 228.55 334.901 228.325 334.899 228.051ZM338.03 223.638V230.044H337.094V223.638H338.03Z" fill="#7F7F7F"/>
<path d="M368.278 230.044H367.252L369.557 223.638H370.674L372.979 230.044H371.953L370.142 224.801H370.092L368.278 230.044ZM368.45 227.535H371.778V228.349H368.45V227.535ZM376.873 228.051V225.239H377.811V230.044H376.892V229.212H376.842C376.731 229.468 376.554 229.682 376.31 229.853C376.068 230.022 375.767 230.107 375.406 230.107C375.097 230.107 374.824 230.039 374.586 229.903C374.351 229.766 374.165 229.562 374.03 229.293C373.896 229.024 373.829 228.692 373.829 228.295V225.239H374.765V228.183C374.765 228.51 374.855 228.771 375.037 228.965C375.218 229.159 375.454 229.256 375.744 229.256C375.919 229.256 376.093 229.212 376.266 229.124C376.441 229.037 376.586 228.904 376.701 228.727C376.818 228.55 376.875 228.325 376.873 228.051ZM381.082 231.946C380.701 231.946 380.372 231.896 380.097 231.796C379.824 231.696 379.601 231.563 379.428 231.398C379.255 231.234 379.125 231.053 379.04 230.857L379.844 230.526C379.9 230.617 379.975 230.714 380.069 230.817C380.165 230.921 380.294 231.009 380.457 231.082C380.622 231.155 380.833 231.192 381.092 231.192C381.446 231.192 381.739 231.105 381.971 230.932C382.202 230.761 382.318 230.488 382.318 230.113V229.168H382.258C382.202 229.27 382.121 229.384 382.014 229.509C381.91 229.634 381.766 229.743 381.583 229.834C381.399 229.926 381.161 229.972 380.867 229.972C380.487 229.972 380.145 229.883 379.841 229.706C379.538 229.527 379.298 229.263 379.121 228.915C378.946 228.564 378.858 228.134 378.858 227.623C378.858 227.112 378.945 226.674 379.118 226.309C379.293 225.944 379.533 225.665 379.837 225.471C380.142 225.275 380.487 225.177 380.873 225.177C381.171 225.177 381.412 225.227 381.595 225.327C381.779 225.425 381.922 225.54 382.024 225.671C382.128 225.802 382.208 225.918 382.265 226.018H382.334V225.239H383.25V230.15C383.25 230.563 383.154 230.902 382.962 231.167C382.77 231.432 382.511 231.628 382.183 231.755C381.858 231.882 381.491 231.946 381.082 231.946ZM381.073 229.196C381.342 229.196 381.569 229.134 381.755 229.009C381.943 228.881 382.084 228.7 382.18 228.464C382.278 228.227 382.327 227.942 382.327 227.61C382.327 227.287 382.279 227.003 382.183 226.756C382.087 226.51 381.947 226.319 381.761 226.181C381.576 226.041 381.346 225.971 381.073 225.971C380.791 225.971 380.557 226.044 380.369 226.19C380.182 226.334 380.04 226.53 379.944 226.778C379.85 227.027 379.803 227.304 379.803 227.61C379.803 227.925 379.851 228.202 379.947 228.439C380.043 228.677 380.185 228.863 380.372 228.996C380.562 229.13 380.796 229.196 381.073 229.196Z" fill="#7F7F7F"/>
<path d="M414.454 225.321C414.421 225.025 414.283 224.795 414.041 224.633C413.799 224.468 413.495 224.385 413.128 224.385C412.865 224.385 412.638 224.427 412.446 224.511C412.254 224.592 412.105 224.705 411.999 224.848C411.894 224.99 411.842 225.152 411.842 225.333C411.842 225.485 411.878 225.617 411.949 225.727C412.022 225.838 412.117 225.931 412.233 226.006C412.352 226.079 412.479 226.14 412.615 226.19C412.75 226.238 412.881 226.278 413.006 226.309L413.632 226.472C413.836 226.522 414.045 226.59 414.26 226.675C414.475 226.761 414.674 226.873 414.858 227.013C415.041 227.153 415.189 227.326 415.302 227.532C415.417 227.739 415.474 227.986 415.474 228.274C415.474 228.636 415.38 228.959 415.192 229.24C415.007 229.522 414.737 229.744 414.382 229.906C414.03 230.069 413.603 230.15 413.103 230.15C412.623 230.15 412.208 230.074 411.858 229.922C411.508 229.77 411.233 229.554 411.035 229.274C410.837 228.993 410.728 228.659 410.707 228.274H411.677C411.695 228.505 411.77 228.698 411.902 228.852C412.035 229.004 412.205 229.118 412.412 229.193C412.62 229.266 412.849 229.303 413.097 229.303C413.37 229.303 413.613 229.26 413.825 229.174C414.04 229.087 414.209 228.966 414.332 228.812C414.455 228.655 414.517 228.473 414.517 228.264C414.517 228.074 414.463 227.919 414.354 227.798C414.248 227.677 414.103 227.577 413.919 227.498C413.738 227.419 413.532 227.349 413.303 227.288L412.546 227.082C412.033 226.942 411.627 226.737 411.326 226.466C411.028 226.194 410.879 225.836 410.879 225.39C410.879 225.02 410.979 224.698 411.179 224.423C411.379 224.148 411.651 223.934 411.992 223.782C412.334 223.627 412.72 223.55 413.15 223.55C413.584 223.55 413.966 223.626 414.298 223.779C414.631 223.931 414.894 224.14 415.086 224.407C415.278 224.672 415.378 224.977 415.386 225.321H414.454ZM418.625 230.141C418.151 230.141 417.743 230.04 417.402 229.838C417.062 229.633 416.799 229.346 416.613 228.977C416.43 228.606 416.338 228.171 416.338 227.673C416.338 227.181 416.43 226.747 416.613 226.372C416.799 225.996 417.057 225.703 417.389 225.493C417.723 225.282 418.113 225.177 418.559 225.177C418.83 225.177 419.093 225.222 419.347 225.311C419.601 225.401 419.83 225.542 420.032 225.734C420.234 225.925 420.394 226.175 420.511 226.481C420.627 226.786 420.686 227.156 420.686 227.592V227.923H416.867V227.223H419.769C419.769 226.976 419.719 226.759 419.619 226.569C419.519 226.377 419.378 226.226 419.197 226.115C419.018 226.005 418.807 225.949 418.565 225.949C418.302 225.949 418.073 226.014 417.877 226.143C417.683 226.271 417.533 226.437 417.427 226.644C417.322 226.848 417.27 227.07 417.27 227.31V227.858C417.27 228.179 417.326 228.452 417.439 228.677C417.554 228.902 417.713 229.074 417.918 229.193C418.122 229.31 418.361 229.368 418.634 229.368C418.811 229.368 418.973 229.343 419.119 229.293C419.265 229.241 419.391 229.164 419.497 229.062C419.604 228.96 419.685 228.833 419.741 228.683L420.626 228.843C420.556 229.103 420.428 229.332 420.245 229.528C420.063 229.722 419.835 229.873 419.56 229.981C419.287 230.088 418.975 230.141 418.625 230.141ZM421.724 231.846V225.239H422.637V226.018H422.715C422.769 225.918 422.848 225.802 422.95 225.671C423.052 225.54 423.194 225.425 423.375 225.327C423.557 225.227 423.796 225.177 424.095 225.177C424.482 225.177 424.829 225.275 425.133 225.471C425.437 225.667 425.676 225.949 425.849 226.319C426.024 226.688 426.112 227.132 426.112 227.651C426.112 228.17 426.026 228.616 425.852 228.987C425.679 229.356 425.442 229.64 425.139 229.841C424.837 230.039 424.492 230.138 424.104 230.138C423.812 230.138 423.573 230.089 423.388 229.991C423.204 229.893 423.06 229.778 422.956 229.647C422.852 229.515 422.771 229.399 422.715 229.296H422.659V231.846H421.724ZM422.64 227.642C422.64 227.979 422.689 228.276 422.787 228.53C422.885 228.784 423.027 228.984 423.212 229.127C423.398 229.269 423.625 229.34 423.894 229.34C424.174 229.34 424.407 229.266 424.595 229.118C424.783 228.968 424.924 228.765 425.02 228.508C425.118 228.252 425.167 227.963 425.167 227.642C425.167 227.325 425.119 227.04 425.024 226.788C424.93 226.535 424.788 226.336 424.598 226.19C424.41 226.044 424.176 225.971 423.894 225.971C423.623 225.971 423.394 226.041 423.206 226.181C423.021 226.321 422.88 226.516 422.784 226.766C422.688 227.016 422.64 227.308 422.64 227.642Z" fill="#7F7F7F"/>
<path d="M460.081 226.841C460.081 227.525 459.956 228.113 459.706 228.605C459.456 229.095 459.113 229.473 458.677 229.737C458.243 230 457.75 230.132 457.197 230.132C456.643 230.132 456.147 230 455.712 229.737C455.278 229.473 454.936 229.094 454.686 228.602C454.435 228.11 454.31 227.523 454.31 226.841C454.31 226.157 454.435 225.57 454.686 225.08C454.936 224.588 455.278 224.21 455.712 223.948C456.147 223.683 456.643 223.55 457.197 223.55C457.75 223.55 458.243 223.683 458.677 223.948C459.113 224.21 459.456 224.588 459.706 225.08C459.956 225.57 460.081 226.157 460.081 226.841ZM459.124 226.841C459.124 226.32 459.04 225.881 458.871 225.524C458.704 225.165 458.475 224.894 458.183 224.711C457.893 224.525 457.564 224.432 457.197 224.432C456.828 224.432 456.499 224.525 456.209 224.711C455.919 224.894 455.69 225.165 455.521 225.524C455.354 225.881 455.271 226.32 455.271 226.841C455.271 227.362 455.354 227.802 455.521 228.161C455.69 228.518 455.919 228.789 456.209 228.974C456.499 229.158 456.828 229.249 457.197 229.249C457.564 229.249 457.893 229.158 458.183 228.974C458.475 228.789 458.704 228.518 458.871 228.161C459.04 227.802 459.124 227.362 459.124 226.841ZM463.235 230.141C462.77 230.141 462.37 230.036 462.034 229.825C461.7 229.612 461.444 229.319 461.264 228.946C461.085 228.573 460.995 228.145 460.995 227.664C460.995 227.176 461.087 226.745 461.271 226.372C461.454 225.996 461.713 225.703 462.046 225.493C462.38 225.282 462.773 225.177 463.226 225.177C463.591 225.177 463.916 225.245 464.202 225.38C464.487 225.514 464.718 225.701 464.893 225.943C465.07 226.185 465.175 226.468 465.209 226.791H464.299C464.249 226.566 464.134 226.372 463.955 226.209C463.777 226.046 463.54 225.965 463.241 225.965C462.981 225.965 462.752 226.034 462.556 226.172C462.362 226.307 462.211 226.501 462.103 226.753C461.994 227.004 461.94 227.3 461.94 227.642C461.94 227.992 461.993 228.294 462.1 228.549C462.206 228.803 462.356 229 462.55 229.14C462.746 229.28 462.977 229.35 463.241 229.35C463.419 229.35 463.579 229.317 463.723 229.253C463.869 229.186 463.991 229.091 464.089 228.968C464.189 228.845 464.259 228.697 464.299 228.524H465.209C465.175 228.834 465.074 229.112 464.905 229.356C464.737 229.6 464.51 229.792 464.227 229.931C463.945 230.071 463.615 230.141 463.235 230.141ZM468.452 225.239V225.99H465.827V225.239H468.452ZM466.531 224.088H467.466V228.633C467.466 228.815 467.494 228.951 467.548 229.043C467.602 229.133 467.672 229.194 467.757 229.228C467.845 229.259 467.94 229.274 468.042 229.274C468.117 229.274 468.183 229.269 468.239 229.259C468.295 229.248 468.339 229.24 468.37 229.234L468.539 230.006C468.485 230.027 468.408 230.048 468.308 230.069C468.208 230.092 468.083 230.104 467.932 230.107C467.686 230.111 467.457 230.067 467.244 229.975C467.032 229.883 466.86 229.742 466.728 229.55C466.597 229.358 466.531 229.117 466.531 228.827V224.088Z" fill="#7F7F7F"/>
<path d="M501.792 223.638V230.044H500.904L497.648 225.346H497.588V230.044H496.622V223.638H497.516L500.776 228.342H500.835V223.638H501.792ZM505.151 230.141C504.7 230.141 504.307 230.038 503.972 229.831C503.636 229.625 503.375 229.336 503.19 228.965C503.004 228.594 502.911 228.16 502.911 227.664C502.911 227.165 503.004 226.729 503.19 226.356C503.375 225.983 503.636 225.693 503.972 225.487C504.307 225.28 504.7 225.177 505.151 225.177C505.601 225.177 505.994 225.28 506.33 225.487C506.666 225.693 506.927 225.983 507.112 226.356C507.298 226.729 507.391 227.165 507.391 227.664C507.391 228.16 507.298 228.594 507.112 228.965C506.927 229.336 506.666 229.625 506.33 229.831C505.994 230.038 505.601 230.141 505.151 230.141ZM505.154 229.356C505.446 229.356 505.688 229.279 505.88 229.124C506.072 228.97 506.213 228.765 506.305 228.508C506.399 228.252 506.446 227.969 506.446 227.66C506.446 227.354 506.399 227.072 506.305 226.816C506.213 226.557 506.072 226.35 505.88 226.193C505.688 226.037 505.446 225.959 505.154 225.959C504.86 225.959 504.616 226.037 504.422 226.193C504.23 226.35 504.087 226.557 503.994 226.816C503.902 227.072 503.856 227.354 503.856 227.66C503.856 227.969 503.902 228.252 503.994 228.508C504.087 228.765 504.23 228.97 504.422 229.124C504.616 229.279 504.86 229.356 505.154 229.356ZM512.381 225.239L510.639 230.044H509.638L507.893 225.239H508.897L510.113 228.937H510.163L511.377 225.239H512.381Z" fill="#7F7F7F"/>
<path d="M541.732 230.044H539.658V223.638H541.797C542.425 223.638 542.964 223.766 543.414 224.023C543.865 224.277 544.21 224.643 544.45 225.121C544.692 225.596 544.813 226.166 544.813 226.832C544.813 227.499 544.691 228.072 544.447 228.552C544.205 229.032 543.854 229.401 543.396 229.659C542.937 229.916 542.382 230.044 541.732 230.044ZM540.624 229.199H541.678C542.166 229.199 542.572 229.108 542.895 228.924C543.218 228.739 543.46 228.471 543.621 228.12C543.781 227.768 543.862 227.338 543.862 226.832C543.862 226.329 543.781 225.903 543.621 225.552C543.462 225.202 543.226 224.936 542.911 224.755C542.596 224.573 542.205 224.482 541.738 224.482H540.624V229.199ZM548.01 230.141C547.537 230.141 547.129 230.04 546.787 229.838C546.447 229.633 546.185 229.346 545.999 228.977C545.815 228.606 545.724 228.171 545.724 227.673C545.724 227.181 545.815 226.747 545.999 226.372C546.185 225.996 546.443 225.703 546.775 225.493C547.108 225.282 547.498 225.177 547.945 225.177C548.216 225.177 548.478 225.222 548.733 225.311C548.987 225.401 549.216 225.542 549.418 225.734C549.62 225.925 549.78 226.175 549.896 226.481C550.013 226.786 550.072 227.156 550.072 227.592V227.923H546.252V227.223H549.155C549.155 226.976 549.105 226.759 549.005 226.569C548.905 226.377 548.764 226.226 548.583 226.115C548.403 226.005 548.193 225.949 547.951 225.949C547.688 225.949 547.459 226.014 547.263 226.143C547.069 226.271 546.919 226.437 546.812 226.644C546.708 226.848 546.656 227.07 546.656 227.31V227.858C546.656 228.179 546.712 228.452 546.825 228.677C546.939 228.902 547.099 229.074 547.303 229.193C547.508 229.31 547.746 229.368 548.02 229.368C548.197 229.368 548.358 229.343 548.504 229.293C548.65 229.241 548.777 229.164 548.883 229.062C548.989 228.96 549.071 228.833 549.127 228.683L550.012 228.843C549.941 229.103 549.814 229.332 549.63 229.528C549.449 229.722 549.221 229.873 548.945 229.981C548.672 230.088 548.361 230.141 548.01 230.141ZM553.133 230.141C552.668 230.141 552.268 230.036 551.932 229.825C551.598 229.612 551.342 229.319 551.162 228.946C550.983 228.573 550.893 228.145 550.893 227.664C550.893 227.176 550.985 226.745 551.169 226.372C551.352 225.996 551.611 225.703 551.944 225.493C552.278 225.282 552.671 225.177 553.124 225.177C553.489 225.177 553.814 225.245 554.1 225.38C554.385 225.514 554.616 225.701 554.791 225.943C554.968 226.185 555.073 226.468 555.107 226.791H554.197C554.146 226.566 554.032 226.372 553.852 226.209C553.675 226.046 553.437 225.965 553.139 225.965C552.879 225.965 552.65 226.034 552.454 226.172C552.26 226.307 552.109 226.501 552.001 226.753C551.892 227.004 551.838 227.3 551.838 227.642C551.838 227.992 551.891 228.294 551.998 228.549C552.104 228.803 552.254 229 552.448 229.14C552.644 229.28 552.874 229.35 553.139 229.35C553.317 229.35 553.477 229.317 553.621 229.253C553.767 229.186 553.889 229.091 553.987 228.968C554.087 228.845 554.157 228.697 554.197 228.524H555.107C555.073 228.834 554.972 229.112 554.803 229.356C554.634 229.6 554.408 229.792 554.125 229.931C553.843 230.071 553.513 230.141 553.133 230.141Z" fill="#7F7F7F"/>
<line x1="61.1074" y1="66.3175" x2="560.979" y2="66.3176" stroke="white" stroke-opacity="0.06" stroke-width="0.550519"/>
<line x1="61.1074" y1="93.2931" x2="560.979" y2="93.2931" stroke="white" stroke-opacity="0.06" stroke-width="0.550519"/>
<line x1="61.1074" y1="120.269" x2="560.979" y2="120.269" stroke="white" stroke-opacity="0.06" stroke-width="0.550519"/>
<line x1="61.1074" y1="147.244" x2="560.979" y2="147.244" stroke="white" stroke-opacity="0.06" stroke-width="0.550519"/>
<line x1="61.1074" y1="174.22" x2="560.979" y2="174.22" stroke="white" stroke-opacity="0.06" stroke-width="0.550519"/>
<line x1="61.1074" y1="201.195" x2="560.979" y2="201.195" stroke="white" stroke-opacity="0.06" stroke-width="0.550519"/>
<g clip-path="url(#clip0_2499_7461)">
<path opacity="0.8" d="M261.76 120.306C166.863 92.7382 93.2316 155.902 66.6133 190.598V203.695H560.842V69.6631C497.395 103.659 442.343 172.764 261.76 120.306Z" fill="url(#paint1_linear_2499_7461)"/>
<path opacity="0.8" d="M237.519 163.635C151.976 173.184 100.254 149.031 61.1074 125.951V204.809H560.842V87.9523C393.623 72.923 337.077 152.523 237.519 163.635Z" fill="url(#paint2_linear_2499_7461)"/>
<path d="M61.3828 125.672C100.53 148.753 151.976 173.183 237.518 163.635C287.206 158.089 326.179 135.484 373.544 116.098" stroke="#3AB54B" stroke-width="2.7526" stroke-linecap="round" stroke-linejoin="round"/>
<path d="M567.586 87.7346C481.301 80.1427 423.438 96.3402 374.354 115.919" stroke="#3AB54B" stroke-width="2.7526" stroke-linecap="round" stroke-linejoin="round" stroke-dasharray="3.15 10.51"/>
<path d="M67.582 190.356C88.4928 167.568 152.202 88.4983 261.76 120.306C418.393 165.78 475.649 123.443 559.603 69.6628" stroke="#AAABAD" stroke-width="2.7526" stroke-linecap="round" stroke-linejoin="round"/>
</g>
<line x1="247.183" y1="115.919" x2="247.183" y2="202.301" stroke="#AAABAD" stroke-width="1.10104" stroke-dasharray="4.4 4.4"/>
<g filter="url(#filter0_b_2499_7461)">
<rect x="217.746" y="74.7283" width="59.4249" height="28.0104" rx="11.0104" fill="#363636" fill-opacity="0.5"/>
<rect x="218.021" y="75.0035" width="58.8744" height="27.4599" rx="10.7351" stroke="white" stroke-opacity="0.1" stroke-width="0.550519"/>
<path d="M234.43 91.8258V86.6647H235.305V91.8258H234.43ZM232.287 89.6832V88.8073H237.448V89.6832H232.287ZM241.891 93.3429C241.354 93.3429 240.879 93.2477 240.468 93.0575C240.058 92.8646 239.739 92.6 239.51 92.2637C239.28 91.9249 239.167 91.5391 239.169 91.1064C239.167 90.7675 239.233 90.4547 239.369 90.168C239.504 89.8787 239.689 89.6376 239.924 89.4447C240.161 89.2492 240.426 89.1254 240.718 89.0732V89.0263C240.335 88.9273 240.03 88.7122 239.803 88.3812C239.576 88.0475 239.464 87.6683 239.467 87.2434C239.464 86.8367 239.567 86.4731 239.775 86.1525C239.984 85.8319 240.271 85.579 240.636 85.394C241.003 85.2089 241.422 85.1164 241.891 85.1164C242.355 85.1164 242.769 85.2089 243.134 85.394C243.499 85.579 243.786 85.8319 243.994 86.1525C244.205 86.4731 244.312 86.8367 244.315 87.2434C244.312 87.6683 244.196 88.0475 243.967 88.3812C243.74 88.7122 243.439 88.9273 243.064 89.0263V89.0732C243.353 89.1254 243.614 89.2492 243.846 89.4447C244.078 89.6376 244.263 89.8787 244.401 90.168C244.539 90.4547 244.609 90.7675 244.612 91.1064C244.609 91.5391 244.492 91.9249 244.26 92.2637C244.031 92.6 243.711 92.8646 243.302 93.0575C242.896 93.2477 242.425 93.3429 241.891 93.3429ZM241.891 92.4827C242.253 92.4827 242.566 92.424 242.829 92.3067C243.092 92.1894 243.296 92.0239 243.439 91.8102C243.582 91.5964 243.655 91.3462 243.658 91.0595C243.655 90.7571 243.577 90.4899 243.423 90.2579C243.27 90.0259 243.06 89.8435 242.794 89.7105C242.531 89.5776 242.23 89.5111 241.891 89.5111C241.549 89.5111 241.244 89.5776 240.976 89.7105C240.71 89.8435 240.5 90.0259 240.346 90.2579C240.195 90.4899 240.121 90.7571 240.123 91.0595C240.121 91.3462 240.19 91.5964 240.331 91.8102C240.474 92.0239 240.679 92.1894 240.945 92.3067C241.21 92.424 241.526 92.4827 241.891 92.4827ZM241.891 88.6822C242.177 88.6822 242.432 88.6249 242.653 88.5102C242.877 88.3955 243.053 88.2352 243.181 88.0293C243.309 87.8233 243.374 87.5822 243.377 87.3059C243.374 87.0348 243.31 86.7989 243.185 86.5982C243.06 86.3949 242.886 86.2385 242.665 86.129C242.443 86.017 242.185 85.9609 241.891 85.9609C241.591 85.9609 241.329 86.017 241.105 86.129C240.881 86.2385 240.707 86.3949 240.585 86.5982C240.462 86.7989 240.402 87.0348 240.405 87.3059C240.402 87.5822 240.464 87.8233 240.589 88.0293C240.716 88.2352 240.892 88.3955 241.117 88.5102C241.341 88.6249 241.599 88.6822 241.891 88.6822ZM246.551 93.296C246.358 93.296 246.193 93.2269 246.055 93.0887C245.917 92.9506 245.848 92.7851 245.848 92.5922C245.848 92.3993 245.917 92.2338 246.055 92.0956C246.193 91.9575 246.358 91.8884 246.551 91.8884C246.744 91.8884 246.91 91.9575 247.048 92.0956C247.186 92.2338 247.255 92.3993 247.255 92.5922C247.255 92.7199 247.223 92.8372 247.157 92.9441C247.095 93.0509 247.01 93.137 246.903 93.2021C246.799 93.2647 246.682 93.296 246.551 93.296ZM248.895 93.2334V92.5296L251.539 89.6363C251.849 89.2974 252.104 89.0028 252.305 88.7526C252.506 88.4998 252.654 88.2626 252.751 88.041C252.85 87.8168 252.899 87.5822 252.899 87.3372C252.899 87.0557 252.831 86.812 252.696 86.6061C252.563 86.4001 252.38 86.2411 252.148 86.129C251.916 86.017 251.656 85.9609 251.366 85.9609C251.059 85.9609 250.79 86.0248 250.561 86.1525C250.334 86.2776 250.158 86.4536 250.033 86.6803C249.911 86.9071 249.849 87.173 249.849 87.478H248.927C248.927 87.0088 249.035 86.5969 249.251 86.2424C249.468 85.8879 249.762 85.6116 250.135 85.4135C250.51 85.2154 250.931 85.1164 251.398 85.1164C251.867 85.1164 252.283 85.2154 252.645 85.4135C253.007 85.6116 253.291 85.8788 253.497 86.2151C253.703 86.5513 253.806 86.9254 253.806 87.3372C253.806 87.6318 253.753 87.9198 253.646 88.2013C253.542 88.4802 253.359 88.7917 253.099 89.1358C252.841 89.4773 252.482 89.8943 252.023 90.387L250.225 92.3107V92.3732H253.947V93.2334H248.895ZM259.644 91.732V91.3097C259.644 91.0178 259.704 90.7506 259.824 90.5082C259.946 90.2631 260.123 90.0677 260.355 89.9217C260.59 89.7731 260.874 89.6988 261.208 89.6988C261.547 89.6988 261.831 89.7731 262.06 89.9217C262.29 90.0677 262.463 90.2631 262.58 90.5082C262.697 90.7506 262.756 91.0178 262.756 91.3097V91.732C262.756 92.0239 262.696 92.2924 262.576 92.5374C262.459 92.7798 262.284 92.9753 262.052 93.1239C261.823 93.2699 261.541 93.3429 261.208 93.3429C260.869 93.3429 260.584 93.2699 260.352 93.1239C260.12 92.9753 259.944 92.7798 259.824 92.5374C259.704 92.2924 259.644 92.0239 259.644 91.732ZM260.441 91.3097V91.732C260.441 91.9744 260.499 92.1921 260.613 92.3849C260.728 92.5752 260.926 92.6704 261.208 92.6704C261.481 92.6704 261.674 92.5752 261.786 92.3849C261.901 92.1921 261.959 91.9744 261.959 91.732V91.3097C261.959 91.0673 261.904 90.8509 261.794 90.6607C261.685 90.4678 261.489 90.3713 261.208 90.3713C260.934 90.3713 260.737 90.4678 260.617 90.6607C260.5 90.8509 260.441 91.0673 260.441 91.3097ZM255.656 87.1495V86.7273C255.656 86.4353 255.716 86.1681 255.836 85.9257C255.958 85.6807 256.135 85.4852 256.367 85.3392C256.602 85.1907 256.886 85.1164 257.22 85.1164C257.559 85.1164 257.843 85.1907 258.072 85.3392C258.301 85.4852 258.475 85.6807 258.592 85.9257C258.709 86.1681 258.768 86.4353 258.768 86.7273V87.1495C258.768 87.4415 258.708 87.71 258.588 87.955C258.471 88.1974 258.296 88.3929 258.064 88.5415C257.835 88.6874 257.553 88.7604 257.22 88.7604C256.881 88.7604 256.595 88.6874 256.363 88.5415C256.131 88.3929 255.955 88.1974 255.836 87.955C255.716 87.71 255.656 87.4415 255.656 87.1495ZM256.453 86.7273V87.1495C256.453 87.392 256.511 87.6096 256.625 87.8025C256.74 87.9928 256.938 88.0879 257.22 88.0879C257.493 88.0879 257.686 87.9928 257.798 87.8025C257.913 87.6096 257.97 87.392 257.97 87.1495V86.7273C257.97 86.4848 257.916 86.2685 257.806 86.0782C257.697 85.8853 257.501 85.7889 257.22 85.7889C256.946 85.7889 256.749 85.8853 256.629 86.0782C256.512 86.2685 256.453 86.4848 256.453 86.7273ZM255.953 93.2334L261.458 85.2258H262.349L256.844 93.2334H255.953Z" fill="white"/>
</g>
<g filter="url(#filter1_d_2499_7461)">
<circle cx="3.30312" cy="3.30312" r="4.87941" transform="matrix(-1 0 0 1 250.762 112.648)" fill="#AAABAD" stroke="white" stroke-width="3.1526"/>
</g>
<defs>
<filter id="filter0_b_2499_7461" x="184.715" y="41.6971" width="125.488" height="94.0728" filterUnits="userSpaceOnUse" color-interpolation-filters="sRGB">
<feFlood flood-opacity="0" result="BackgroundImageFix"/>
<feGaussianBlur in="BackgroundImageFix" stdDeviation="16.5156"/>
<feComposite in2="SourceAlpha" operator="in" result="effect1_backgroundBlur_2499_7461"/>
<feBlend mode="normal" in="SourceGraphic" in2="effect1_backgroundBlur_2499_7461" result="shape"/>
</filter>
<filter id="filter1_d_2499_7461" x="238.75" y="109.345" width="17.4164" height="17.4159" filterUnits="userSpaceOnUse" color-interpolation-filters="sRGB">
<feFlood flood-opacity="0" result="BackgroundImageFix"/>
<feColorMatrix in="SourceAlpha" type="matrix" values="0 0 0 0 0 0 0 0 0 0 0 0 0 0 0 0 0 0 127 0" result="hardAlpha"/>
<feOffset dy="2.10173"/>
<feGaussianBlur stdDeviation="1.05087"/>
<feComposite in2="hardAlpha" operator="out"/>
<feColorMatrix type="matrix" values="0 0 0 0 0 0 0 0 0 0 0 0 0 0 0 0 0 0 0.1 0"/>
<feBlend mode="normal" in2="BackgroundImageFix" result="effect1_dropShadow_2499_7461"/>
<feBlend mode="normal" in="SourceGraphic" in2="effect1_dropShadow_2499_7461" result="shape"/>
</filter>
<linearGradient id="paint0_linear_2499_7461" x1="246.632" y1="98.7675" x2="246.632" y2="202.301" gradientUnits="userSpaceOnUse">
<stop stop-color="white" stop-opacity="0"/>
<stop offset="1" stop-color="white" stop-opacity="0.04"/>
</linearGradient>
<linearGradient id="paint1_linear_2499_7461" x1="312.913" y1="69.6631" x2="312.69" y2="203.137" gradientUnits="userSpaceOnUse">
<stop stop-color="#AAABAD" stop-opacity="0.2"/>
<stop offset="1" stop-color="#AAABAD" stop-opacity="0"/>
</linearGradient>
<linearGradient id="paint2_linear_2499_7461" x1="312.695" y1="9.19562" x2="312.695" y2="204.809" gradientUnits="userSpaceOnUse">
<stop offset="0.095" stop-color="#3AB54B" stop-opacity="0.2"/>
<stop offset="1" stop-color="#3AB54B" stop-opacity="0"/>
</linearGradient>
<clipPath id="clip0_2499_7461">
<rect width="499.872" height="139.326" fill="white" transform="translate(61.1074 65.7617)"/>
</clipPath>
</defs>
</svg>
