<svg width="307" height="198" viewBox="0 0 307 198" fill="none" xmlns="http://www.w3.org/2000/svg">
<g clip-path="url(#clip0_2913_41583)">
<path d="M137 140L137 139L135 139L135 140L137 140ZM135 152C135 152.552 135.448 153 136 153C136.552 153 137 152.552 137 152L135 152ZM135 140L135 152L137 152L137 140L135 140Z" fill="#3AB54B"/>
<path d="M149 140L149 139L147 139L147 140L149 140ZM147 152C147 152.552 147.448 153 148 153C148.552 153 149 152.552 149 152L147 152ZM147 140L147 152L149 152L149 140L147 140Z" fill="#3AB54B"/>
<path d="M161 140L161 139L159 139L159 140L161 140ZM159 152C159 152.552 159.448 153 160 153C160.552 153 161 152.552 161 152L159 152ZM159 140L159 152L161 152L161 140L159 140Z" fill="#3AB54B"/>
<path d="M173 140L173 139L171 139L171 140L173 140ZM171 152C171 152.552 171.448 153 172 153C172.552 153 173 152.552 173 152L171 152ZM171 140L171 152L173 152L173 140L171 140Z" fill="#3AB54B"/>
<path d="M171 50L171 51L173 51L173 50L171 50ZM173 38C173 37.4477 172.552 37 172 37C171.448 37 171 37.4477 171 38L173 38ZM173 50L173 38L171 38L171 50L173 50Z" fill="#3AB54B"/>
<path d="M159 50L159 51L161 51L161 50L159 50ZM161 38C161 37.4477 160.552 37 160 37C159.448 37 159 37.4477 159 38L161 38ZM161 50L161 38L159 38L159 50L161 50Z" fill="#3AB54B"/>
<path d="M147 50L147 51L149 51L149 50L147 50ZM149 38C149 37.4477 148.552 37 148 37C147.448 37 147 37.4477 147 38L149 38ZM149 50L149 38L147 38L147 50L149 50Z" fill="#3AB54B"/>
<path d="M135 50L135 51L137 51L137 50L135 50ZM137 38C137 37.4477 136.552 37 136 37C135.448 37 135 37.4477 135 38L137 38ZM137 50L137 38L135 38L135 50L137 50Z" fill="#3AB54B"/>
<path d="M136.5 152.5L136.5 152L135.5 152L135.5 152.5L136.5 152.5ZM135.5 207.5C135.5 207.776 135.724 208 136 208C136.276 208 136.5 207.776 136.5 207.5L135.5 207.5ZM135.5 152.5L135.5 207.5L136.5 207.5L136.5 152.5L135.5 152.5Z" fill="#3AB54B" fill-opacity="0.4"/>
<path d="M148.5 152.5L148.5 152L147.5 152L147.5 152.5L148.5 152.5ZM147.5 207.5C147.5 207.776 147.724 208 148 208C148.276 208 148.5 207.776 148.5 207.5L147.5 207.5ZM147.5 152.5L147.5 207.5L148.5 207.5L148.5 152.5L147.5 152.5Z" fill="#3AB54B" fill-opacity="0.4"/>
<path d="M160.5 152.5L160.5 152L159.5 152L159.5 152.5L160.5 152.5ZM159.5 207.5C159.5 207.776 159.724 208 160 208C160.276 208 160.5 207.776 160.5 207.5L159.5 207.5ZM159.5 152.5L159.5 207.5L160.5 207.5L160.5 152.5L159.5 152.5Z" fill="#3AB54B" fill-opacity="0.4"/>
<path d="M172.5 152.5L172.5 152L171.5 152L171.5 152.5L172.5 152.5ZM171.5 207.5C171.5 207.776 171.724 208 172 208C172.276 208 172.5 207.776 172.5 207.5L171.5 207.5ZM171.5 152.5L171.5 207.5L172.5 207.5L172.5 152.5L171.5 152.5Z" fill="#3AB54B" fill-opacity="0.4"/>
<path d="M171.5 37.5L171.5 38L172.5 38L172.5 37.5L171.5 37.5ZM172.5 -17.5C172.5 -17.7761 172.276 -18 172 -18C171.724 -18 171.5 -17.7761 171.5 -17.5L172.5 -17.5ZM172.5 37.5L172.5 -17.5L171.5 -17.5L171.5 37.5L172.5 37.5Z" fill="#3AB54B" fill-opacity="0.4"/>
<path d="M159.5 37.5L159.5 38L160.5 38L160.5 37.5L159.5 37.5ZM160.5 -17.5C160.5 -17.7761 160.276 -18 160 -18C159.724 -18 159.5 -17.7761 159.5 -17.5L160.5 -17.5ZM160.5 37.5L160.5 -17.5L159.5 -17.5L159.5 37.5L160.5 37.5Z" fill="#3AB54B" fill-opacity="0.4"/>
<path d="M147.5 37.5L147.5 38L148.5 38L148.5 37.5L147.5 37.5ZM148.5 -17.5C148.5 -17.7761 148.276 -18 148 -18C147.724 -18 147.5 -17.7761 147.5 -17.5L148.5 -17.5ZM148.5 37.5L148.5 -17.5L147.5 -17.5L147.5 37.5L148.5 37.5Z" fill="#3AB54B" fill-opacity="0.4"/>
<path d="M135.5 37.5L135.5 38L136.5 38L136.5 37.5L135.5 37.5ZM136.5 -17.5C136.5 -17.7761 136.276 -18 136 -18C135.724 -18 135.5 -17.7761 135.5 -17.5L136.5 -17.5ZM136.5 37.5L136.5 -17.5L135.5 -17.5L135.5 37.5L136.5 37.5Z" fill="#3AB54B" fill-opacity="0.4"/>
<path d="M199 112H198V114H199V112ZM211 114C211.552 114 212 113.552 212 113C212 112.448 211.552 112 211 112V114ZM199 114H211V112H199V114Z" fill="#3AB54B"/>
<path d="M199 100H198V102H199V100ZM211 102C211.552 102 212 101.552 212 101C212 100.448 211.552 100 211 100V102ZM199 102H211V100H199V102Z" fill="#3AB54B"/>
<path d="M199 88H198V90H199V88ZM211 90C211.552 90 212 89.5523 212 89C212 88.4477 211.552 88 211 88V90ZM199 90H211V88H199V90Z" fill="#3AB54B"/>
<path d="M199 76H198V78H199V76ZM211 78C211.552 78 212 77.5523 212 77C212 76.4477 211.552 76 211 76V78ZM199 78H211V76H199V78Z" fill="#3AB54B"/>
<path d="M97 77.5L97.5 77.5L97.5 76.5L97 76.5L97 77.5ZM-4.99998 76.5C-5.27613 76.5 -5.49998 76.7239 -5.49998 77C-5.49998 77.2761 -5.27613 77.5 -4.99998 77.5L-4.99998 76.5ZM97 76.5L-4.99998 76.5L-4.99998 77.5L97 77.5L97 76.5Z" fill="#3AB54B" fill-opacity="0.4"/>
<path d="M97 89.5L97.5 89.5L97.5 88.5L97 88.5L97 89.5ZM-4.99998 88.5C-5.27613 88.5 -5.49998 88.7239 -5.49998 89C-5.49998 89.2761 -5.27613 89.5 -4.99998 89.5L-4.99998 88.5ZM97 88.5L-4.99998 88.5L-4.99998 89.5L97 89.5L97 88.5Z" fill="#3AB54B" fill-opacity="0.4"/>
<path d="M97 101.5L97.5 101.5L97.5 100.5L97 100.5L97 101.5ZM-4.99998 100.5C-5.27613 100.5 -5.49998 100.724 -5.49998 101C-5.49998 101.276 -5.27613 101.5 -4.99998 101.5L-4.99998 100.5ZM97 100.5L-4.99998 100.5L-4.99998 101.5L97 101.5L97 100.5Z" fill="#3AB54B" fill-opacity="0.4"/>
<path d="M97 113.5L97.5 113.5L97.5 112.5L97 112.5L97 113.5ZM-6.71117 136.547C-6.96147 136.663 -7.06982 136.961 -6.95317 137.211C-6.83653 137.461 -6.53906 137.57 -6.28877 137.453L-6.71117 136.547ZM45 113L45 112.5L44.8892 112.5L44.7888 112.547L45 113ZM97 112.5L45 112.5L45 113.5L97 113.5L97 112.5ZM44.7888 112.547L-6.71117 136.547L-6.28877 137.453L45.2112 113.453L44.7888 112.547Z" fill="#3AB54B" fill-opacity="0.4"/>
<path d="M212 113L211.5 113L211.5 114L212 114L212 113ZM314 114C314.276 114 314.5 113.776 314.5 113.5C314.5 113.224 314.276 113 314 113L314 114ZM212 114L314 114L314 113L212 113L212 114Z" fill="#3AB54B" fill-opacity="0.4"/>
<path d="M212 101L211.5 101L211.5 102L212 102L212 101ZM314 102C314.276 102 314.5 101.776 314.5 101.5C314.5 101.224 314.276 101 314 101L314 102ZM212 102L314 102L314 101L212 101L212 102Z" fill="#3AB54B" fill-opacity="0.4"/>
<path d="M212 89.0001L211.5 89.0001L211.5 90.0001L212 90.0001L212 89.0001ZM307.693 73.4612C307.948 73.3548 308.068 73.062 307.961 72.8072C307.855 72.5523 307.562 72.4321 307.307 72.5385L307.693 73.4612ZM268 89.5001L268 90.0001L268.1 90.0001L268.193 89.9614L268 89.5001ZM212 90.0001L268 90.0001L268 89.0001L212 89.0001L212 90.0001ZM268.193 89.9614L307.693 73.4612L307.307 72.5385L267.807 89.0387L268.193 89.9614Z" fill="#3AB54B" fill-opacity="0.4"/>
<path d="M212 77L211.5 77L211.5 78L212 78L212 77ZM315.711 53.9532C315.961 53.8366 316.07 53.5391 315.953 53.2888C315.837 53.0385 315.539 52.9302 315.289 53.0468L315.711 53.9532ZM264 77.5L264 78L264.111 78L264.211 77.9532L264 77.5ZM212 78L264 78L264 77L212 77L212 78ZM264.211 77.9532L315.711 53.9532L315.289 53.0468L263.789 77.0468L264.211 77.9532Z" fill="#3AB54B" fill-opacity="0.4"/>
<path d="M109 78L110 78L110 76L109 76L109 78ZM97 76C96.4477 76 96 76.4477 96 77C96 77.5523 96.4477 78 97 78L97 76ZM109 76L97 76L97 78L109 78L109 76Z" fill="#3AB54B"/>
<path d="M109 90L110 90L110 88L109 88L109 90ZM97 88C96.4477 88 96 88.4477 96 89C96 89.5523 96.4477 90 97 90L97 88ZM109 88L97 88L97 90L109 90L109 88Z" fill="#3AB54B"/>
<path d="M109 102L110 102L110 100L109 100L109 102ZM97 100C96.4477 100 96 100.448 96 101C96 101.552 96.4477 102 97 102L97 100ZM109 100L97 100L97 102L109 102L109 100Z" fill="#3AB54B"/>
<path d="M109 114L110 114L110 112L109 112L109 114ZM97 112C96.4477 112 96 112.448 96 113C96 113.552 96.4477 114 97 114L97 112ZM109 112L97 112L97 114L109 114L109 112Z" fill="#3AB54B"/>
<rect x="109" y="50.5" width="89" height="89" rx="20" fill="#3AB54B" fill-opacity="0.2"/>
<rect x="109.5" y="51" width="88" height="88" rx="19.5" stroke="#3AB54B" stroke-opacity="0.6"/>
<path d="M163.986 85.9375H163.486V86.4375V104.445V104.945H163.986H166.198H166.698V104.445V86.4375V85.9375H166.198H163.986Z" fill="#3AB54B" stroke="#3AB54B"/>
<path d="M143.362 104.945H143.702L143.827 104.629L145.738 99.7928H153.451L155.361 104.629L155.486 104.945H155.826H158.188H158.934L158.651 104.255L151.263 86.2477L151.136 85.9375H150.8H148.388H148.053L147.925 86.2477L140.537 104.255L140.254 104.945H141H143.362ZM146.937 96.792L149.594 90.0731L152.251 96.792H146.937Z" fill="#3AB54B" stroke="#3AB54B"/>
</g>
<defs>
<clipPath id="clip0_2913_41583">
<rect width="307" height="198" fill="white"/>
</clipPath>
</defs>
</svg>
