<svg width="294" height="198" viewBox="0 0 294 198" fill="none" xmlns="http://www.w3.org/2000/svg">
<g clip-path="url(#clip0_2613_37130)">
<rect x="81.168" y="48.7969" width="130.672" height="84.4098" rx="2" fill="#3AB54B" fill-opacity="0.2"/>
<rect x="81.168" y="48.7969" width="130.672" height="10.0041" rx="2" fill="#3AB54B" fill-opacity="0.2"/>
<ellipse cx="93.1937" cy="53.7986" rx="1.88516" ry="1.87577" fill="#3AB54B"/>
<ellipse cx="98.848" cy="53.7986" rx="1.88516" ry="1.87577" fill="#3AB54B"/>
<ellipse cx="104.504" cy="53.7986" rx="1.88516" ry="1.87577" fill="#3AB54B"/>
<path d="M170.155 48.7966V-23.108H152.564M191.829 48.7966V-52.4951M218.843 55.3619H238.318V12.4996M218.843 69.1175H294.5M218.843 88.1879H262.819M219.157 140.71V171.347M213.817 176.974H150.365M150.365 133.206V225.119M124.922 133.206V171.972M102.934 133.206V151.964H50.4766" stroke="#3AB54B" stroke-opacity="0.4"/>
<path d="M88.173 123.515H70.2684M88.173 100.068H12.7852M88.173 82.2483H29.7474V52.5486M88.173 65.0537H69.0119V12M120.213 48.797V28.7888" stroke="#3AB54B" stroke-opacity="0.4"/>
<g clip-path="url(#clip1_2613_37130)">
<path d="M198.738 124.756V134.918C198.738 138.463 207.597 141.335 218.528 141.335C229.458 141.335 238.317 138.463 238.317 134.918V124.756H198.738Z" fill="#3AB54B"/>
<path d="M198.738 114.68V124.842C198.738 128.387 207.597 131.259 218.528 131.259C229.458 131.259 238.317 128.387 238.317 124.842V114.68H198.738Z" fill="#236D2D"/>
<path d="M198.738 104.609V114.771C198.738 118.316 207.597 121.188 218.528 121.188C229.458 121.188 238.317 118.316 238.317 114.771V104.609H198.738Z" fill="#17481E"/>
<path d="M238.317 104.609C238.317 108.154 229.458 111.026 218.528 111.026C207.597 111.026 198.738 108.154 198.738 104.609C198.738 101.065 207.597 98.1923 218.528 98.1923C229.458 98.1923 238.317 101.065 238.317 104.609Z" fill="#0C240F"/>
</g>
<path d="M244.1 6.25258C244.1 9.4274 241.513 12.0052 238.317 12.0052C235.122 12.0052 232.535 9.4274 232.535 6.25258C232.535 3.07775 235.122 0.5 238.317 0.5C241.513 0.5 244.1 3.07775 244.1 6.25258Z" stroke="#3AB54B" stroke-opacity="0.4"/>
<ellipse cx="238.32" cy="6.25298" rx="2.51354" ry="2.50103" fill="#3AB54B"/>
<path d="M274.877 88.1881C274.877 91.363 272.291 93.9407 269.095 93.9407C265.899 93.9407 263.312 91.363 263.312 88.1881C263.312 85.0133 265.899 82.4355 269.095 82.4355C272.291 82.4355 274.877 85.0133 274.877 88.1881Z" stroke="#3AB54B" stroke-opacity="0.4"/>
<ellipse cx="269.098" cy="88.1876" rx="2.51354" ry="2.50103" fill="#3AB54B"/>
<path d="M225.252 176.975C225.252 180.15 222.666 182.728 219.47 182.728C216.274 182.728 213.688 180.15 213.688 176.975C213.688 173.8 216.274 171.223 219.47 171.223C222.666 171.223 225.252 173.8 225.252 176.975Z" stroke="#3AB54B" stroke-opacity="0.4"/>
<ellipse cx="219.473" cy="176.976" rx="2.51354" ry="2.50103" fill="#3AB54B"/>
<path d="M130.391 178.225C130.391 181.4 127.804 183.978 124.608 183.978C121.413 183.978 118.826 181.4 118.826 178.225C118.826 175.05 121.413 172.473 124.608 172.473C127.804 172.473 130.391 175.05 130.391 178.225Z" stroke="#3AB54B" stroke-opacity="0.4"/>
<ellipse cx="124.611" cy="178.226" rx="2.51354" ry="2.50103" fill="#3AB54B"/>
<path d="M49.967 153.84C49.967 157.015 47.3804 159.593 44.1847 159.593C40.9889 159.593 38.4023 157.015 38.4023 153.84C38.4023 150.666 40.9889 148.088 44.1847 148.088C47.3804 148.088 49.967 150.666 49.967 153.84Z" stroke="#3AB54B" stroke-opacity="0.4"/>
<ellipse cx="44.1874" cy="153.841" rx="2.51354" ry="2.50103" fill="#3AB54B"/>
<path d="M70.0725 125.079C70.0725 128.254 67.4859 130.831 64.2901 130.831C61.0944 130.831 58.5078 128.254 58.5078 125.079C58.5078 121.904 61.0944 119.326 64.2901 119.326C67.4859 119.326 70.0725 121.904 70.0725 125.079Z" stroke="#3AB54B" stroke-opacity="0.4"/>
<ellipse cx="64.2928" cy="125.079" rx="2.51354" ry="2.50103" fill="#3AB54B"/>
<path d="M12.2834 100.253C12.2834 103.427 9.6968 106.005 6.50107 106.005C3.30534 106.005 0.71875 103.427 0.71875 100.253C0.71875 97.0778 3.30534 94.5 6.50107 94.5C9.6968 94.5 12.2834 97.0778 12.2834 100.253Z" stroke="#3AB54B" stroke-opacity="0.4"/>
<ellipse cx="6.50182" cy="100.253" rx="2.51354" ry="2.50103" fill="#3AB54B"/>
<path d="M35.5275 48.1715C35.5275 51.3463 32.9409 53.9241 29.7452 53.9241C26.5495 53.9241 23.9629 51.3463 23.9629 48.1715C23.9629 44.9967 26.5495 42.4189 29.7452 42.4189C32.9409 42.4189 35.5275 44.9967 35.5275 48.1715Z" stroke="#3AB54B" stroke-opacity="0.4"/>
<ellipse cx="29.7499" cy="48.1719" rx="2.51354" ry="2.50103" fill="#3AB54B"/>
<path d="M75.0646 6.25258C75.0646 9.4274 72.478 12.0052 69.2823 12.0052C66.0866 12.0052 63.5 9.4274 63.5 6.25258C63.5 3.07775 66.0866 0.5 69.2823 0.5C72.478 0.5 75.0646 3.07775 75.0646 6.25258Z" stroke="#3AB54B" stroke-opacity="0.4"/>
<ellipse cx="69.285" cy="6.25298" rx="2.51354" ry="2.50103" fill="#3AB54B"/>
<path d="M125.994 22.5358C125.994 25.7106 123.408 28.2884 120.212 28.2884C117.016 28.2884 114.43 25.7106 114.43 22.5358C114.43 19.361 117.016 16.7832 120.212 16.7832C123.408 16.7832 125.994 19.361 125.994 22.5358Z" stroke="#3AB54B" stroke-opacity="0.4"/>
<ellipse cx="120.215" cy="22.5362" rx="2.51354" ry="2.50103" fill="#3AB54B"/>
<path d="M169.33 107.596H171.592C172.078 107.596 172.463 107.446 172.748 107.146C173.049 106.862 173.2 106.479 173.2 105.995V99.2176C173.2 98.534 173.334 98.0171 173.602 97.667C173.87 97.3002 174.322 97.0584 174.959 96.9417C174.322 96.825 173.87 96.5915 173.602 96.2414C173.334 95.8746 173.2 95.3494 173.2 94.6657V87.8879C173.2 87.4044 173.049 87.0209 172.748 86.7375C172.463 86.4373 172.078 86.2873 171.592 86.2873H169.33V84.4365H171.994C173.099 84.4365 173.929 84.72 174.482 85.2869C175.034 85.8371 175.311 86.6208 175.311 87.6378V94.3656C175.311 94.9492 175.47 95.3744 175.788 95.6411C176.123 95.8912 176.701 96.0163 177.522 96.0163V97.8671C176.701 97.8671 176.123 98.0004 175.788 98.2672C175.47 98.5173 175.311 98.9342 175.311 99.5177V106.246C175.311 107.263 175.034 108.046 174.482 108.596C173.929 109.163 173.099 109.447 171.994 109.447H169.33V107.596Z" fill="#3AB54B"/>
<path d="M159.986 86.4375H162.198V104.445H159.986V86.4375Z" fill="#3AB54B"/>
<path d="M143.91 86.4375H151.147C152.521 86.4375 153.669 86.6876 154.59 87.1878C155.528 87.6713 156.224 88.3299 156.676 89.1636C157.145 89.9973 157.379 90.931 157.379 91.9648C157.379 92.9985 157.145 93.9323 156.676 94.7659C156.224 95.5996 155.528 96.2665 154.59 96.7668C153.669 97.2503 152.521 97.4921 151.147 97.4921H146.122V104.445H143.91V86.4375ZM151.147 95.4912C152.471 95.4912 153.459 95.1744 154.113 94.5408C154.766 93.8906 155.093 93.0319 155.093 91.9648C155.093 90.8977 154.766 90.0473 154.113 89.4137C153.459 88.7635 152.471 88.4383 151.147 88.4383H146.122V95.4912H151.147Z" fill="#3AB54B"/>
<path d="M137.363 99.2928H128.97L126.934 104.445H124.572L131.96 86.4375H134.373L141.761 104.445H139.399L137.363 99.2928ZM136.559 97.292L133.166 88.7134L129.774 97.292H136.559Z" fill="#3AB54B"/>
<path d="M115.525 109.447C114.419 109.447 113.59 109.163 113.037 108.596C112.484 108.046 112.207 107.263 112.207 106.246V99.5177C112.207 98.9342 112.04 98.5173 111.705 98.2672C111.387 98.0004 110.817 97.8671 109.996 97.8671V96.0163C110.817 96.0163 111.387 95.8912 111.705 95.6411C112.04 95.3744 112.207 94.9492 112.207 94.3656V87.6378C112.207 86.6208 112.484 85.8371 113.037 85.2869C113.59 84.72 114.419 84.4365 115.525 84.4365H118.188V86.2873H115.927C115.458 86.2873 115.072 86.4373 114.771 86.7375C114.469 87.0209 114.318 87.4044 114.318 87.8879V94.6657C114.318 95.3494 114.184 95.8746 113.916 96.2414C113.648 96.5915 113.196 96.825 112.559 96.9417C113.196 97.0584 113.648 97.3002 113.916 97.667C114.184 98.0171 114.318 98.534 114.318 99.2176V105.995C114.318 106.479 114.469 106.862 114.771 107.146C115.072 107.446 115.458 107.596 115.927 107.596H118.188V109.447H115.525Z" fill="#3AB54B"/>
</g>
<defs>
<clipPath id="clip0_2613_37130">
<rect width="294" height="198" fill="white"/>
</clipPath>
<clipPath id="clip1_2613_37130">
<rect width="39.5786" height="43.1428" fill="white" transform="translate(198.738 98.1923)"/>
</clipPath>
</defs>
</svg>
