<svg width="245" height="169" viewBox="0 0 245 169" fill="none" xmlns="http://www.w3.org/2000/svg">
<path d="M0 100C0 95.5817 3.58172 92 8 92H67C71.4183 92 75 95.5817 75 100V169H8C3.58172 169 0 165.418 0 161V100Z" fill="#3AB54B" fill-opacity="0.2"/>
<path d="M85 59C85 54.5817 88.5817 51 93 51H152C156.418 51 160 54.5817 160 59V169H85V59Z" fill="#3AB54B" fill-opacity="0.6"/>
<path d="M170 8C170 3.58172 173.582 0 178 0H237C241.418 0 245 3.58172 245 8V161C245 165.418 241.418 169 237 169H170V8Z" fill="#3AB54B"/>
</svg>
